%TF.GenerationSoftware,KiCad,Pcbnew,6.0.11+dfsg-1~bpo11+1*%
%TF.CreationDate,2023-11-07T00:47:49-03:00*%
%TF.ProjectId,controller,636f6e74-726f-46c6-9c65-722e6b696361,rev?*%
%TF.SameCoordinates,Original*%
%TF.FileFunction,Drillmap*%
%TF.FilePolarity,Positive*%
%FSLAX45Y45*%
G04 Gerber Fmt 4.5, Leading zero omitted, Abs format (unit mm)*
G04 Created by KiCad (PCBNEW 6.0.11+dfsg-1~bpo11+1) date 2023-11-07 00:47:49*
%MOMM*%
%LPD*%
G01*
G04 APERTURE LIST*
%ADD10C,0.100000*%
%ADD11C,0.200000*%
G04 APERTURE END LIST*
D10*
X19250000Y-12950000D02*
X19250000Y-7150000D01*
X9750000Y-12950000D02*
X19250000Y-12950000D01*
X9750000Y-7150000D02*
X9750000Y-12950000D01*
X19250000Y-7150000D02*
X9750000Y-7150000D01*
D11*
X10002619Y-13265476D02*
X10002619Y-13065476D01*
X10050238Y-13065476D01*
X10078810Y-13075000D01*
X10097857Y-13094048D01*
X10107381Y-13113095D01*
X10116905Y-13151190D01*
X10116905Y-13179762D01*
X10107381Y-13217857D01*
X10097857Y-13236905D01*
X10078810Y-13255952D01*
X10050238Y-13265476D01*
X10002619Y-13265476D01*
X10202619Y-13265476D02*
X10202619Y-13132143D01*
X10202619Y-13170238D02*
X10212143Y-13151190D01*
X10221667Y-13141667D01*
X10240714Y-13132143D01*
X10259762Y-13132143D01*
X10326429Y-13265476D02*
X10326429Y-13132143D01*
X10326429Y-13065476D02*
X10316905Y-13075000D01*
X10326429Y-13084524D01*
X10335952Y-13075000D01*
X10326429Y-13065476D01*
X10326429Y-13084524D01*
X10450238Y-13265476D02*
X10431190Y-13255952D01*
X10421667Y-13236905D01*
X10421667Y-13065476D01*
X10555000Y-13265476D02*
X10535952Y-13255952D01*
X10526429Y-13236905D01*
X10526429Y-13065476D01*
X10783571Y-13265476D02*
X10783571Y-13065476D01*
X10850238Y-13208333D01*
X10916905Y-13065476D01*
X10916905Y-13265476D01*
X11097857Y-13265476D02*
X11097857Y-13160714D01*
X11088333Y-13141667D01*
X11069286Y-13132143D01*
X11031190Y-13132143D01*
X11012143Y-13141667D01*
X11097857Y-13255952D02*
X11078810Y-13265476D01*
X11031190Y-13265476D01*
X11012143Y-13255952D01*
X11002619Y-13236905D01*
X11002619Y-13217857D01*
X11012143Y-13198809D01*
X11031190Y-13189286D01*
X11078810Y-13189286D01*
X11097857Y-13179762D01*
X11193095Y-13132143D02*
X11193095Y-13332143D01*
X11193095Y-13141667D02*
X11212143Y-13132143D01*
X11250238Y-13132143D01*
X11269286Y-13141667D01*
X11278809Y-13151190D01*
X11288333Y-13170238D01*
X11288333Y-13227381D01*
X11278809Y-13246428D01*
X11269286Y-13255952D01*
X11250238Y-13265476D01*
X11212143Y-13265476D01*
X11193095Y-13255952D01*
X11374048Y-13246428D02*
X11383571Y-13255952D01*
X11374048Y-13265476D01*
X11364524Y-13255952D01*
X11374048Y-13246428D01*
X11374048Y-13265476D01*
X11374048Y-13141667D02*
X11383571Y-13151190D01*
X11374048Y-13160714D01*
X11364524Y-13151190D01*
X11374048Y-13141667D01*
X11374048Y-13160714D01*
M02*
