M48
; DRILL file {KiCad 6.0.11+dfsg-1~bpo11+1} date ter 07 nov 2023 00:47:49
; FORMAT={-:-/ absolute / inch / decimal}
; #@! TF.CreationDate,2023-11-07T00:47:49-03:00
; #@! TF.GenerationSoftware,Kicad,Pcbnew,6.0.11+dfsg-1~bpo11+1
; #@! TF.FileFunction,Plated,1,2,PTH
FMAT,2
INCH
; #@! TA.AperFunction,Plated,PTH,ComponentDrill
T1C0.0118
; #@! TA.AperFunction,Plated,PTH,ViaDrill
T2C0.0157
; #@! TA.AperFunction,Plated,PTH,ComponentDrill
T3C0.0394
; #@! TA.AperFunction,Plated,PTH,ComponentDrill
T4C0.0433
; #@! TA.AperFunction,Plated,PTH,ComponentDrill
T5C0.0472
%
G90
G05
T1
X5.0892Y-3.4306
X5.0892Y-3.4739
X5.0892Y-3.525
X5.0892Y-3.5723
X5.1365Y-3.4306
X5.1365Y-3.4739
X5.1365Y-3.525
X5.1365Y-3.5723
T2
X4.1339Y-3.9685
X4.1457Y-4.937
X4.185Y-4.0748
X4.2244Y-3.1063
X4.2283Y-3.6811
X4.378Y-2.8465
X4.8386Y-3.7441
X4.8465Y-3.5709
X4.8504Y-3.9213
X4.9173Y-3.2283
X4.937Y-3.5118
X4.9528Y-4.6457
X5.0Y-3.3543
X5.2008Y-3.3543
X5.2598Y-4.1496
X5.3583Y-3.6102
X5.4724Y-3.6063
X5.5433Y-4.5472
X5.5591Y-3.5512
X5.6693Y-4.4213
X5.7717Y-3.4331
X5.8346Y-3.4331
X5.8937Y-3.3858
X5.9094Y-4.689
X5.9803Y-3.3819
X6.0433Y-3.4409
X6.1102Y-3.4409
X6.3583Y-4.1142
X6.3726Y-3.723
X6.374Y-3.8937
X6.4134Y-4.1142
X6.4921Y-4.1142
X6.6969Y-4.5591
X6.7047Y-3.5748
X6.7756Y-3.0827
X7.1614Y-3.8504
X7.2126Y-3.3504
X7.2323Y-3.8504
X7.374Y-2.9764
T3
X4.0587Y-4.1306
X4.0587Y-4.2306
X4.5726Y-3.0921
X4.6726Y-3.0921
X4.7726Y-3.0921
X4.8173Y-4.8514
X4.8197Y-4.2614
X4.8726Y-3.0921
X4.9173Y-4.8514
X4.9197Y-4.2614
X4.9726Y-3.0921
X5.0173Y-4.8514
X5.0197Y-4.2614
X5.0726Y-3.0921
X5.1173Y-4.8514
X5.1197Y-4.2614
X5.1726Y-3.0921
X5.2173Y-4.8514
X5.2197Y-4.2614
X5.2726Y-3.0921
X5.3173Y-4.8514
X5.3197Y-4.2614
X5.3726Y-3.0921
X5.4173Y-4.8514
X5.4197Y-4.2614
X5.4726Y-3.0921
X5.5173Y-4.8514
X5.5197Y-4.2614
X5.5726Y-3.0921
X5.6173Y-4.8514
X5.6197Y-4.2614
X5.6726Y-3.0921
X5.7173Y-4.8514
X5.7197Y-4.2614
X5.7726Y-3.0921
X5.8173Y-4.8514
X5.8197Y-4.2614
X5.8726Y-3.0921
X5.9173Y-4.8514
X5.9197Y-4.2614
X5.9726Y-3.0921
X6.0173Y-4.8514
X6.0197Y-4.2614
X6.0726Y-3.0921
X6.1173Y-4.8514
X6.1197Y-4.2614
X6.1726Y-3.0921
X6.2173Y-4.8514
X6.2197Y-4.2614
X6.2726Y-3.0921
X6.3726Y-3.0921
X6.4726Y-3.0921
X7.3447Y-3.7014
X7.3447Y-3.8014
T4
X4.0611Y-4.4785
X4.0611Y-4.7344
X4.2383Y-4.4785
X4.2383Y-4.7344
T5
X7.0472Y-4.0945
X7.0472Y-4.9213
X7.3425Y-4.0945
X7.3425Y-4.7835
T0
M30
