%TF.GenerationSoftware,KiCad,Pcbnew,6.0.11+dfsg-1~bpo11+1*%
%TF.CreationDate,2023-11-07T00:47:45-03:00*%
%TF.ProjectId,controller,636f6e74-726f-46c6-9c65-722e6b696361,rev?*%
%TF.SameCoordinates,Original*%
%TF.FileFunction,Copper,L1,Top*%
%TF.FilePolarity,Positive*%
%FSLAX46Y46*%
G04 Gerber Fmt 4.6, Leading zero omitted, Abs format (unit mm)*
G04 Created by KiCad (PCBNEW 6.0.11+dfsg-1~bpo11+1) date 2023-11-07 00:47:45*
%MOMM*%
%LPD*%
G01*
G04 APERTURE LIST*
G04 Aperture macros list*
%AMRoundRect*
0 Rectangle with rounded corners*
0 $1 Rounding radius*
0 $2 $3 $4 $5 $6 $7 $8 $9 X,Y pos of 4 corners*
0 Add a 4 corners polygon primitive as box body*
4,1,4,$2,$3,$4,$5,$6,$7,$8,$9,$2,$3,0*
0 Add four circle primitives for the rounded corners*
1,1,$1+$1,$2,$3*
1,1,$1+$1,$4,$5*
1,1,$1+$1,$6,$7*
1,1,$1+$1,$8,$9*
0 Add four rect primitives between the rounded corners*
20,1,$1+$1,$2,$3,$4,$5,0*
20,1,$1+$1,$4,$5,$6,$7,0*
20,1,$1+$1,$6,$7,$8,$9,0*
20,1,$1+$1,$8,$9,$2,$3,0*%
G04 Aperture macros list end*
%TA.AperFunction,ComponentPad*%
%ADD10C,2.000000*%
%TD*%
%TA.AperFunction,ComponentPad*%
%ADD11R,2.500000X2.500000*%
%TD*%
%TA.AperFunction,ComponentPad*%
%ADD12O,2.500000X2.500000*%
%TD*%
%TA.AperFunction,SMDPad,CuDef*%
%ADD13RoundRect,0.250000X-0.350000X-0.450000X0.350000X-0.450000X0.350000X0.450000X-0.350000X0.450000X0*%
%TD*%
%TA.AperFunction,ComponentPad*%
%ADD14R,1.700000X1.700000*%
%TD*%
%TA.AperFunction,ComponentPad*%
%ADD15O,1.700000X1.700000*%
%TD*%
%TA.AperFunction,SMDPad,CuDef*%
%ADD16R,2.000000X1.100000*%
%TD*%
%TA.AperFunction,SMDPad,CuDef*%
%ADD17R,0.800000X1.100000*%
%TD*%
%TA.AperFunction,SMDPad,CuDef*%
%ADD18RoundRect,0.250000X0.350000X0.450000X-0.350000X0.450000X-0.350000X-0.450000X0.350000X-0.450000X0*%
%TD*%
%TA.AperFunction,SMDPad,CuDef*%
%ADD19RoundRect,0.150000X-0.587500X-0.150000X0.587500X-0.150000X0.587500X0.150000X-0.587500X0.150000X0*%
%TD*%
%TA.AperFunction,SMDPad,CuDef*%
%ADD20R,2.950000X4.500000*%
%TD*%
%TA.AperFunction,ComponentPad*%
%ADD21C,0.600000*%
%TD*%
%TA.AperFunction,ViaPad*%
%ADD22C,0.800000*%
%TD*%
%TA.AperFunction,Conductor*%
%ADD23C,0.508000*%
%TD*%
%TA.AperFunction,Conductor*%
%ADD24C,0.381000*%
%TD*%
G04 APERTURE END LIST*
D10*
%TO.P,SW1,1,1*%
%TO.N,+5V*%
X107652000Y-113753000D03*
X107652000Y-120253000D03*
%TO.P,SW1,2,2*%
%TO.N,/BUTTON_SIGNAL*%
X103152000Y-113753000D03*
X103152000Y-120253000D03*
%TD*%
D11*
%TO.P,K1,1*%
%TO.N,+5V*%
X179000000Y-104000000D03*
D12*
%TO.P,K1,3*%
X179000000Y-125000000D03*
%TO.P,K1,5*%
%TO.N,/MOTOR_5V*%
X186500000Y-121500000D03*
%TO.P,K1,6*%
%TO.N,Net-(D2-Pad2)*%
X186500000Y-104000000D03*
%TD*%
D13*
%TO.P,R2,1*%
%TO.N,/BUTTON_SIGNAL*%
X103132000Y-123734000D03*
%TO.P,R2,2*%
%TO.N,GND*%
X105132000Y-123734000D03*
%TD*%
D14*
%TO.P,J1,1,Pin_1*%
%TO.N,GND*%
X164405000Y-78540000D03*
D15*
%TO.P,J1,2,Pin_2*%
%TO.N,+3V3*%
X161865000Y-78540000D03*
%TO.P,J1,3,Pin_3*%
%TO.N,GND*%
X159325000Y-78540000D03*
%TO.P,J1,4,Pin_4*%
%TO.N,/SLAVE_ADDR*%
X156785000Y-78540000D03*
%TO.P,J1,5,Pin_5*%
%TO.N,unconnected-(J1-Pad5)*%
X154245000Y-78540000D03*
%TO.P,J1,6,Pin_6*%
%TO.N,unconnected-(J1-Pad6)*%
X151705000Y-78540000D03*
%TO.P,J1,7,Pin_7*%
%TO.N,/I2C_SCL*%
X149165000Y-78540000D03*
%TO.P,J1,8,Pin_8*%
%TO.N,/I2C_SDA*%
X146625000Y-78540000D03*
%TO.P,J1,9,Pin_9*%
X144085000Y-78540000D03*
%TO.P,J1,10,Pin_10*%
%TO.N,unconnected-(J1-Pad10)*%
X141545000Y-78540000D03*
%TO.P,J1,11,Pin_11*%
%TO.N,unconnected-(J1-Pad11)*%
X139005000Y-78540000D03*
%TO.P,J1,12,Pin_12*%
%TO.N,unconnected-(J1-Pad12)*%
X136465000Y-78540000D03*
%TO.P,J1,13,Pin_13*%
%TO.N,unconnected-(J1-Pad13)*%
X133925000Y-78540000D03*
%TO.P,J1,14,Pin_14*%
%TO.N,unconnected-(J1-Pad14)*%
X131385000Y-78540000D03*
%TO.P,J1,15,Pin_15*%
%TO.N,unconnected-(J1-Pad15)*%
X128845000Y-78540000D03*
%TO.P,J1,16,Pin_16*%
%TO.N,/RESET*%
X126305000Y-78540000D03*
%TO.P,J1,17,Pin_17*%
%TO.N,/BS0*%
X123765000Y-78540000D03*
%TO.P,J1,18,Pin_18*%
%TO.N,/BS1*%
X121225000Y-78540000D03*
%TO.P,J1,19,Pin_19*%
%TO.N,/BS2*%
X118685000Y-78540000D03*
%TO.P,J1,20,Pin_20*%
%TO.N,GND*%
X116145000Y-78540000D03*
%TD*%
D16*
%TO.P,D2,1,K*%
%TO.N,+5V*%
X172570000Y-118146000D03*
D17*
%TO.P,D2,2,A*%
%TO.N,Net-(D2-Pad2)*%
X174470000Y-118146000D03*
%TD*%
D18*
%TO.P,R1,1*%
%TO.N,+3V3*%
X128246000Y-74204000D03*
%TO.P,R1,2*%
%TO.N,/RESET*%
X126246000Y-74204000D03*
%TD*%
%TO.P,R4,1*%
%TO.N,+3V3*%
X142216000Y-117003000D03*
%TO.P,R4,2*%
%TO.N,/I2C_SDA*%
X140216000Y-117003000D03*
%TD*%
%TO.P,R3,1*%
%TO.N,+3V3*%
X142216000Y-119162000D03*
%TO.P,R3,2*%
%TO.N,/I2C_SCL*%
X140216000Y-119162000D03*
%TD*%
D14*
%TO.P,U1,1,PA9*%
%TO.N,/RESET*%
X122360000Y-123226000D03*
D15*
%TO.P,U1,2,PA10*%
%TO.N,unconnected-(U1-Pad2)*%
X124900000Y-123226000D03*
%TO.P,U1,3,NRST*%
%TO.N,unconnected-(U1-Pad3)*%
X127440000Y-123226000D03*
%TO.P,U1,4,GND*%
%TO.N,GND*%
X129980000Y-123226000D03*
%TO.P,U1,5,PA12*%
%TO.N,unconnected-(U1-Pad5)*%
X132520000Y-123226000D03*
%TO.P,U1,6,PB0*%
%TO.N,unconnected-(U1-Pad6)*%
X135060000Y-123226000D03*
%TO.P,U1,7,PB7*%
%TO.N,/I2C_SDA*%
X137600000Y-123226000D03*
%TO.P,U1,8,PA15*%
%TO.N,/I2C_SCL*%
X140140000Y-123226000D03*
%TO.P,U1,9,PB6*%
%TO.N,unconnected-(U1-Pad9)*%
X142680000Y-123226000D03*
%TO.P,U1,10,PF0*%
%TO.N,unconnected-(U1-Pad10)*%
X145220000Y-123226000D03*
%TO.P,U1,11,PF1*%
%TO.N,unconnected-(U1-Pad11)*%
X147760000Y-123226000D03*
%TO.P,U1,12,PA8*%
%TO.N,/BUTTON_SIGNAL*%
X150300000Y-123226000D03*
%TO.P,U1,13,PA11*%
%TO.N,/SLAVE_ADDR*%
X152840000Y-123226000D03*
%TO.P,U1,14,PB5*%
%TO.N,unconnected-(U1-Pad14)*%
X155380000Y-123226000D03*
%TO.P,U1,15,PB4*%
%TO.N,unconnected-(U1-Pad15)*%
X157920000Y-123226000D03*
D14*
%TO.P,U1,16,VIN*%
%TO.N,unconnected-(U1-Pad16)*%
X122420000Y-108240000D03*
D15*
%TO.P,U1,17,GND*%
%TO.N,GND*%
X124960000Y-108240000D03*
%TO.P,U1,18,NRST*%
%TO.N,unconnected-(U1-Pad18)*%
X127500000Y-108240000D03*
%TO.P,U1,19,+5V*%
%TO.N,+5V*%
X130040000Y-108240000D03*
%TO.P,U1,20,PA2*%
%TO.N,unconnected-(U1-Pad20)*%
X132580000Y-108240000D03*
%TO.P,U1,21,PA7*%
%TO.N,unconnected-(U1-Pad21)*%
X135120000Y-108240000D03*
%TO.P,U1,22,PA6*%
%TO.N,/BS2*%
X137660000Y-108240000D03*
%TO.P,U1,23,PA5*%
%TO.N,/BS1*%
X140200000Y-108240000D03*
%TO.P,U1,24,PA4*%
%TO.N,/BS0*%
X142740000Y-108240000D03*
%TO.P,U1,25,PA3*%
%TO.N,/MOTOR_ACTIVATION*%
X145280000Y-108240000D03*
%TO.P,U1,26,PA1*%
%TO.N,unconnected-(U1-Pad26)*%
X147820000Y-108240000D03*
%TO.P,U1,27,PA0*%
%TO.N,unconnected-(U1-Pad27)*%
X150360000Y-108240000D03*
%TO.P,U1,28,AVDD*%
%TO.N,unconnected-(U1-Pad28)*%
X152900000Y-108240000D03*
%TO.P,U1,29,3v3*%
%TO.N,+3V3*%
X155440000Y-108240000D03*
%TO.P,U1,30,PB3*%
%TO.N,unconnected-(U1-Pad30)*%
X157980000Y-108240000D03*
%TD*%
D14*
%TO.P,J2,1,Pin_1*%
%TO.N,GND*%
X103091000Y-107458000D03*
D15*
%TO.P,J2,2,Pin_2*%
%TO.N,+36V*%
X103091000Y-104918000D03*
%TD*%
D14*
%TO.P,J3,1,Pin_1*%
%TO.N,/MOTOR_5V*%
X186555000Y-94016000D03*
D15*
%TO.P,J3,2,Pin_2*%
%TO.N,GND*%
X186555000Y-96556000D03*
%TD*%
D19*
%TO.P,Q1,1,G*%
%TO.N,/MOTOR_ACTIVATION*%
X172028500Y-113894000D03*
%TO.P,Q1,2,S*%
%TO.N,GND*%
X172028500Y-115794000D03*
%TO.P,Q1,3,D*%
%TO.N,Net-(D2-Pad2)*%
X173903500Y-114844000D03*
%TD*%
D20*
%TO.P,U2,9,GNDPAD*%
%TO.N,GND*%
X129866000Y-88936000D03*
D21*
X129266000Y-89536000D03*
X130466000Y-89536000D03*
X129266000Y-88236000D03*
X129266000Y-87136000D03*
X130466000Y-87136000D03*
X130466000Y-88236000D03*
X129266000Y-90736000D03*
X130466000Y-90736000D03*
%TD*%
D22*
%TO.N,GND*%
X150100000Y-119100000D03*
X124900000Y-82000000D03*
X133600000Y-105400000D03*
X153500000Y-87400000D03*
X148200000Y-87200000D03*
X146600000Y-87200000D03*
X139000000Y-91600000D03*
X125800000Y-118000000D03*
X105300000Y-125400000D03*
X105000000Y-100800000D03*
X187300000Y-75600000D03*
X183700000Y-97800000D03*
X123200000Y-99600000D03*
X127000000Y-85200000D03*
X111200000Y-72300000D03*
X183200000Y-85100000D03*
X170300000Y-90800000D03*
X141200000Y-90200000D03*
X122900000Y-95100000D03*
X123100000Y-90700000D03*
X132100000Y-85200000D03*
X107300000Y-78900000D03*
X172100000Y-78300000D03*
X107400000Y-93500000D03*
X181900000Y-97800000D03*
X149700000Y-86000000D03*
X136100000Y-91700000D03*
X170100000Y-115800000D03*
X155200000Y-87400000D03*
X106300000Y-103500000D03*
X125400000Y-89200000D03*
X151900000Y-85900000D03*
X144000000Y-112300000D03*
%TO.N,+3V3*%
X161865000Y-94565000D03*
X161900000Y-98900000D03*
%TO.N,/SLAVE_ADDR*%
X164900000Y-104500000D03*
%TO.N,/I2C_SCL*%
X162900000Y-104500000D03*
%TO.N,/I2C_SDA*%
X161500000Y-104500000D03*
X140800000Y-115500000D03*
%TD*%
D23*
%TO.N,+5V*%
X172570000Y-121870000D02*
X175700000Y-125000000D01*
D24*
X107652000Y-120253000D02*
X107652000Y-113753000D01*
D23*
X172570000Y-118146000D02*
X172570000Y-121870000D01*
X175700000Y-125000000D02*
X179000000Y-125000000D01*
%TO.N,Net-(D2-Pad2)*%
X186500000Y-107800000D02*
X186500000Y-104000000D01*
X173903500Y-114844000D02*
X179456000Y-114844000D01*
X173900000Y-114847500D02*
X173903500Y-114844000D01*
X174470000Y-118146000D02*
X174470000Y-116370000D01*
X179456000Y-114844000D02*
X186500000Y-107800000D01*
X173900000Y-115800000D02*
X173900000Y-114847500D01*
X174470000Y-116370000D02*
X173900000Y-115800000D01*
D24*
%TO.N,+3V3*%
X128246000Y-74204000D02*
X159304000Y-74204000D01*
X159304000Y-74204000D02*
X161900000Y-76800000D01*
D23*
X161900000Y-98900000D02*
X161865000Y-98865000D01*
D24*
X161900000Y-76800000D02*
X161865000Y-76835000D01*
X155440000Y-108240000D02*
X146677000Y-117003000D01*
X161865000Y-76835000D02*
X161865000Y-78540000D01*
D23*
X161865000Y-98865000D02*
X161865000Y-94565000D01*
D24*
X142216000Y-119162000D02*
X142216000Y-117003000D01*
X146677000Y-117003000D02*
X142216000Y-117003000D01*
%TO.N,/SLAVE_ADDR*%
X164900000Y-91200000D02*
X164900000Y-104500000D01*
X156785000Y-83085000D02*
X161000000Y-87300000D01*
X156785000Y-78540000D02*
X156785000Y-83085000D01*
X161000000Y-87300000D02*
X164900000Y-91200000D01*
%TO.N,/I2C_SCL*%
X159700000Y-101100000D02*
X162900000Y-104300000D01*
X140216000Y-119162000D02*
X140140000Y-119238000D01*
X149165000Y-78540000D02*
X149165000Y-81765000D01*
X162900000Y-104300000D02*
X162900000Y-104500000D01*
X149165000Y-81765000D02*
X151100000Y-83700000D01*
X159700000Y-87700000D02*
X159700000Y-101100000D01*
X151200000Y-83800000D02*
X154900000Y-83800000D01*
X151100000Y-83700000D02*
X151200000Y-83800000D01*
X155800000Y-83800000D02*
X159700000Y-87700000D01*
X140140000Y-119238000D02*
X140140000Y-123226000D01*
X154900000Y-83800000D02*
X155800000Y-83800000D01*
%TO.N,/I2C_SDA*%
X146900000Y-83900000D02*
X147900000Y-84900000D01*
X157800000Y-87300000D02*
X158500000Y-88000000D01*
X138600000Y-117000000D02*
X140213000Y-117000000D01*
X152700000Y-84900000D02*
X155400000Y-84900000D01*
X144085000Y-78540000D02*
X144085000Y-81085000D01*
X140200000Y-116987000D02*
X140216000Y-117003000D01*
X140200000Y-115900000D02*
X140200000Y-116987000D01*
X137600000Y-118000000D02*
X138600000Y-117000000D01*
X140213000Y-117000000D02*
X140216000Y-117003000D01*
X140600000Y-115500000D02*
X140200000Y-115900000D01*
X140800000Y-115500000D02*
X140600000Y-115500000D01*
X161400000Y-104500000D02*
X161500000Y-104500000D01*
X158500000Y-101600000D02*
X161400000Y-104500000D01*
X137600000Y-123226000D02*
X137600000Y-118000000D01*
X147900000Y-84900000D02*
X152700000Y-84900000D01*
X158500000Y-88000000D02*
X158500000Y-101600000D01*
X144085000Y-81085000D02*
X146900000Y-83900000D01*
X146625000Y-78540000D02*
X144085000Y-78540000D01*
X155400000Y-84900000D02*
X157800000Y-87300000D01*
%TO.N,/RESET*%
X126246000Y-74204000D02*
X126305000Y-74263000D01*
X126246000Y-74204000D02*
X115396000Y-74204000D01*
X126305000Y-74263000D02*
X126305000Y-78540000D01*
X115396000Y-74204000D02*
X112900000Y-76700000D01*
X112900000Y-76700000D02*
X112900000Y-113766000D01*
X112900000Y-113766000D02*
X122360000Y-123226000D01*
%TO.N,/BS0*%
X121000000Y-100500000D02*
X122200000Y-101700000D01*
X123765000Y-79635000D02*
X121000000Y-82400000D01*
X123765000Y-78540000D02*
X123765000Y-79635000D01*
X138300000Y-101700000D02*
X142740000Y-106140000D01*
X121000000Y-82400000D02*
X121000000Y-100500000D01*
X122200000Y-101700000D02*
X138300000Y-101700000D01*
X142740000Y-106140000D02*
X142740000Y-108240000D01*
%TO.N,/BS1*%
X121225000Y-80325000D02*
X121225000Y-78540000D01*
X121300000Y-80400000D02*
X121225000Y-80325000D01*
X119700000Y-82000000D02*
X121300000Y-80400000D01*
X140200000Y-108240000D02*
X140200000Y-106500000D01*
X119700000Y-101300000D02*
X119700000Y-82000000D01*
X121400000Y-103000000D02*
X119700000Y-101300000D01*
X136700000Y-103000000D02*
X121400000Y-103000000D01*
X140200000Y-106500000D02*
X136700000Y-103000000D01*
%TO.N,/BS2*%
X135200000Y-104000000D02*
X137660000Y-106460000D01*
X118685000Y-78540000D02*
X118685000Y-101685000D01*
X121000000Y-104000000D02*
X135200000Y-104000000D01*
X137660000Y-106460000D02*
X137660000Y-108240000D01*
X118685000Y-101685000D02*
X121000000Y-104000000D01*
%TO.N,/MOTOR_ACTIVATION*%
X145280000Y-108240000D02*
X147720000Y-105800000D01*
X172100000Y-113822500D02*
X172028500Y-113894000D01*
X172100000Y-110900000D02*
X172100000Y-113822500D01*
X167000000Y-105800000D02*
X172100000Y-110900000D01*
X147720000Y-105800000D02*
X167000000Y-105800000D01*
%TO.N,/BUTTON_SIGNAL*%
X103132000Y-126032000D02*
X103800000Y-126700000D01*
X103152000Y-123714000D02*
X103132000Y-123734000D01*
X103152000Y-120253000D02*
X103152000Y-123714000D01*
X150300000Y-125400000D02*
X150300000Y-123226000D01*
X103132000Y-123734000D02*
X103132000Y-126032000D01*
X149000000Y-126700000D02*
X150300000Y-125400000D01*
X103800000Y-126700000D02*
X149000000Y-126700000D01*
X103152000Y-113753000D02*
X103152000Y-120253000D01*
%TD*%
%TA.AperFunction,Conductor*%
%TO.N,GND*%
G36*
X191933621Y-72028502D02*
G01*
X191980114Y-72082158D01*
X191991500Y-72134500D01*
X191991500Y-128865500D01*
X191971498Y-128933621D01*
X191917842Y-128980114D01*
X191865500Y-128991500D01*
X98134500Y-128991500D01*
X98066379Y-128971498D01*
X98019886Y-128917842D01*
X98008500Y-128865500D01*
X98008500Y-120253000D01*
X101638835Y-120253000D01*
X101657465Y-120489711D01*
X101658619Y-120494518D01*
X101658620Y-120494524D01*
X101664247Y-120517960D01*
X101712895Y-120720594D01*
X101803760Y-120939963D01*
X101806346Y-120944183D01*
X101925241Y-121138202D01*
X101925245Y-121138208D01*
X101927824Y-121142416D01*
X102082031Y-121322969D01*
X102262584Y-121477176D01*
X102299829Y-121500000D01*
X102392835Y-121556995D01*
X102440467Y-121609643D01*
X102453000Y-121664427D01*
X102453000Y-122525376D01*
X102432998Y-122593497D01*
X102393307Y-122632517D01*
X102307652Y-122685522D01*
X102182695Y-122810697D01*
X102178855Y-122816927D01*
X102178854Y-122816928D01*
X102109708Y-122929104D01*
X102089885Y-122961262D01*
X102034203Y-123129139D01*
X102023500Y-123233600D01*
X102023500Y-124234400D01*
X102023837Y-124237646D01*
X102023837Y-124237650D01*
X102033408Y-124329891D01*
X102034474Y-124340166D01*
X102036655Y-124346702D01*
X102036655Y-124346704D01*
X102073363Y-124456729D01*
X102090450Y-124507946D01*
X102183522Y-124658348D01*
X102308697Y-124783305D01*
X102314925Y-124787144D01*
X102314930Y-124787148D01*
X102373117Y-124823015D01*
X102420610Y-124875787D01*
X102433000Y-124930274D01*
X102433000Y-126003401D01*
X102432708Y-126011971D01*
X102429348Y-126061259D01*
X102428830Y-126068852D01*
X102430135Y-126076328D01*
X102430135Y-126076332D01*
X102439663Y-126130924D01*
X102440626Y-126137449D01*
X102443380Y-126160201D01*
X102448191Y-126199960D01*
X102450875Y-126207062D01*
X102451719Y-126210500D01*
X102455583Y-126224623D01*
X102456613Y-126228034D01*
X102457919Y-126235517D01*
X102460972Y-126242472D01*
X102483239Y-126293198D01*
X102485730Y-126299304D01*
X102500215Y-126337635D01*
X102507994Y-126358222D01*
X102512293Y-126364477D01*
X102513935Y-126367618D01*
X102521033Y-126380372D01*
X102522870Y-126383478D01*
X102525923Y-126390433D01*
X102530548Y-126396460D01*
X102530550Y-126396464D01*
X102564265Y-126440402D01*
X102568129Y-126445720D01*
X102603821Y-126497652D01*
X102649697Y-126538526D01*
X102654955Y-126543490D01*
X103285517Y-127174053D01*
X103291370Y-127180319D01*
X103323846Y-127217547D01*
X103328842Y-127223274D01*
X103380383Y-127259498D01*
X103385668Y-127263423D01*
X103426365Y-127295333D01*
X103435240Y-127302292D01*
X103442158Y-127305416D01*
X103445179Y-127307245D01*
X103457898Y-127314500D01*
X103461046Y-127316188D01*
X103467261Y-127320556D01*
X103525950Y-127343438D01*
X103531995Y-127345978D01*
X103589435Y-127371913D01*
X103596908Y-127373298D01*
X103600326Y-127374369D01*
X103614315Y-127378354D01*
X103617807Y-127379251D01*
X103624889Y-127382012D01*
X103632422Y-127383004D01*
X103632423Y-127383004D01*
X103687330Y-127390233D01*
X103693843Y-127391265D01*
X103748318Y-127401361D01*
X103748320Y-127401361D01*
X103755787Y-127402745D01*
X103763367Y-127402308D01*
X103763368Y-127402308D01*
X103817112Y-127399209D01*
X103824365Y-127399000D01*
X148971401Y-127399000D01*
X148979971Y-127399292D01*
X149029277Y-127402654D01*
X149029281Y-127402654D01*
X149036852Y-127403170D01*
X149044328Y-127401865D01*
X149044332Y-127401865D01*
X149098924Y-127392337D01*
X149105449Y-127391374D01*
X149160418Y-127384722D01*
X149160420Y-127384721D01*
X149167960Y-127383809D01*
X149175062Y-127381125D01*
X149178500Y-127380281D01*
X149192623Y-127376417D01*
X149196034Y-127375387D01*
X149203517Y-127374081D01*
X149261197Y-127348761D01*
X149267304Y-127346270D01*
X149319117Y-127326691D01*
X149319118Y-127326690D01*
X149326222Y-127324006D01*
X149332477Y-127319707D01*
X149335618Y-127318065D01*
X149348372Y-127310967D01*
X149351478Y-127309130D01*
X149358433Y-127306077D01*
X149364460Y-127301452D01*
X149364464Y-127301450D01*
X149408402Y-127267735D01*
X149413720Y-127263871D01*
X149465652Y-127228179D01*
X149506535Y-127182293D01*
X149511498Y-127177037D01*
X150774046Y-125914490D01*
X150780312Y-125908636D01*
X150817547Y-125876154D01*
X150823274Y-125871158D01*
X150859498Y-125819617D01*
X150863423Y-125814332D01*
X150897607Y-125770735D01*
X150902292Y-125764760D01*
X150905416Y-125757842D01*
X150907245Y-125754821D01*
X150914500Y-125742102D01*
X150916188Y-125738954D01*
X150920556Y-125732739D01*
X150943438Y-125674050D01*
X150945978Y-125668005D01*
X150971913Y-125610565D01*
X150973298Y-125603092D01*
X150974369Y-125599674D01*
X150978354Y-125585685D01*
X150979251Y-125582193D01*
X150982012Y-125575111D01*
X150988174Y-125528307D01*
X150990233Y-125512670D01*
X150991265Y-125506157D01*
X151001361Y-125451682D01*
X151001361Y-125451680D01*
X151002745Y-125444213D01*
X150999209Y-125382887D01*
X150999000Y-125375635D01*
X150999000Y-124461073D01*
X151019002Y-124392952D01*
X151051832Y-124358494D01*
X151113794Y-124314297D01*
X151179860Y-124267173D01*
X151209487Y-124237650D01*
X151323616Y-124123918D01*
X151338096Y-124109489D01*
X151468453Y-123928077D01*
X151469776Y-123929028D01*
X151516645Y-123885857D01*
X151586580Y-123873625D01*
X151652026Y-123901144D01*
X151679875Y-123932994D01*
X151739987Y-124031088D01*
X151886250Y-124199938D01*
X152058126Y-124342632D01*
X152251000Y-124455338D01*
X152459692Y-124535030D01*
X152464760Y-124536061D01*
X152464763Y-124536062D01*
X152559862Y-124555410D01*
X152678597Y-124579567D01*
X152683772Y-124579757D01*
X152683774Y-124579757D01*
X152896673Y-124587564D01*
X152896677Y-124587564D01*
X152901837Y-124587753D01*
X152906957Y-124587097D01*
X152906959Y-124587097D01*
X153118288Y-124560025D01*
X153118289Y-124560025D01*
X153123416Y-124559368D01*
X153128366Y-124557883D01*
X153332429Y-124496661D01*
X153332434Y-124496659D01*
X153337384Y-124495174D01*
X153537994Y-124396896D01*
X153719860Y-124267173D01*
X153749487Y-124237650D01*
X153863616Y-124123918D01*
X153878096Y-124109489D01*
X154008453Y-123928077D01*
X154009776Y-123929028D01*
X154056645Y-123885857D01*
X154126580Y-123873625D01*
X154192026Y-123901144D01*
X154219875Y-123932994D01*
X154279987Y-124031088D01*
X154426250Y-124199938D01*
X154598126Y-124342632D01*
X154791000Y-124455338D01*
X154999692Y-124535030D01*
X155004760Y-124536061D01*
X155004763Y-124536062D01*
X155099862Y-124555410D01*
X155218597Y-124579567D01*
X155223772Y-124579757D01*
X155223774Y-124579757D01*
X155436673Y-124587564D01*
X155436677Y-124587564D01*
X155441837Y-124587753D01*
X155446957Y-124587097D01*
X155446959Y-124587097D01*
X155658288Y-124560025D01*
X155658289Y-124560025D01*
X155663416Y-124559368D01*
X155668366Y-124557883D01*
X155872429Y-124496661D01*
X155872434Y-124496659D01*
X155877384Y-124495174D01*
X156077994Y-124396896D01*
X156259860Y-124267173D01*
X156289487Y-124237650D01*
X156403616Y-124123918D01*
X156418096Y-124109489D01*
X156548453Y-123928077D01*
X156549776Y-123929028D01*
X156596645Y-123885857D01*
X156666580Y-123873625D01*
X156732026Y-123901144D01*
X156759875Y-123932994D01*
X156819987Y-124031088D01*
X156966250Y-124199938D01*
X157138126Y-124342632D01*
X157331000Y-124455338D01*
X157539692Y-124535030D01*
X157544760Y-124536061D01*
X157544763Y-124536062D01*
X157639862Y-124555410D01*
X157758597Y-124579567D01*
X157763772Y-124579757D01*
X157763774Y-124579757D01*
X157976673Y-124587564D01*
X157976677Y-124587564D01*
X157981837Y-124587753D01*
X157986957Y-124587097D01*
X157986959Y-124587097D01*
X158198288Y-124560025D01*
X158198289Y-124560025D01*
X158203416Y-124559368D01*
X158208366Y-124557883D01*
X158412429Y-124496661D01*
X158412434Y-124496659D01*
X158417384Y-124495174D01*
X158617994Y-124396896D01*
X158799860Y-124267173D01*
X158829487Y-124237650D01*
X158943616Y-124123918D01*
X158958096Y-124109489D01*
X159088453Y-123928077D01*
X159101995Y-123900678D01*
X159185136Y-123732453D01*
X159185137Y-123732451D01*
X159187430Y-123727811D01*
X159252370Y-123514069D01*
X159281529Y-123292590D01*
X159281611Y-123289240D01*
X159283074Y-123229365D01*
X159283074Y-123229361D01*
X159283156Y-123226000D01*
X159264852Y-123003361D01*
X159210431Y-122786702D01*
X159121354Y-122581840D01*
X159034440Y-122447491D01*
X159002822Y-122398617D01*
X159002820Y-122398614D01*
X159000014Y-122394277D01*
X158849670Y-122229051D01*
X158845619Y-122225852D01*
X158845615Y-122225848D01*
X158678414Y-122093800D01*
X158678410Y-122093798D01*
X158674359Y-122090598D01*
X158638028Y-122070542D01*
X158547242Y-122020426D01*
X158478789Y-121982638D01*
X158473920Y-121980914D01*
X158473916Y-121980912D01*
X158273087Y-121909795D01*
X158273083Y-121909794D01*
X158268212Y-121908069D01*
X158263119Y-121907162D01*
X158263116Y-121907161D01*
X158053373Y-121869800D01*
X158053367Y-121869799D01*
X158048284Y-121868894D01*
X157974452Y-121867992D01*
X157830081Y-121866228D01*
X157830079Y-121866228D01*
X157824911Y-121866165D01*
X157604091Y-121899955D01*
X157391756Y-121969357D01*
X157358314Y-121986766D01*
X157269052Y-122033233D01*
X157193607Y-122072507D01*
X157189474Y-122075610D01*
X157189471Y-122075612D01*
X157022354Y-122201087D01*
X157014965Y-122206635D01*
X157011393Y-122210373D01*
X156875132Y-122352962D01*
X156860629Y-122368138D01*
X156753201Y-122525621D01*
X156698293Y-122570621D01*
X156627768Y-122578792D01*
X156564021Y-122547538D01*
X156543324Y-122523054D01*
X156462822Y-122398617D01*
X156462820Y-122398614D01*
X156460014Y-122394277D01*
X156309670Y-122229051D01*
X156305619Y-122225852D01*
X156305615Y-122225848D01*
X156138414Y-122093800D01*
X156138410Y-122093798D01*
X156134359Y-122090598D01*
X156098028Y-122070542D01*
X156007242Y-122020426D01*
X155938789Y-121982638D01*
X155933920Y-121980914D01*
X155933916Y-121980912D01*
X155733087Y-121909795D01*
X155733083Y-121909794D01*
X155728212Y-121908069D01*
X155723119Y-121907162D01*
X155723116Y-121907161D01*
X155513373Y-121869800D01*
X155513367Y-121869799D01*
X155508284Y-121868894D01*
X155434452Y-121867992D01*
X155290081Y-121866228D01*
X155290079Y-121866228D01*
X155284911Y-121866165D01*
X155064091Y-121899955D01*
X154851756Y-121969357D01*
X154818314Y-121986766D01*
X154729052Y-122033233D01*
X154653607Y-122072507D01*
X154649474Y-122075610D01*
X154649471Y-122075612D01*
X154482354Y-122201087D01*
X154474965Y-122206635D01*
X154471393Y-122210373D01*
X154335132Y-122352962D01*
X154320629Y-122368138D01*
X154213201Y-122525621D01*
X154158293Y-122570621D01*
X154087768Y-122578792D01*
X154024021Y-122547538D01*
X154003324Y-122523054D01*
X153922822Y-122398617D01*
X153922820Y-122398614D01*
X153920014Y-122394277D01*
X153769670Y-122229051D01*
X153765619Y-122225852D01*
X153765615Y-122225848D01*
X153598414Y-122093800D01*
X153598410Y-122093798D01*
X153594359Y-122090598D01*
X153558028Y-122070542D01*
X153467242Y-122020426D01*
X153398789Y-121982638D01*
X153393920Y-121980914D01*
X153393916Y-121980912D01*
X153193087Y-121909795D01*
X153193083Y-121909794D01*
X153188212Y-121908069D01*
X153183119Y-121907162D01*
X153183116Y-121907161D01*
X152973373Y-121869800D01*
X152973367Y-121869799D01*
X152968284Y-121868894D01*
X152894452Y-121867992D01*
X152750081Y-121866228D01*
X152750079Y-121866228D01*
X152744911Y-121866165D01*
X152524091Y-121899955D01*
X152311756Y-121969357D01*
X152278314Y-121986766D01*
X152189052Y-122033233D01*
X152113607Y-122072507D01*
X152109474Y-122075610D01*
X152109471Y-122075612D01*
X151942354Y-122201087D01*
X151934965Y-122206635D01*
X151931393Y-122210373D01*
X151795132Y-122352962D01*
X151780629Y-122368138D01*
X151673201Y-122525621D01*
X151618293Y-122570621D01*
X151547768Y-122578792D01*
X151484021Y-122547538D01*
X151463324Y-122523054D01*
X151382822Y-122398617D01*
X151382820Y-122398614D01*
X151380014Y-122394277D01*
X151229670Y-122229051D01*
X151225619Y-122225852D01*
X151225615Y-122225848D01*
X151058414Y-122093800D01*
X151058410Y-122093798D01*
X151054359Y-122090598D01*
X151018028Y-122070542D01*
X150927242Y-122020426D01*
X150858789Y-121982638D01*
X150853920Y-121980914D01*
X150853916Y-121980912D01*
X150653087Y-121909795D01*
X150653083Y-121909794D01*
X150648212Y-121908069D01*
X150643119Y-121907162D01*
X150643116Y-121907161D01*
X150433373Y-121869800D01*
X150433367Y-121869799D01*
X150428284Y-121868894D01*
X150354452Y-121867992D01*
X150210081Y-121866228D01*
X150210079Y-121866228D01*
X150204911Y-121866165D01*
X149984091Y-121899955D01*
X149771756Y-121969357D01*
X149738314Y-121986766D01*
X149649052Y-122033233D01*
X149573607Y-122072507D01*
X149569474Y-122075610D01*
X149569471Y-122075612D01*
X149402354Y-122201087D01*
X149394965Y-122206635D01*
X149391393Y-122210373D01*
X149255132Y-122352962D01*
X149240629Y-122368138D01*
X149133201Y-122525621D01*
X149078293Y-122570621D01*
X149007768Y-122578792D01*
X148944021Y-122547538D01*
X148923324Y-122523054D01*
X148842822Y-122398617D01*
X148842820Y-122398614D01*
X148840014Y-122394277D01*
X148689670Y-122229051D01*
X148685619Y-122225852D01*
X148685615Y-122225848D01*
X148518414Y-122093800D01*
X148518410Y-122093798D01*
X148514359Y-122090598D01*
X148478028Y-122070542D01*
X148387242Y-122020426D01*
X148318789Y-121982638D01*
X148313920Y-121980914D01*
X148313916Y-121980912D01*
X148113087Y-121909795D01*
X148113083Y-121909794D01*
X148108212Y-121908069D01*
X148103119Y-121907162D01*
X148103116Y-121907161D01*
X147893373Y-121869800D01*
X147893367Y-121869799D01*
X147888284Y-121868894D01*
X147814452Y-121867992D01*
X147670081Y-121866228D01*
X147670079Y-121866228D01*
X147664911Y-121866165D01*
X147444091Y-121899955D01*
X147231756Y-121969357D01*
X147198314Y-121986766D01*
X147109052Y-122033233D01*
X147033607Y-122072507D01*
X147029474Y-122075610D01*
X147029471Y-122075612D01*
X146862354Y-122201087D01*
X146854965Y-122206635D01*
X146851393Y-122210373D01*
X146715132Y-122352962D01*
X146700629Y-122368138D01*
X146593201Y-122525621D01*
X146538293Y-122570621D01*
X146467768Y-122578792D01*
X146404021Y-122547538D01*
X146383324Y-122523054D01*
X146302822Y-122398617D01*
X146302820Y-122398614D01*
X146300014Y-122394277D01*
X146149670Y-122229051D01*
X146145619Y-122225852D01*
X146145615Y-122225848D01*
X145978414Y-122093800D01*
X145978410Y-122093798D01*
X145974359Y-122090598D01*
X145938028Y-122070542D01*
X145847242Y-122020426D01*
X145778789Y-121982638D01*
X145773920Y-121980914D01*
X145773916Y-121980912D01*
X145573087Y-121909795D01*
X145573083Y-121909794D01*
X145568212Y-121908069D01*
X145563119Y-121907162D01*
X145563116Y-121907161D01*
X145353373Y-121869800D01*
X145353367Y-121869799D01*
X145348284Y-121868894D01*
X145274452Y-121867992D01*
X145130081Y-121866228D01*
X145130079Y-121866228D01*
X145124911Y-121866165D01*
X144904091Y-121899955D01*
X144691756Y-121969357D01*
X144658314Y-121986766D01*
X144569052Y-122033233D01*
X144493607Y-122072507D01*
X144489474Y-122075610D01*
X144489471Y-122075612D01*
X144322354Y-122201087D01*
X144314965Y-122206635D01*
X144311393Y-122210373D01*
X144175132Y-122352962D01*
X144160629Y-122368138D01*
X144053201Y-122525621D01*
X143998293Y-122570621D01*
X143927768Y-122578792D01*
X143864021Y-122547538D01*
X143843324Y-122523054D01*
X143762822Y-122398617D01*
X143762820Y-122398614D01*
X143760014Y-122394277D01*
X143609670Y-122229051D01*
X143605619Y-122225852D01*
X143605615Y-122225848D01*
X143438414Y-122093800D01*
X143438410Y-122093798D01*
X143434359Y-122090598D01*
X143398028Y-122070542D01*
X143307242Y-122020426D01*
X143238789Y-121982638D01*
X143233920Y-121980914D01*
X143233916Y-121980912D01*
X143033087Y-121909795D01*
X143033083Y-121909794D01*
X143028212Y-121908069D01*
X143023119Y-121907162D01*
X143023116Y-121907161D01*
X142813373Y-121869800D01*
X142813367Y-121869799D01*
X142808284Y-121868894D01*
X142734452Y-121867992D01*
X142590081Y-121866228D01*
X142590079Y-121866228D01*
X142584911Y-121866165D01*
X142364091Y-121899955D01*
X142151756Y-121969357D01*
X142118314Y-121986766D01*
X142029052Y-122033233D01*
X141953607Y-122072507D01*
X141949474Y-122075610D01*
X141949471Y-122075612D01*
X141782354Y-122201087D01*
X141774965Y-122206635D01*
X141771393Y-122210373D01*
X141635132Y-122352962D01*
X141620629Y-122368138D01*
X141513201Y-122525621D01*
X141458293Y-122570621D01*
X141387768Y-122578792D01*
X141324021Y-122547538D01*
X141303324Y-122523054D01*
X141222822Y-122398617D01*
X141222820Y-122398614D01*
X141220014Y-122394277D01*
X141069670Y-122229051D01*
X141065619Y-122225852D01*
X141065615Y-122225848D01*
X140898419Y-122093804D01*
X140898413Y-122093800D01*
X140894359Y-122090598D01*
X140894318Y-122090575D01*
X140849604Y-122037361D01*
X140839000Y-121986766D01*
X140839000Y-120405279D01*
X140859002Y-120337158D01*
X140898697Y-120298135D01*
X141034120Y-120214332D01*
X141040348Y-120210478D01*
X141126784Y-120123891D01*
X141189066Y-120089812D01*
X141259886Y-120094815D01*
X141304976Y-120123736D01*
X141392697Y-120211305D01*
X141398927Y-120215145D01*
X141398928Y-120215146D01*
X141536090Y-120299694D01*
X141543262Y-120304115D01*
X141592803Y-120320547D01*
X141704611Y-120357632D01*
X141704613Y-120357632D01*
X141711139Y-120359797D01*
X141717975Y-120360497D01*
X141717978Y-120360498D01*
X141761031Y-120364909D01*
X141815600Y-120370500D01*
X142616400Y-120370500D01*
X142619646Y-120370163D01*
X142619650Y-120370163D01*
X142715308Y-120360238D01*
X142715312Y-120360237D01*
X142722166Y-120359526D01*
X142728702Y-120357345D01*
X142728704Y-120357345D01*
X142863686Y-120312311D01*
X142889946Y-120303550D01*
X143040348Y-120210478D01*
X143165305Y-120085303D01*
X143258115Y-119934738D01*
X143307646Y-119785406D01*
X143311632Y-119773389D01*
X143311632Y-119773387D01*
X143313797Y-119766861D01*
X143316220Y-119743218D01*
X143324172Y-119665598D01*
X143324500Y-119662400D01*
X143324500Y-118661600D01*
X143313526Y-118555834D01*
X143257550Y-118388054D01*
X143164478Y-118237652D01*
X143098391Y-118171680D01*
X143064312Y-118109397D01*
X143069315Y-118038577D01*
X143098236Y-117993489D01*
X143160134Y-117931483D01*
X143165305Y-117926303D01*
X143187314Y-117890598D01*
X143254277Y-117781965D01*
X143254278Y-117781962D01*
X143258115Y-117775738D01*
X143258927Y-117773290D01*
X143304556Y-117721466D01*
X143371835Y-117702000D01*
X146648401Y-117702000D01*
X146656971Y-117702292D01*
X146706277Y-117705654D01*
X146706281Y-117705654D01*
X146713852Y-117706170D01*
X146721328Y-117704865D01*
X146721332Y-117704865D01*
X146775924Y-117695337D01*
X146782449Y-117694374D01*
X146837418Y-117687722D01*
X146837420Y-117687721D01*
X146844960Y-117686809D01*
X146852062Y-117684125D01*
X146855500Y-117683281D01*
X146869623Y-117679417D01*
X146873034Y-117678387D01*
X146880517Y-117677081D01*
X146924217Y-117657898D01*
X146938198Y-117651761D01*
X146944304Y-117649270D01*
X146996117Y-117629691D01*
X146996118Y-117629690D01*
X147003222Y-117627006D01*
X147009477Y-117622707D01*
X147012618Y-117621065D01*
X147025372Y-117613967D01*
X147028478Y-117612130D01*
X147035433Y-117609077D01*
X147041460Y-117604452D01*
X147041464Y-117604450D01*
X147085402Y-117570735D01*
X147090720Y-117566871D01*
X147142652Y-117531179D01*
X147183519Y-117485311D01*
X147188499Y-117480036D01*
X155061520Y-109607015D01*
X155123832Y-109572989D01*
X155175736Y-109572640D01*
X155273526Y-109592536D01*
X155273534Y-109592537D01*
X155278597Y-109593567D01*
X155403062Y-109598131D01*
X155496673Y-109601564D01*
X155496677Y-109601564D01*
X155501837Y-109601753D01*
X155506957Y-109601097D01*
X155506959Y-109601097D01*
X155718288Y-109574025D01*
X155718289Y-109574025D01*
X155723416Y-109573368D01*
X155728366Y-109571883D01*
X155932429Y-109510661D01*
X155932434Y-109510659D01*
X155937384Y-109509174D01*
X156137994Y-109410896D01*
X156319860Y-109281173D01*
X156478096Y-109123489D01*
X156608453Y-108942077D01*
X156609776Y-108943028D01*
X156656645Y-108899857D01*
X156726580Y-108887625D01*
X156792026Y-108915144D01*
X156819875Y-108946994D01*
X156879987Y-109045088D01*
X157026250Y-109213938D01*
X157198126Y-109356632D01*
X157391000Y-109469338D01*
X157599692Y-109549030D01*
X157604760Y-109550061D01*
X157604763Y-109550062D01*
X157699862Y-109569410D01*
X157818597Y-109593567D01*
X157823772Y-109593757D01*
X157823774Y-109593757D01*
X158036673Y-109601564D01*
X158036677Y-109601564D01*
X158041837Y-109601753D01*
X158046957Y-109601097D01*
X158046959Y-109601097D01*
X158258288Y-109574025D01*
X158258289Y-109574025D01*
X158263416Y-109573368D01*
X158268366Y-109571883D01*
X158472429Y-109510661D01*
X158472434Y-109510659D01*
X158477384Y-109509174D01*
X158677994Y-109410896D01*
X158859860Y-109281173D01*
X159018096Y-109123489D01*
X159148453Y-108942077D01*
X159161995Y-108914678D01*
X159245136Y-108746453D01*
X159245137Y-108746451D01*
X159247430Y-108741811D01*
X159312370Y-108528069D01*
X159341529Y-108306590D01*
X159341611Y-108303240D01*
X159343074Y-108243365D01*
X159343074Y-108243361D01*
X159343156Y-108240000D01*
X159324852Y-108017361D01*
X159270431Y-107800702D01*
X159181354Y-107595840D01*
X159132981Y-107521067D01*
X159062822Y-107412617D01*
X159062820Y-107412614D01*
X159060014Y-107408277D01*
X158909670Y-107243051D01*
X158905619Y-107239852D01*
X158905615Y-107239848D01*
X158738414Y-107107800D01*
X158738410Y-107107798D01*
X158734359Y-107104598D01*
X158698028Y-107084542D01*
X158637920Y-107051361D01*
X158538789Y-106996638D01*
X158533920Y-106994914D01*
X158533916Y-106994912D01*
X158333087Y-106923795D01*
X158333083Y-106923794D01*
X158328212Y-106922069D01*
X158323119Y-106921162D01*
X158323116Y-106921161D01*
X158113373Y-106883800D01*
X158113367Y-106883799D01*
X158108284Y-106882894D01*
X158034452Y-106881992D01*
X157890081Y-106880228D01*
X157890079Y-106880228D01*
X157884911Y-106880165D01*
X157664091Y-106913955D01*
X157451756Y-106983357D01*
X157253607Y-107086507D01*
X157249474Y-107089610D01*
X157249471Y-107089612D01*
X157079100Y-107217530D01*
X157074965Y-107220635D01*
X156920629Y-107382138D01*
X156813201Y-107539621D01*
X156758293Y-107584621D01*
X156687768Y-107592792D01*
X156624021Y-107561538D01*
X156603324Y-107537054D01*
X156522822Y-107412617D01*
X156522820Y-107412614D01*
X156520014Y-107408277D01*
X156369670Y-107243051D01*
X156365619Y-107239852D01*
X156365615Y-107239848D01*
X156198414Y-107107800D01*
X156198410Y-107107798D01*
X156194359Y-107104598D01*
X156158028Y-107084542D01*
X156097920Y-107051361D01*
X155998789Y-106996638D01*
X155993920Y-106994914D01*
X155993916Y-106994912D01*
X155793087Y-106923795D01*
X155793083Y-106923794D01*
X155788212Y-106922069D01*
X155783119Y-106921162D01*
X155783116Y-106921161D01*
X155573373Y-106883800D01*
X155573367Y-106883799D01*
X155568284Y-106882894D01*
X155494452Y-106881992D01*
X155350081Y-106880228D01*
X155350079Y-106880228D01*
X155344911Y-106880165D01*
X155124091Y-106913955D01*
X154911756Y-106983357D01*
X154713607Y-107086507D01*
X154709474Y-107089610D01*
X154709471Y-107089612D01*
X154539100Y-107217530D01*
X154534965Y-107220635D01*
X154380629Y-107382138D01*
X154273201Y-107539621D01*
X154218293Y-107584621D01*
X154147768Y-107592792D01*
X154084021Y-107561538D01*
X154063324Y-107537054D01*
X153982822Y-107412617D01*
X153982820Y-107412614D01*
X153980014Y-107408277D01*
X153829670Y-107243051D01*
X153825619Y-107239852D01*
X153825615Y-107239848D01*
X153658414Y-107107800D01*
X153658410Y-107107798D01*
X153654359Y-107104598D01*
X153618028Y-107084542D01*
X153557920Y-107051361D01*
X153458789Y-106996638D01*
X153453920Y-106994914D01*
X153453916Y-106994912D01*
X153253087Y-106923795D01*
X153253083Y-106923794D01*
X153248212Y-106922069D01*
X153243119Y-106921162D01*
X153243116Y-106921161D01*
X153033373Y-106883800D01*
X153033367Y-106883799D01*
X153028284Y-106882894D01*
X152954452Y-106881992D01*
X152810081Y-106880228D01*
X152810079Y-106880228D01*
X152804911Y-106880165D01*
X152584091Y-106913955D01*
X152371756Y-106983357D01*
X152173607Y-107086507D01*
X152169474Y-107089610D01*
X152169471Y-107089612D01*
X151999100Y-107217530D01*
X151994965Y-107220635D01*
X151840629Y-107382138D01*
X151733201Y-107539621D01*
X151678293Y-107584621D01*
X151607768Y-107592792D01*
X151544021Y-107561538D01*
X151523324Y-107537054D01*
X151442822Y-107412617D01*
X151442820Y-107412614D01*
X151440014Y-107408277D01*
X151289670Y-107243051D01*
X151285619Y-107239852D01*
X151285615Y-107239848D01*
X151118414Y-107107800D01*
X151118410Y-107107798D01*
X151114359Y-107104598D01*
X151078028Y-107084542D01*
X151017920Y-107051361D01*
X150918789Y-106996638D01*
X150913920Y-106994914D01*
X150913916Y-106994912D01*
X150713087Y-106923795D01*
X150713083Y-106923794D01*
X150708212Y-106922069D01*
X150703119Y-106921162D01*
X150703116Y-106921161D01*
X150493373Y-106883800D01*
X150493367Y-106883799D01*
X150488284Y-106882894D01*
X150414452Y-106881992D01*
X150270081Y-106880228D01*
X150270079Y-106880228D01*
X150264911Y-106880165D01*
X150044091Y-106913955D01*
X149831756Y-106983357D01*
X149633607Y-107086507D01*
X149629474Y-107089610D01*
X149629471Y-107089612D01*
X149459100Y-107217530D01*
X149454965Y-107220635D01*
X149300629Y-107382138D01*
X149193201Y-107539621D01*
X149138293Y-107584621D01*
X149067768Y-107592792D01*
X149004021Y-107561538D01*
X148983324Y-107537054D01*
X148902822Y-107412617D01*
X148902820Y-107412614D01*
X148900014Y-107408277D01*
X148749670Y-107243051D01*
X148745619Y-107239852D01*
X148745615Y-107239848D01*
X148578414Y-107107800D01*
X148578410Y-107107798D01*
X148574359Y-107104598D01*
X148538028Y-107084542D01*
X148477920Y-107051361D01*
X148378789Y-106996638D01*
X148373920Y-106994914D01*
X148373916Y-106994912D01*
X148173087Y-106923795D01*
X148173083Y-106923794D01*
X148168212Y-106922069D01*
X148163119Y-106921162D01*
X148163116Y-106921161D01*
X147953373Y-106883800D01*
X147953367Y-106883799D01*
X147948284Y-106882894D01*
X147928525Y-106882653D01*
X147860655Y-106861821D01*
X147814820Y-106807603D01*
X147805573Y-106737211D01*
X147835852Y-106672994D01*
X147840968Y-106667567D01*
X147972630Y-106535905D01*
X148034942Y-106501879D01*
X148061725Y-106499000D01*
X166658275Y-106499000D01*
X166726396Y-106519002D01*
X166747370Y-106535905D01*
X171364095Y-111152630D01*
X171398121Y-111214942D01*
X171401000Y-111241725D01*
X171401000Y-112975290D01*
X171380998Y-113043411D01*
X171327342Y-113089904D01*
X171310152Y-113096287D01*
X171185014Y-113132642D01*
X171185009Y-113132644D01*
X171177399Y-113134855D01*
X171170572Y-113138892D01*
X171170573Y-113138892D01*
X171041020Y-113215509D01*
X171041017Y-113215511D01*
X171034193Y-113219547D01*
X170916547Y-113337193D01*
X170912511Y-113344017D01*
X170912509Y-113344020D01*
X170865047Y-113424275D01*
X170831855Y-113480399D01*
X170785438Y-113640169D01*
X170782500Y-113677498D01*
X170782500Y-114110502D01*
X170782693Y-114112950D01*
X170782693Y-114112958D01*
X170782805Y-114114372D01*
X170785438Y-114147831D01*
X170807906Y-114225167D01*
X170821663Y-114272518D01*
X170831855Y-114307601D01*
X170835892Y-114314427D01*
X170912509Y-114443980D01*
X170912511Y-114443983D01*
X170916547Y-114450807D01*
X171034193Y-114568453D01*
X171041017Y-114572489D01*
X171041020Y-114572491D01*
X171073163Y-114591500D01*
X171177399Y-114653145D01*
X171185010Y-114655356D01*
X171185012Y-114655357D01*
X171237231Y-114670528D01*
X171337169Y-114699562D01*
X171343574Y-114700066D01*
X171343579Y-114700067D01*
X171372042Y-114702307D01*
X171372050Y-114702307D01*
X171374498Y-114702500D01*
X172531500Y-114702500D01*
X172599621Y-114722502D01*
X172646114Y-114776158D01*
X172657500Y-114828500D01*
X172657500Y-115060502D01*
X172660438Y-115097831D01*
X172706855Y-115257601D01*
X172710892Y-115264427D01*
X172787509Y-115393980D01*
X172787511Y-115393983D01*
X172791547Y-115400807D01*
X172909193Y-115518453D01*
X172916017Y-115522489D01*
X172916020Y-115522491D01*
X172952842Y-115544267D01*
X173052399Y-115603145D01*
X173060015Y-115605358D01*
X173061541Y-115606018D01*
X173116115Y-115651429D01*
X173137500Y-115721655D01*
X173137500Y-115732624D01*
X173136067Y-115751574D01*
X173133876Y-115765973D01*
X173133876Y-115765979D01*
X173132776Y-115773208D01*
X173133369Y-115780500D01*
X173133369Y-115780503D01*
X173137085Y-115826183D01*
X173137500Y-115836398D01*
X173137500Y-115844525D01*
X173140811Y-115872924D01*
X173141238Y-115877244D01*
X173147191Y-115950426D01*
X173149447Y-115957388D01*
X173150643Y-115963376D01*
X173152051Y-115969333D01*
X173152899Y-115976607D01*
X173155397Y-115983489D01*
X173155398Y-115983493D01*
X173177945Y-116045607D01*
X173179355Y-116049711D01*
X173201987Y-116119575D01*
X173205787Y-116125838D01*
X173208325Y-116131380D01*
X173211067Y-116136856D01*
X173213566Y-116143741D01*
X173217581Y-116149865D01*
X173253815Y-116205132D01*
X173256130Y-116208800D01*
X173294227Y-116271581D01*
X173297941Y-116275786D01*
X173297943Y-116275789D01*
X173301667Y-116280005D01*
X173301638Y-116280031D01*
X173304238Y-116282962D01*
X173307042Y-116286316D01*
X173311054Y-116292435D01*
X173343921Y-116323570D01*
X173367586Y-116345988D01*
X173370028Y-116348366D01*
X173670595Y-116648933D01*
X173704621Y-116711245D01*
X173707500Y-116738028D01*
X173707500Y-116961500D01*
X173687498Y-117029621D01*
X173633842Y-117076114D01*
X173581500Y-117087500D01*
X171521866Y-117087500D01*
X171459684Y-117094255D01*
X171323295Y-117145385D01*
X171206739Y-117232739D01*
X171119385Y-117349295D01*
X171068255Y-117485684D01*
X171061500Y-117547866D01*
X171061500Y-118744134D01*
X171068255Y-118806316D01*
X171119385Y-118942705D01*
X171206739Y-119059261D01*
X171323295Y-119146615D01*
X171459684Y-119197745D01*
X171521866Y-119204500D01*
X171681500Y-119204500D01*
X171749621Y-119224502D01*
X171796114Y-119278158D01*
X171807500Y-119330500D01*
X171807500Y-121802624D01*
X171806067Y-121821574D01*
X171803876Y-121835973D01*
X171803876Y-121835979D01*
X171802776Y-121843208D01*
X171803369Y-121850500D01*
X171803369Y-121850503D01*
X171807085Y-121896183D01*
X171807500Y-121906398D01*
X171807500Y-121914525D01*
X171810811Y-121942924D01*
X171811238Y-121947244D01*
X171817191Y-122020426D01*
X171819447Y-122027388D01*
X171820643Y-122033376D01*
X171822051Y-122039333D01*
X171822899Y-122046607D01*
X171825397Y-122053489D01*
X171825398Y-122053493D01*
X171847945Y-122115607D01*
X171849355Y-122119711D01*
X171871987Y-122189575D01*
X171875787Y-122195838D01*
X171878325Y-122201380D01*
X171881067Y-122206856D01*
X171883566Y-122213741D01*
X171887581Y-122219865D01*
X171923815Y-122275132D01*
X171926130Y-122278800D01*
X171964227Y-122341581D01*
X171967941Y-122345786D01*
X171967943Y-122345789D01*
X171971667Y-122350005D01*
X171971638Y-122350031D01*
X171974238Y-122352962D01*
X171977042Y-122356316D01*
X171981054Y-122362435D01*
X172014667Y-122394277D01*
X172037586Y-122415988D01*
X172040028Y-122418366D01*
X175113190Y-125491528D01*
X175125577Y-125505941D01*
X175138546Y-125523564D01*
X175144129Y-125528307D01*
X175179055Y-125557979D01*
X175186571Y-125564909D01*
X175192315Y-125570653D01*
X175195189Y-125572927D01*
X175195196Y-125572933D01*
X175214711Y-125588372D01*
X175218115Y-125591163D01*
X175268472Y-125633945D01*
X175268476Y-125633948D01*
X175274051Y-125638684D01*
X175280566Y-125642011D01*
X175285636Y-125645392D01*
X175290858Y-125648617D01*
X175296600Y-125653160D01*
X175363112Y-125684246D01*
X175367006Y-125686149D01*
X175432404Y-125719543D01*
X175439521Y-125721284D01*
X175445239Y-125723411D01*
X175451045Y-125725342D01*
X175457679Y-125728443D01*
X175464847Y-125729934D01*
X175464850Y-125729935D01*
X175509867Y-125739299D01*
X175529539Y-125743391D01*
X175533797Y-125744354D01*
X175605112Y-125761804D01*
X175610718Y-125762152D01*
X175610719Y-125762152D01*
X175616330Y-125762500D01*
X175616328Y-125762539D01*
X175620229Y-125762772D01*
X175624588Y-125763161D01*
X175631756Y-125764652D01*
X175639073Y-125764454D01*
X175709576Y-125762546D01*
X175712985Y-125762500D01*
X177338003Y-125762500D01*
X177406124Y-125782502D01*
X177448995Y-125828861D01*
X177512737Y-125947491D01*
X177515532Y-125951234D01*
X177515534Y-125951237D01*
X177666330Y-126153177D01*
X177666335Y-126153183D01*
X177669122Y-126156915D01*
X177672431Y-126160195D01*
X177672436Y-126160201D01*
X177809633Y-126296205D01*
X177854743Y-126340923D01*
X177858505Y-126343681D01*
X177858508Y-126343684D01*
X177990415Y-126440402D01*
X178065524Y-126495474D01*
X178144149Y-126536841D01*
X178292684Y-126614989D01*
X178292689Y-126614991D01*
X178296834Y-126617172D01*
X178543590Y-126703344D01*
X178548183Y-126704216D01*
X178795785Y-126751224D01*
X178795788Y-126751224D01*
X178800374Y-126752095D01*
X178930958Y-126757226D01*
X179056875Y-126762174D01*
X179056881Y-126762174D01*
X179061543Y-126762357D01*
X179140977Y-126753657D01*
X179316707Y-126734412D01*
X179316712Y-126734411D01*
X179321360Y-126733902D01*
X179434116Y-126704216D01*
X179569594Y-126668548D01*
X179569596Y-126668547D01*
X179574117Y-126667357D01*
X179814262Y-126564182D01*
X179913617Y-126502700D01*
X180032547Y-126429104D01*
X180032548Y-126429104D01*
X180036519Y-126426646D01*
X180040082Y-126423629D01*
X180040087Y-126423626D01*
X180232439Y-126260787D01*
X180232440Y-126260786D01*
X180236005Y-126257768D01*
X180286701Y-126199960D01*
X180405257Y-126064774D01*
X180405261Y-126064769D01*
X180408339Y-126061259D01*
X180445555Y-126003401D01*
X180547205Y-125845367D01*
X180549733Y-125841437D01*
X180657083Y-125603129D01*
X180667862Y-125564909D01*
X180726760Y-125356076D01*
X180726761Y-125356073D01*
X180728030Y-125351572D01*
X180754007Y-125147370D01*
X180760616Y-125095421D01*
X180760616Y-125095417D01*
X180761014Y-125092291D01*
X180763431Y-125000000D01*
X180758249Y-124930274D01*
X180744407Y-124744000D01*
X180744406Y-124743996D01*
X180744061Y-124739348D01*
X180725733Y-124658348D01*
X180691426Y-124506738D01*
X180686377Y-124484423D01*
X180684684Y-124480069D01*
X180593340Y-124245176D01*
X180593339Y-124245173D01*
X180591647Y-124240823D01*
X180461951Y-124013902D01*
X180300138Y-123808643D01*
X180109763Y-123629557D01*
X179895009Y-123480576D01*
X179890816Y-123478508D01*
X179664781Y-123367040D01*
X179664778Y-123367039D01*
X179660593Y-123364975D01*
X179614449Y-123350204D01*
X179416123Y-123286720D01*
X179411665Y-123285293D01*
X179153693Y-123243279D01*
X179039942Y-123241790D01*
X178897022Y-123239919D01*
X178897019Y-123239919D01*
X178892345Y-123239858D01*
X178633362Y-123275104D01*
X178382433Y-123348243D01*
X178378180Y-123350203D01*
X178378179Y-123350204D01*
X178341659Y-123367040D01*
X178145072Y-123457668D01*
X178106067Y-123483241D01*
X177930404Y-123598410D01*
X177930399Y-123598414D01*
X177926491Y-123600976D01*
X177731494Y-123775018D01*
X177564363Y-123975970D01*
X177561934Y-123979973D01*
X177442457Y-124176865D01*
X177390018Y-124224726D01*
X177334738Y-124237500D01*
X176068028Y-124237500D01*
X175999907Y-124217498D01*
X175978933Y-124200595D01*
X173369405Y-121591067D01*
X173335379Y-121528755D01*
X173332500Y-121501972D01*
X173332500Y-121453839D01*
X184737173Y-121453839D01*
X184737397Y-121458505D01*
X184737397Y-121458511D01*
X184738294Y-121477176D01*
X184749713Y-121714908D01*
X184800704Y-121971256D01*
X184889026Y-122217252D01*
X184891242Y-122221376D01*
X184997088Y-122418366D01*
X185012737Y-122447491D01*
X185015532Y-122451234D01*
X185015534Y-122451237D01*
X185166330Y-122653177D01*
X185166335Y-122653183D01*
X185169122Y-122656915D01*
X185172431Y-122660195D01*
X185172436Y-122660201D01*
X185332759Y-122819130D01*
X185354743Y-122840923D01*
X185358505Y-122843681D01*
X185358508Y-122843684D01*
X185526693Y-122967002D01*
X185565524Y-122995474D01*
X185569667Y-122997654D01*
X185569669Y-122997655D01*
X185792684Y-123114989D01*
X185792689Y-123114991D01*
X185796834Y-123117172D01*
X186043590Y-123203344D01*
X186048183Y-123204216D01*
X186295785Y-123251224D01*
X186295788Y-123251224D01*
X186300374Y-123252095D01*
X186430959Y-123257226D01*
X186556875Y-123262174D01*
X186556881Y-123262174D01*
X186561543Y-123262357D01*
X186640977Y-123253657D01*
X186816707Y-123234412D01*
X186816712Y-123234411D01*
X186821360Y-123233902D01*
X186934116Y-123204216D01*
X187069594Y-123168548D01*
X187069596Y-123168547D01*
X187074117Y-123167357D01*
X187150147Y-123134692D01*
X187309972Y-123066025D01*
X187314262Y-123064182D01*
X187490648Y-122955032D01*
X187532547Y-122929104D01*
X187532548Y-122929104D01*
X187536519Y-122926646D01*
X187540082Y-122923629D01*
X187540087Y-122923626D01*
X187732439Y-122760787D01*
X187732440Y-122760786D01*
X187736005Y-122757768D01*
X187799363Y-122685522D01*
X187905257Y-122564774D01*
X187905261Y-122564769D01*
X187908339Y-122561259D01*
X187916877Y-122547986D01*
X188047205Y-122345367D01*
X188049733Y-122341437D01*
X188157083Y-122103129D01*
X188182576Y-122012739D01*
X188226760Y-121856076D01*
X188226761Y-121856073D01*
X188228030Y-121851572D01*
X188244832Y-121719496D01*
X188260616Y-121595421D01*
X188260616Y-121595417D01*
X188261014Y-121592291D01*
X188263431Y-121500000D01*
X188244061Y-121239348D01*
X188232725Y-121189248D01*
X188187408Y-120988980D01*
X188186377Y-120984423D01*
X188091647Y-120740823D01*
X187961951Y-120513902D01*
X187800138Y-120308643D01*
X187609763Y-120129557D01*
X187395009Y-119980576D01*
X187390816Y-119978508D01*
X187164781Y-119867040D01*
X187164778Y-119867039D01*
X187160593Y-119864975D01*
X187114449Y-119850204D01*
X186916123Y-119786720D01*
X186911665Y-119785293D01*
X186653693Y-119743279D01*
X186539942Y-119741790D01*
X186397022Y-119739919D01*
X186397019Y-119739919D01*
X186392345Y-119739858D01*
X186133362Y-119775104D01*
X186128876Y-119776412D01*
X186128874Y-119776412D01*
X186100988Y-119784540D01*
X185882433Y-119848243D01*
X185878180Y-119850203D01*
X185878179Y-119850204D01*
X185841659Y-119867040D01*
X185645072Y-119957668D01*
X185606067Y-119983241D01*
X185430404Y-120098410D01*
X185430399Y-120098414D01*
X185426491Y-120100976D01*
X185231494Y-120275018D01*
X185064363Y-120475970D01*
X184928771Y-120699419D01*
X184827697Y-120940455D01*
X184763359Y-121193783D01*
X184737173Y-121453839D01*
X173332500Y-121453839D01*
X173332500Y-119330500D01*
X173352502Y-119262379D01*
X173406158Y-119215886D01*
X173458500Y-119204500D01*
X173618134Y-119204500D01*
X173680316Y-119197745D01*
X173687712Y-119194973D01*
X173687718Y-119194971D01*
X173775771Y-119161961D01*
X173846578Y-119156778D01*
X173864229Y-119161961D01*
X173952282Y-119194971D01*
X173952288Y-119194973D01*
X173959684Y-119197745D01*
X174021866Y-119204500D01*
X174918134Y-119204500D01*
X174980316Y-119197745D01*
X175116705Y-119146615D01*
X175233261Y-119059261D01*
X175320615Y-118942705D01*
X175371745Y-118806316D01*
X175378500Y-118744134D01*
X175378500Y-117547866D01*
X175371745Y-117485684D01*
X175320615Y-117349295D01*
X175257674Y-117265313D01*
X175232826Y-117198807D01*
X175232500Y-117189748D01*
X175232500Y-116437376D01*
X175233933Y-116418426D01*
X175236124Y-116404027D01*
X175236124Y-116404021D01*
X175237224Y-116396792D01*
X175235533Y-116375994D01*
X175232915Y-116343817D01*
X175232500Y-116333602D01*
X175232500Y-116325475D01*
X175229189Y-116297076D01*
X175228760Y-116292736D01*
X175228050Y-116283998D01*
X175222809Y-116219574D01*
X175220553Y-116212612D01*
X175219357Y-116206624D01*
X175217949Y-116200667D01*
X175217101Y-116193393D01*
X175214603Y-116186511D01*
X175214602Y-116186507D01*
X175192055Y-116124393D01*
X175190645Y-116120289D01*
X175168013Y-116050425D01*
X175164213Y-116044162D01*
X175161675Y-116038620D01*
X175158933Y-116033144D01*
X175156434Y-116026259D01*
X175116185Y-115964868D01*
X175113870Y-115961200D01*
X175075773Y-115898419D01*
X175068333Y-115889995D01*
X175068362Y-115889969D01*
X175065762Y-115887038D01*
X175062958Y-115883684D01*
X175058946Y-115877565D01*
X175002413Y-115824011D01*
X174999972Y-115821634D01*
X174999933Y-115821595D01*
X174965907Y-115759283D01*
X174970972Y-115688468D01*
X175013519Y-115631632D01*
X175080039Y-115606821D01*
X175089028Y-115606500D01*
X179388624Y-115606500D01*
X179407574Y-115607933D01*
X179421973Y-115610124D01*
X179421979Y-115610124D01*
X179429208Y-115611224D01*
X179436500Y-115610631D01*
X179436503Y-115610631D01*
X179482183Y-115606915D01*
X179492398Y-115606500D01*
X179500525Y-115606500D01*
X179504161Y-115606076D01*
X179504163Y-115606076D01*
X179507615Y-115605673D01*
X179528924Y-115603189D01*
X179533244Y-115602762D01*
X179606426Y-115596809D01*
X179613388Y-115594553D01*
X179619376Y-115593357D01*
X179625333Y-115591949D01*
X179632607Y-115591101D01*
X179639489Y-115588603D01*
X179639493Y-115588602D01*
X179701607Y-115566055D01*
X179705711Y-115564645D01*
X179775575Y-115542013D01*
X179781838Y-115538213D01*
X179787380Y-115535675D01*
X179792856Y-115532933D01*
X179799741Y-115530434D01*
X179861132Y-115490185D01*
X179864800Y-115487870D01*
X179927581Y-115449773D01*
X179931786Y-115446059D01*
X179931789Y-115446057D01*
X179936005Y-115442333D01*
X179936031Y-115442362D01*
X179938962Y-115439762D01*
X179942316Y-115436958D01*
X179948435Y-115432946D01*
X180001989Y-115376413D01*
X180004366Y-115373972D01*
X186991528Y-108386810D01*
X187005941Y-108374423D01*
X187017665Y-108365795D01*
X187023564Y-108361454D01*
X187057979Y-108320945D01*
X187064909Y-108313429D01*
X187070653Y-108307685D01*
X187072927Y-108304811D01*
X187072933Y-108304804D01*
X187088372Y-108285289D01*
X187091163Y-108281885D01*
X187133945Y-108231528D01*
X187133948Y-108231524D01*
X187138684Y-108225949D01*
X187142011Y-108219434D01*
X187145392Y-108214364D01*
X187148617Y-108209142D01*
X187153160Y-108203400D01*
X187184246Y-108136888D01*
X187186152Y-108132988D01*
X187216213Y-108074117D01*
X187219543Y-108067596D01*
X187221284Y-108060479D01*
X187223411Y-108054761D01*
X187225342Y-108048955D01*
X187228443Y-108042321D01*
X187232562Y-108022522D01*
X187243389Y-107970469D01*
X187244359Y-107966181D01*
X187260469Y-107900343D01*
X187261804Y-107894888D01*
X187262500Y-107883670D01*
X187262539Y-107883672D01*
X187262772Y-107879771D01*
X187263161Y-107875412D01*
X187264652Y-107868244D01*
X187262546Y-107790423D01*
X187262500Y-107787014D01*
X187262500Y-105666417D01*
X187282502Y-105598296D01*
X187322197Y-105559273D01*
X187532538Y-105429111D01*
X187532552Y-105429101D01*
X187536519Y-105426646D01*
X187540082Y-105423629D01*
X187540087Y-105423626D01*
X187732439Y-105260787D01*
X187732440Y-105260786D01*
X187736005Y-105257768D01*
X187798521Y-105186482D01*
X187905257Y-105064774D01*
X187905261Y-105064769D01*
X187908339Y-105061259D01*
X188049733Y-104841437D01*
X188157083Y-104603129D01*
X188193491Y-104474038D01*
X188226760Y-104356076D01*
X188226761Y-104356073D01*
X188228030Y-104351572D01*
X188244832Y-104219496D01*
X188260616Y-104095421D01*
X188260616Y-104095417D01*
X188261014Y-104092291D01*
X188263431Y-104000000D01*
X188263197Y-103996851D01*
X188244407Y-103744000D01*
X188244406Y-103743996D01*
X188244061Y-103739348D01*
X188239458Y-103719002D01*
X188187408Y-103488980D01*
X188186377Y-103484423D01*
X188091647Y-103240823D01*
X187961951Y-103013902D01*
X187800138Y-102808643D01*
X187609763Y-102629557D01*
X187395009Y-102480576D01*
X187387202Y-102476726D01*
X187164781Y-102367040D01*
X187164778Y-102367039D01*
X187160593Y-102364975D01*
X187114449Y-102350204D01*
X186916123Y-102286720D01*
X186911665Y-102285293D01*
X186653693Y-102243279D01*
X186539942Y-102241790D01*
X186397022Y-102239919D01*
X186397019Y-102239919D01*
X186392345Y-102239858D01*
X186133362Y-102275104D01*
X185882433Y-102348243D01*
X185878180Y-102350203D01*
X185878179Y-102350204D01*
X185841659Y-102367040D01*
X185645072Y-102457668D01*
X185609534Y-102480968D01*
X185430404Y-102598410D01*
X185430399Y-102598414D01*
X185426491Y-102600976D01*
X185231494Y-102775018D01*
X185064363Y-102975970D01*
X184928771Y-103199419D01*
X184827697Y-103440455D01*
X184763359Y-103693783D01*
X184762891Y-103698434D01*
X184762890Y-103698438D01*
X184755925Y-103767612D01*
X184737173Y-103953839D01*
X184737397Y-103958505D01*
X184737397Y-103958511D01*
X184737890Y-103968774D01*
X184749713Y-104214908D01*
X184800704Y-104471256D01*
X184889026Y-104717252D01*
X184891242Y-104721376D01*
X184993668Y-104912001D01*
X185012737Y-104947491D01*
X185015532Y-104951234D01*
X185015534Y-104951237D01*
X185166330Y-105153177D01*
X185166335Y-105153183D01*
X185169122Y-105156915D01*
X185172431Y-105160195D01*
X185172436Y-105160201D01*
X185339325Y-105325639D01*
X185354743Y-105340923D01*
X185358505Y-105343681D01*
X185358508Y-105343684D01*
X185471654Y-105426646D01*
X185565524Y-105495474D01*
X185670170Y-105550531D01*
X185721140Y-105599948D01*
X185737500Y-105662037D01*
X185737500Y-107431972D01*
X185717498Y-107500093D01*
X185700595Y-107521067D01*
X179177067Y-114044595D01*
X179114755Y-114078621D01*
X179087972Y-114081500D01*
X174760985Y-114081500D01*
X174725832Y-114076497D01*
X174594831Y-114038438D01*
X174588426Y-114037934D01*
X174588421Y-114037933D01*
X174559958Y-114035693D01*
X174559950Y-114035693D01*
X174557502Y-114035500D01*
X173400500Y-114035500D01*
X173332379Y-114015498D01*
X173285886Y-113961842D01*
X173274500Y-113909500D01*
X173274500Y-113677498D01*
X173271562Y-113640169D01*
X173225145Y-113480399D01*
X173191953Y-113424275D01*
X173144491Y-113344020D01*
X173144489Y-113344017D01*
X173140453Y-113337193D01*
X173022807Y-113219547D01*
X173015983Y-113215511D01*
X173015980Y-113215509D01*
X172960990Y-113182988D01*
X172879601Y-113134855D01*
X172874177Y-113133279D01*
X172820384Y-113088516D01*
X172799000Y-113018292D01*
X172799000Y-110928589D01*
X172799292Y-110920019D01*
X172802653Y-110870724D01*
X172802653Y-110870720D01*
X172803169Y-110863148D01*
X172792336Y-110801081D01*
X172791380Y-110794607D01*
X172783809Y-110732040D01*
X172781124Y-110724934D01*
X172780281Y-110721501D01*
X172776419Y-110707385D01*
X172775388Y-110703970D01*
X172774081Y-110696483D01*
X172748761Y-110638802D01*
X172746270Y-110632696D01*
X172726691Y-110580883D01*
X172726690Y-110580882D01*
X172724006Y-110573778D01*
X172719707Y-110567523D01*
X172718065Y-110564382D01*
X172710971Y-110551635D01*
X172709130Y-110548523D01*
X172706077Y-110541567D01*
X172667732Y-110491593D01*
X172663861Y-110486266D01*
X172632481Y-110440607D01*
X172632480Y-110440605D01*
X172628179Y-110434348D01*
X172582320Y-110393489D01*
X172577045Y-110388509D01*
X167514497Y-105325962D01*
X167508643Y-105319696D01*
X167489833Y-105298134D01*
X177241500Y-105298134D01*
X177248255Y-105360316D01*
X177299385Y-105496705D01*
X177386739Y-105613261D01*
X177503295Y-105700615D01*
X177639684Y-105751745D01*
X177701866Y-105758500D01*
X180298134Y-105758500D01*
X180360316Y-105751745D01*
X180496705Y-105700615D01*
X180613261Y-105613261D01*
X180700615Y-105496705D01*
X180751745Y-105360316D01*
X180758500Y-105298134D01*
X180758500Y-102701866D01*
X180751745Y-102639684D01*
X180700615Y-102503295D01*
X180613261Y-102386739D01*
X180496705Y-102299385D01*
X180360316Y-102248255D01*
X180298134Y-102241500D01*
X177701866Y-102241500D01*
X177639684Y-102248255D01*
X177503295Y-102299385D01*
X177386739Y-102386739D01*
X177299385Y-102503295D01*
X177248255Y-102639684D01*
X177241500Y-102701866D01*
X177241500Y-105298134D01*
X167489833Y-105298134D01*
X167471158Y-105276726D01*
X167419622Y-105240506D01*
X167414326Y-105236573D01*
X167370737Y-105202394D01*
X167370734Y-105202392D01*
X167364760Y-105197708D01*
X167357836Y-105194582D01*
X167354801Y-105192744D01*
X167342102Y-105185500D01*
X167338954Y-105183812D01*
X167332739Y-105179444D01*
X167274050Y-105156562D01*
X167268005Y-105154022D01*
X167210565Y-105128087D01*
X167203092Y-105126702D01*
X167199674Y-105125631D01*
X167185685Y-105121646D01*
X167182193Y-105120749D01*
X167175111Y-105117988D01*
X167167578Y-105116996D01*
X167167577Y-105116996D01*
X167112670Y-105109767D01*
X167106157Y-105108735D01*
X167051682Y-105098639D01*
X167051680Y-105098639D01*
X167044213Y-105097255D01*
X167036633Y-105097692D01*
X167036632Y-105097692D01*
X166982888Y-105100791D01*
X166975635Y-105101000D01*
X165820296Y-105101000D01*
X165752175Y-105080998D01*
X165705682Y-105027342D01*
X165695578Y-104957068D01*
X165711176Y-104912001D01*
X165726941Y-104884695D01*
X165734527Y-104871556D01*
X165793542Y-104689928D01*
X165794758Y-104678364D01*
X165812814Y-104506565D01*
X165813504Y-104500000D01*
X165810775Y-104474038D01*
X165794232Y-104316635D01*
X165794232Y-104316633D01*
X165793542Y-104310072D01*
X165734527Y-104128444D01*
X165639040Y-103963056D01*
X165631363Y-103954530D01*
X165600647Y-103890524D01*
X165599000Y-103870221D01*
X165599000Y-96823966D01*
X185223257Y-96823966D01*
X185253565Y-96958446D01*
X185256645Y-96968275D01*
X185336770Y-97165603D01*
X185341413Y-97174794D01*
X185452694Y-97356388D01*
X185458777Y-97364699D01*
X185598213Y-97525667D01*
X185605580Y-97532883D01*
X185769434Y-97668916D01*
X185777881Y-97674831D01*
X185961756Y-97782279D01*
X185971042Y-97786729D01*
X186170001Y-97862703D01*
X186179899Y-97865579D01*
X186283250Y-97886606D01*
X186297299Y-97885410D01*
X186301000Y-97875065D01*
X186301000Y-97874517D01*
X186809000Y-97874517D01*
X186813064Y-97888359D01*
X186826478Y-97890393D01*
X186833184Y-97889534D01*
X186843262Y-97887392D01*
X187047255Y-97826191D01*
X187056842Y-97822433D01*
X187248095Y-97728739D01*
X187256945Y-97723464D01*
X187430328Y-97599792D01*
X187438200Y-97593139D01*
X187589052Y-97442812D01*
X187595730Y-97434965D01*
X187720003Y-97262020D01*
X187725313Y-97253183D01*
X187819670Y-97062267D01*
X187823469Y-97052672D01*
X187885377Y-96848910D01*
X187887555Y-96838837D01*
X187888986Y-96827962D01*
X187886775Y-96813778D01*
X187873617Y-96810000D01*
X186827115Y-96810000D01*
X186811876Y-96814475D01*
X186810671Y-96815865D01*
X186809000Y-96823548D01*
X186809000Y-97874517D01*
X186301000Y-97874517D01*
X186301000Y-96828115D01*
X186296525Y-96812876D01*
X186295135Y-96811671D01*
X186287452Y-96810000D01*
X185238225Y-96810000D01*
X185224694Y-96813973D01*
X185223257Y-96823966D01*
X165599000Y-96823966D01*
X165599000Y-94914134D01*
X185196500Y-94914134D01*
X185203255Y-94976316D01*
X185254385Y-95112705D01*
X185341739Y-95229261D01*
X185458295Y-95316615D01*
X185466704Y-95319767D01*
X185466705Y-95319768D01*
X185575960Y-95360726D01*
X185632725Y-95403367D01*
X185657425Y-95469929D01*
X185642218Y-95539278D01*
X185622825Y-95565759D01*
X185499590Y-95694717D01*
X185493104Y-95702727D01*
X185373098Y-95878649D01*
X185368000Y-95887623D01*
X185278338Y-96080783D01*
X185274775Y-96090470D01*
X185219389Y-96290183D01*
X185220912Y-96298607D01*
X185233292Y-96302000D01*
X187873344Y-96302000D01*
X187886875Y-96298027D01*
X187888180Y-96288947D01*
X187846214Y-96121875D01*
X187842894Y-96112124D01*
X187757972Y-95916814D01*
X187753105Y-95907739D01*
X187637426Y-95728926D01*
X187631136Y-95720757D01*
X187487293Y-95562677D01*
X187456241Y-95498831D01*
X187464635Y-95428333D01*
X187509812Y-95373564D01*
X187536256Y-95359895D01*
X187643297Y-95319767D01*
X187651705Y-95316615D01*
X187768261Y-95229261D01*
X187855615Y-95112705D01*
X187906745Y-94976316D01*
X187913500Y-94914134D01*
X187913500Y-93117866D01*
X187906745Y-93055684D01*
X187855615Y-92919295D01*
X187768261Y-92802739D01*
X187651705Y-92715385D01*
X187515316Y-92664255D01*
X187453134Y-92657500D01*
X185656866Y-92657500D01*
X185594684Y-92664255D01*
X185458295Y-92715385D01*
X185341739Y-92802739D01*
X185254385Y-92919295D01*
X185203255Y-93055684D01*
X185196500Y-93117866D01*
X185196500Y-94914134D01*
X165599000Y-94914134D01*
X165599000Y-91228599D01*
X165599292Y-91220029D01*
X165602654Y-91170723D01*
X165602654Y-91170719D01*
X165603170Y-91163148D01*
X165601865Y-91155672D01*
X165601865Y-91155668D01*
X165592337Y-91101076D01*
X165591374Y-91094551D01*
X165584722Y-91039582D01*
X165584721Y-91039580D01*
X165583809Y-91032040D01*
X165581125Y-91024938D01*
X165580281Y-91021500D01*
X165576417Y-91007377D01*
X165575387Y-91003965D01*
X165574081Y-90996483D01*
X165571029Y-90989530D01*
X165571027Y-90989524D01*
X165548763Y-90938806D01*
X165546270Y-90932698D01*
X165545717Y-90931233D01*
X165524006Y-90873778D01*
X165519701Y-90867514D01*
X165518045Y-90864347D01*
X165510940Y-90851582D01*
X165509132Y-90848525D01*
X165506078Y-90841567D01*
X165467740Y-90791604D01*
X165463862Y-90786267D01*
X165432481Y-90740607D01*
X165432479Y-90740605D01*
X165428179Y-90734348D01*
X165415655Y-90723189D01*
X165382312Y-90693482D01*
X165377036Y-90688501D01*
X161526850Y-86838315D01*
X161526847Y-86838311D01*
X157520905Y-82832370D01*
X157486879Y-82770058D01*
X157484000Y-82743275D01*
X157484000Y-79775073D01*
X157504002Y-79706952D01*
X157536832Y-79672494D01*
X157580163Y-79641586D01*
X157664860Y-79581173D01*
X157693058Y-79553074D01*
X157805036Y-79441486D01*
X157823096Y-79423489D01*
X157953453Y-79242077D01*
X157954640Y-79242930D01*
X158001960Y-79199362D01*
X158071897Y-79187145D01*
X158137338Y-79214678D01*
X158165166Y-79246511D01*
X158222694Y-79340388D01*
X158228777Y-79348699D01*
X158368213Y-79509667D01*
X158375580Y-79516883D01*
X158539434Y-79652916D01*
X158547881Y-79658831D01*
X158731756Y-79766279D01*
X158741042Y-79770729D01*
X158940001Y-79846703D01*
X158949899Y-79849579D01*
X159053250Y-79870606D01*
X159067299Y-79869410D01*
X159071000Y-79859065D01*
X159071000Y-77223102D01*
X159067082Y-77209758D01*
X159052806Y-77207771D01*
X159014324Y-77213660D01*
X159004288Y-77216051D01*
X158801868Y-77282212D01*
X158792359Y-77286209D01*
X158603463Y-77384542D01*
X158594738Y-77390036D01*
X158424433Y-77517905D01*
X158416726Y-77524748D01*
X158269590Y-77678717D01*
X158263109Y-77686722D01*
X158158498Y-77840074D01*
X158103587Y-77885076D01*
X158033062Y-77893247D01*
X157969315Y-77861993D01*
X157948618Y-77837509D01*
X157867822Y-77712617D01*
X157867820Y-77712614D01*
X157865014Y-77708277D01*
X157714670Y-77543051D01*
X157710619Y-77539852D01*
X157710615Y-77539848D01*
X157543414Y-77407800D01*
X157543410Y-77407798D01*
X157539359Y-77404598D01*
X157503028Y-77384542D01*
X157411970Y-77334276D01*
X157343789Y-77296638D01*
X157338920Y-77294914D01*
X157338916Y-77294912D01*
X157138087Y-77223795D01*
X157138083Y-77223794D01*
X157133212Y-77222069D01*
X157128119Y-77221162D01*
X157128116Y-77221161D01*
X156918373Y-77183800D01*
X156918367Y-77183799D01*
X156913284Y-77182894D01*
X156839452Y-77181992D01*
X156695081Y-77180228D01*
X156695079Y-77180228D01*
X156689911Y-77180165D01*
X156469091Y-77213955D01*
X156256756Y-77283357D01*
X156058607Y-77386507D01*
X156054474Y-77389610D01*
X156054471Y-77389612D01*
X155971450Y-77451946D01*
X155879965Y-77520635D01*
X155725629Y-77682138D01*
X155618201Y-77839621D01*
X155563293Y-77884621D01*
X155492768Y-77892792D01*
X155429021Y-77861538D01*
X155408324Y-77837054D01*
X155327822Y-77712617D01*
X155327820Y-77712614D01*
X155325014Y-77708277D01*
X155174670Y-77543051D01*
X155170619Y-77539852D01*
X155170615Y-77539848D01*
X155003414Y-77407800D01*
X155003410Y-77407798D01*
X154999359Y-77404598D01*
X154963028Y-77384542D01*
X154871970Y-77334276D01*
X154803789Y-77296638D01*
X154798920Y-77294914D01*
X154798916Y-77294912D01*
X154598087Y-77223795D01*
X154598083Y-77223794D01*
X154593212Y-77222069D01*
X154588119Y-77221162D01*
X154588116Y-77221161D01*
X154378373Y-77183800D01*
X154378367Y-77183799D01*
X154373284Y-77182894D01*
X154299452Y-77181992D01*
X154155081Y-77180228D01*
X154155079Y-77180228D01*
X154149911Y-77180165D01*
X153929091Y-77213955D01*
X153716756Y-77283357D01*
X153518607Y-77386507D01*
X153514474Y-77389610D01*
X153514471Y-77389612D01*
X153431450Y-77451946D01*
X153339965Y-77520635D01*
X153185629Y-77682138D01*
X153078201Y-77839621D01*
X153023293Y-77884621D01*
X152952768Y-77892792D01*
X152889021Y-77861538D01*
X152868324Y-77837054D01*
X152787822Y-77712617D01*
X152787820Y-77712614D01*
X152785014Y-77708277D01*
X152634670Y-77543051D01*
X152630619Y-77539852D01*
X152630615Y-77539848D01*
X152463414Y-77407800D01*
X152463410Y-77407798D01*
X152459359Y-77404598D01*
X152423028Y-77384542D01*
X152331970Y-77334276D01*
X152263789Y-77296638D01*
X152258920Y-77294914D01*
X152258916Y-77294912D01*
X152058087Y-77223795D01*
X152058083Y-77223794D01*
X152053212Y-77222069D01*
X152048119Y-77221162D01*
X152048116Y-77221161D01*
X151838373Y-77183800D01*
X151838367Y-77183799D01*
X151833284Y-77182894D01*
X151759452Y-77181992D01*
X151615081Y-77180228D01*
X151615079Y-77180228D01*
X151609911Y-77180165D01*
X151389091Y-77213955D01*
X151176756Y-77283357D01*
X150978607Y-77386507D01*
X150974474Y-77389610D01*
X150974471Y-77389612D01*
X150891450Y-77451946D01*
X150799965Y-77520635D01*
X150645629Y-77682138D01*
X150538201Y-77839621D01*
X150483293Y-77884621D01*
X150412768Y-77892792D01*
X150349021Y-77861538D01*
X150328324Y-77837054D01*
X150247822Y-77712617D01*
X150247820Y-77712614D01*
X150245014Y-77708277D01*
X150094670Y-77543051D01*
X150090619Y-77539852D01*
X150090615Y-77539848D01*
X149923414Y-77407800D01*
X149923410Y-77407798D01*
X149919359Y-77404598D01*
X149883028Y-77384542D01*
X149791970Y-77334276D01*
X149723789Y-77296638D01*
X149718920Y-77294914D01*
X149718916Y-77294912D01*
X149518087Y-77223795D01*
X149518083Y-77223794D01*
X149513212Y-77222069D01*
X149508119Y-77221162D01*
X149508116Y-77221161D01*
X149298373Y-77183800D01*
X149298367Y-77183799D01*
X149293284Y-77182894D01*
X149219452Y-77181992D01*
X149075081Y-77180228D01*
X149075079Y-77180228D01*
X149069911Y-77180165D01*
X148849091Y-77213955D01*
X148636756Y-77283357D01*
X148438607Y-77386507D01*
X148434474Y-77389610D01*
X148434471Y-77389612D01*
X148351450Y-77451946D01*
X148259965Y-77520635D01*
X148105629Y-77682138D01*
X147998201Y-77839621D01*
X147943293Y-77884621D01*
X147872768Y-77892792D01*
X147809021Y-77861538D01*
X147788324Y-77837054D01*
X147707822Y-77712617D01*
X147707820Y-77712614D01*
X147705014Y-77708277D01*
X147554670Y-77543051D01*
X147550619Y-77539852D01*
X147550615Y-77539848D01*
X147383414Y-77407800D01*
X147383410Y-77407798D01*
X147379359Y-77404598D01*
X147343028Y-77384542D01*
X147251970Y-77334276D01*
X147183789Y-77296638D01*
X147178920Y-77294914D01*
X147178916Y-77294912D01*
X146978087Y-77223795D01*
X146978083Y-77223794D01*
X146973212Y-77222069D01*
X146968119Y-77221162D01*
X146968116Y-77221161D01*
X146758373Y-77183800D01*
X146758367Y-77183799D01*
X146753284Y-77182894D01*
X146679452Y-77181992D01*
X146535081Y-77180228D01*
X146535079Y-77180228D01*
X146529911Y-77180165D01*
X146309091Y-77213955D01*
X146096756Y-77283357D01*
X145898607Y-77386507D01*
X145894474Y-77389610D01*
X145894471Y-77389612D01*
X145811450Y-77451946D01*
X145719965Y-77520635D01*
X145565629Y-77682138D01*
X145494775Y-77786007D01*
X145439866Y-77831007D01*
X145390689Y-77841000D01*
X145319431Y-77841000D01*
X145251310Y-77820998D01*
X145213639Y-77783440D01*
X145167822Y-77712617D01*
X145167820Y-77712614D01*
X145165014Y-77708277D01*
X145014670Y-77543051D01*
X145010619Y-77539852D01*
X145010615Y-77539848D01*
X144843414Y-77407800D01*
X144843410Y-77407798D01*
X144839359Y-77404598D01*
X144803028Y-77384542D01*
X144711970Y-77334276D01*
X144643789Y-77296638D01*
X144638920Y-77294914D01*
X144638916Y-77294912D01*
X144438087Y-77223795D01*
X144438083Y-77223794D01*
X144433212Y-77222069D01*
X144428119Y-77221162D01*
X144428116Y-77221161D01*
X144218373Y-77183800D01*
X144218367Y-77183799D01*
X144213284Y-77182894D01*
X144139452Y-77181992D01*
X143995081Y-77180228D01*
X143995079Y-77180228D01*
X143989911Y-77180165D01*
X143769091Y-77213955D01*
X143556756Y-77283357D01*
X143358607Y-77386507D01*
X143354474Y-77389610D01*
X143354471Y-77389612D01*
X143271450Y-77451946D01*
X143179965Y-77520635D01*
X143025629Y-77682138D01*
X142918201Y-77839621D01*
X142863293Y-77884621D01*
X142792768Y-77892792D01*
X142729021Y-77861538D01*
X142708324Y-77837054D01*
X142627822Y-77712617D01*
X142627820Y-77712614D01*
X142625014Y-77708277D01*
X142474670Y-77543051D01*
X142470619Y-77539852D01*
X142470615Y-77539848D01*
X142303414Y-77407800D01*
X142303410Y-77407798D01*
X142299359Y-77404598D01*
X142263028Y-77384542D01*
X142171970Y-77334276D01*
X142103789Y-77296638D01*
X142098920Y-77294914D01*
X142098916Y-77294912D01*
X141898087Y-77223795D01*
X141898083Y-77223794D01*
X141893212Y-77222069D01*
X141888119Y-77221162D01*
X141888116Y-77221161D01*
X141678373Y-77183800D01*
X141678367Y-77183799D01*
X141673284Y-77182894D01*
X141599452Y-77181992D01*
X141455081Y-77180228D01*
X141455079Y-77180228D01*
X141449911Y-77180165D01*
X141229091Y-77213955D01*
X141016756Y-77283357D01*
X140818607Y-77386507D01*
X140814474Y-77389610D01*
X140814471Y-77389612D01*
X140731450Y-77451946D01*
X140639965Y-77520635D01*
X140485629Y-77682138D01*
X140378201Y-77839621D01*
X140323293Y-77884621D01*
X140252768Y-77892792D01*
X140189021Y-77861538D01*
X140168324Y-77837054D01*
X140087822Y-77712617D01*
X140087820Y-77712614D01*
X140085014Y-77708277D01*
X139934670Y-77543051D01*
X139930619Y-77539852D01*
X139930615Y-77539848D01*
X139763414Y-77407800D01*
X139763410Y-77407798D01*
X139759359Y-77404598D01*
X139723028Y-77384542D01*
X139631970Y-77334276D01*
X139563789Y-77296638D01*
X139558920Y-77294914D01*
X139558916Y-77294912D01*
X139358087Y-77223795D01*
X139358083Y-77223794D01*
X139353212Y-77222069D01*
X139348119Y-77221162D01*
X139348116Y-77221161D01*
X139138373Y-77183800D01*
X139138367Y-77183799D01*
X139133284Y-77182894D01*
X139059452Y-77181992D01*
X138915081Y-77180228D01*
X138915079Y-77180228D01*
X138909911Y-77180165D01*
X138689091Y-77213955D01*
X138476756Y-77283357D01*
X138278607Y-77386507D01*
X138274474Y-77389610D01*
X138274471Y-77389612D01*
X138191450Y-77451946D01*
X138099965Y-77520635D01*
X137945629Y-77682138D01*
X137838201Y-77839621D01*
X137783293Y-77884621D01*
X137712768Y-77892792D01*
X137649021Y-77861538D01*
X137628324Y-77837054D01*
X137547822Y-77712617D01*
X137547820Y-77712614D01*
X137545014Y-77708277D01*
X137394670Y-77543051D01*
X137390619Y-77539852D01*
X137390615Y-77539848D01*
X137223414Y-77407800D01*
X137223410Y-77407798D01*
X137219359Y-77404598D01*
X137183028Y-77384542D01*
X137091970Y-77334276D01*
X137023789Y-77296638D01*
X137018920Y-77294914D01*
X137018916Y-77294912D01*
X136818087Y-77223795D01*
X136818083Y-77223794D01*
X136813212Y-77222069D01*
X136808119Y-77221162D01*
X136808116Y-77221161D01*
X136598373Y-77183800D01*
X136598367Y-77183799D01*
X136593284Y-77182894D01*
X136519452Y-77181992D01*
X136375081Y-77180228D01*
X136375079Y-77180228D01*
X136369911Y-77180165D01*
X136149091Y-77213955D01*
X135936756Y-77283357D01*
X135738607Y-77386507D01*
X135734474Y-77389610D01*
X135734471Y-77389612D01*
X135651450Y-77451946D01*
X135559965Y-77520635D01*
X135405629Y-77682138D01*
X135298201Y-77839621D01*
X135243293Y-77884621D01*
X135172768Y-77892792D01*
X135109021Y-77861538D01*
X135088324Y-77837054D01*
X135007822Y-77712617D01*
X135007820Y-77712614D01*
X135005014Y-77708277D01*
X134854670Y-77543051D01*
X134850619Y-77539852D01*
X134850615Y-77539848D01*
X134683414Y-77407800D01*
X134683410Y-77407798D01*
X134679359Y-77404598D01*
X134643028Y-77384542D01*
X134551970Y-77334276D01*
X134483789Y-77296638D01*
X134478920Y-77294914D01*
X134478916Y-77294912D01*
X134278087Y-77223795D01*
X134278083Y-77223794D01*
X134273212Y-77222069D01*
X134268119Y-77221162D01*
X134268116Y-77221161D01*
X134058373Y-77183800D01*
X134058367Y-77183799D01*
X134053284Y-77182894D01*
X133979452Y-77181992D01*
X133835081Y-77180228D01*
X133835079Y-77180228D01*
X133829911Y-77180165D01*
X133609091Y-77213955D01*
X133396756Y-77283357D01*
X133198607Y-77386507D01*
X133194474Y-77389610D01*
X133194471Y-77389612D01*
X133111450Y-77451946D01*
X133019965Y-77520635D01*
X132865629Y-77682138D01*
X132758201Y-77839621D01*
X132703293Y-77884621D01*
X132632768Y-77892792D01*
X132569021Y-77861538D01*
X132548324Y-77837054D01*
X132467822Y-77712617D01*
X132467820Y-77712614D01*
X132465014Y-77708277D01*
X132314670Y-77543051D01*
X132310619Y-77539852D01*
X132310615Y-77539848D01*
X132143414Y-77407800D01*
X132143410Y-77407798D01*
X132139359Y-77404598D01*
X132103028Y-77384542D01*
X132011970Y-77334276D01*
X131943789Y-77296638D01*
X131938920Y-77294914D01*
X131938916Y-77294912D01*
X131738087Y-77223795D01*
X131738083Y-77223794D01*
X131733212Y-77222069D01*
X131728119Y-77221162D01*
X131728116Y-77221161D01*
X131518373Y-77183800D01*
X131518367Y-77183799D01*
X131513284Y-77182894D01*
X131439452Y-77181992D01*
X131295081Y-77180228D01*
X131295079Y-77180228D01*
X131289911Y-77180165D01*
X131069091Y-77213955D01*
X130856756Y-77283357D01*
X130658607Y-77386507D01*
X130654474Y-77389610D01*
X130654471Y-77389612D01*
X130571450Y-77451946D01*
X130479965Y-77520635D01*
X130325629Y-77682138D01*
X130218201Y-77839621D01*
X130163293Y-77884621D01*
X130092768Y-77892792D01*
X130029021Y-77861538D01*
X130008324Y-77837054D01*
X129927822Y-77712617D01*
X129927820Y-77712614D01*
X129925014Y-77708277D01*
X129774670Y-77543051D01*
X129770619Y-77539852D01*
X129770615Y-77539848D01*
X129603414Y-77407800D01*
X129603410Y-77407798D01*
X129599359Y-77404598D01*
X129563028Y-77384542D01*
X129471970Y-77334276D01*
X129403789Y-77296638D01*
X129398920Y-77294914D01*
X129398916Y-77294912D01*
X129198087Y-77223795D01*
X129198083Y-77223794D01*
X129193212Y-77222069D01*
X129188119Y-77221162D01*
X129188116Y-77221161D01*
X128978373Y-77183800D01*
X128978367Y-77183799D01*
X128973284Y-77182894D01*
X128899452Y-77181992D01*
X128755081Y-77180228D01*
X128755079Y-77180228D01*
X128749911Y-77180165D01*
X128529091Y-77213955D01*
X128316756Y-77283357D01*
X128118607Y-77386507D01*
X128114474Y-77389610D01*
X128114471Y-77389612D01*
X128031450Y-77451946D01*
X127939965Y-77520635D01*
X127785629Y-77682138D01*
X127678201Y-77839621D01*
X127623293Y-77884621D01*
X127552768Y-77892792D01*
X127489021Y-77861538D01*
X127468324Y-77837054D01*
X127387822Y-77712617D01*
X127387820Y-77712614D01*
X127385014Y-77708277D01*
X127234670Y-77543051D01*
X127230619Y-77539852D01*
X127230615Y-77539848D01*
X127063419Y-77407804D01*
X127063413Y-77407800D01*
X127059359Y-77404598D01*
X127059318Y-77404575D01*
X127014604Y-77351361D01*
X127004000Y-77300766D01*
X127004000Y-75363738D01*
X127024002Y-75295617D01*
X127058805Y-75261405D01*
X127058387Y-75260877D01*
X127063317Y-75256970D01*
X127063702Y-75256591D01*
X127064124Y-75256330D01*
X127064126Y-75256328D01*
X127070348Y-75252478D01*
X127156784Y-75165891D01*
X127219066Y-75131812D01*
X127289886Y-75136815D01*
X127334976Y-75165736D01*
X127422697Y-75253305D01*
X127428927Y-75257145D01*
X127428928Y-75257146D01*
X127566090Y-75341694D01*
X127573262Y-75346115D01*
X127606001Y-75356974D01*
X127734611Y-75399632D01*
X127734613Y-75399632D01*
X127741139Y-75401797D01*
X127747975Y-75402497D01*
X127747978Y-75402498D01*
X127791031Y-75406909D01*
X127845600Y-75412500D01*
X128646400Y-75412500D01*
X128649646Y-75412163D01*
X128649650Y-75412163D01*
X128745308Y-75402238D01*
X128745312Y-75402237D01*
X128752166Y-75401526D01*
X128758702Y-75399345D01*
X128758704Y-75399345D01*
X128890806Y-75355272D01*
X128919946Y-75345550D01*
X129070348Y-75252478D01*
X129195305Y-75127303D01*
X129199146Y-75121072D01*
X129284277Y-74982965D01*
X129284278Y-74982962D01*
X129288115Y-74976738D01*
X129288927Y-74974290D01*
X129334556Y-74922466D01*
X129401835Y-74903000D01*
X158962275Y-74903000D01*
X159030396Y-74923002D01*
X159051370Y-74939905D01*
X161129095Y-77017630D01*
X161163121Y-77079942D01*
X161166000Y-77106725D01*
X161166000Y-77302981D01*
X161145998Y-77371102D01*
X161115653Y-77403741D01*
X161072221Y-77436351D01*
X160959965Y-77520635D01*
X160805629Y-77682138D01*
X160802720Y-77686403D01*
X160802714Y-77686411D01*
X160790404Y-77704457D01*
X160698204Y-77839618D01*
X160697898Y-77840066D01*
X160642987Y-77885069D01*
X160572462Y-77893240D01*
X160508715Y-77861986D01*
X160488018Y-77837502D01*
X160407426Y-77712926D01*
X160401136Y-77704757D01*
X160257806Y-77547240D01*
X160250273Y-77540215D01*
X160083139Y-77408222D01*
X160074552Y-77402517D01*
X159888117Y-77299599D01*
X159878705Y-77295369D01*
X159677959Y-77224280D01*
X159667988Y-77221646D01*
X159596837Y-77208972D01*
X159583540Y-77210432D01*
X159579000Y-77224989D01*
X159579000Y-79858517D01*
X159583064Y-79872359D01*
X159596478Y-79874393D01*
X159603184Y-79873534D01*
X159613262Y-79871392D01*
X159817255Y-79810191D01*
X159826842Y-79806433D01*
X160018095Y-79712739D01*
X160026945Y-79707464D01*
X160200328Y-79583792D01*
X160208200Y-79577139D01*
X160359052Y-79426812D01*
X160365730Y-79418965D01*
X160493022Y-79241819D01*
X160494279Y-79242722D01*
X160541373Y-79199362D01*
X160611311Y-79187145D01*
X160676751Y-79214678D01*
X160704579Y-79246511D01*
X160764987Y-79345088D01*
X160911250Y-79513938D01*
X161083126Y-79656632D01*
X161276000Y-79769338D01*
X161484692Y-79849030D01*
X161489760Y-79850061D01*
X161489763Y-79850062D01*
X161584862Y-79869410D01*
X161703597Y-79893567D01*
X161708772Y-79893757D01*
X161708774Y-79893757D01*
X161921673Y-79901564D01*
X161921677Y-79901564D01*
X161926837Y-79901753D01*
X161931957Y-79901097D01*
X161931959Y-79901097D01*
X162143288Y-79874025D01*
X162143289Y-79874025D01*
X162148416Y-79873368D01*
X162153366Y-79871883D01*
X162357429Y-79810661D01*
X162357434Y-79810659D01*
X162362384Y-79809174D01*
X162562994Y-79710896D01*
X162744860Y-79581173D01*
X162773058Y-79553074D01*
X162853479Y-79472933D01*
X162915851Y-79439017D01*
X162986658Y-79444205D01*
X163043419Y-79486851D01*
X163060401Y-79517954D01*
X163101676Y-79628054D01*
X163110214Y-79643649D01*
X163186715Y-79745724D01*
X163199276Y-79758285D01*
X163301351Y-79834786D01*
X163316946Y-79843324D01*
X163437394Y-79888478D01*
X163452649Y-79892105D01*
X163503514Y-79897631D01*
X163510328Y-79898000D01*
X164132885Y-79898000D01*
X164148124Y-79893525D01*
X164149329Y-79892135D01*
X164151000Y-79884452D01*
X164151000Y-79879884D01*
X164659000Y-79879884D01*
X164663475Y-79895123D01*
X164664865Y-79896328D01*
X164672548Y-79897999D01*
X165299669Y-79897999D01*
X165306490Y-79897629D01*
X165357352Y-79892105D01*
X165372604Y-79888479D01*
X165493054Y-79843324D01*
X165508649Y-79834786D01*
X165610724Y-79758285D01*
X165623285Y-79745724D01*
X165699786Y-79643649D01*
X165708324Y-79628054D01*
X165753478Y-79507606D01*
X165757105Y-79492351D01*
X165762631Y-79441486D01*
X165763000Y-79434672D01*
X165763000Y-78812115D01*
X165758525Y-78796876D01*
X165757135Y-78795671D01*
X165749452Y-78794000D01*
X164677115Y-78794000D01*
X164661876Y-78798475D01*
X164660671Y-78799865D01*
X164659000Y-78807548D01*
X164659000Y-79879884D01*
X164151000Y-79879884D01*
X164151000Y-78267885D01*
X164659000Y-78267885D01*
X164663475Y-78283124D01*
X164664865Y-78284329D01*
X164672548Y-78286000D01*
X165744884Y-78286000D01*
X165760123Y-78281525D01*
X165761328Y-78280135D01*
X165762999Y-78272452D01*
X165762999Y-77645331D01*
X165762629Y-77638510D01*
X165757105Y-77587648D01*
X165753479Y-77572396D01*
X165708324Y-77451946D01*
X165699786Y-77436351D01*
X165623285Y-77334276D01*
X165610724Y-77321715D01*
X165508649Y-77245214D01*
X165493054Y-77236676D01*
X165372606Y-77191522D01*
X165357351Y-77187895D01*
X165306486Y-77182369D01*
X165299672Y-77182000D01*
X164677115Y-77182000D01*
X164661876Y-77186475D01*
X164660671Y-77187865D01*
X164659000Y-77195548D01*
X164659000Y-78267885D01*
X164151000Y-78267885D01*
X164151000Y-77200116D01*
X164146525Y-77184877D01*
X164145135Y-77183672D01*
X164137452Y-77182001D01*
X163510331Y-77182001D01*
X163503510Y-77182371D01*
X163452648Y-77187895D01*
X163437396Y-77191521D01*
X163316946Y-77236676D01*
X163301351Y-77245214D01*
X163199276Y-77321715D01*
X163186715Y-77334276D01*
X163110214Y-77436351D01*
X163101676Y-77451946D01*
X163060297Y-77562322D01*
X163017655Y-77619087D01*
X162951093Y-77643786D01*
X162881744Y-77628578D01*
X162849121Y-77602891D01*
X162798151Y-77546876D01*
X162798145Y-77546870D01*
X162794670Y-77543051D01*
X162790619Y-77539852D01*
X162790615Y-77539848D01*
X162623419Y-77407804D01*
X162623413Y-77407800D01*
X162619359Y-77404598D01*
X162619318Y-77404575D01*
X162574604Y-77351361D01*
X162564000Y-77300766D01*
X162564000Y-77052042D01*
X162569544Y-77015810D01*
X162571912Y-77010565D01*
X162577867Y-76978435D01*
X162581722Y-76963088D01*
X162589353Y-76939179D01*
X162589354Y-76939173D01*
X162591662Y-76931942D01*
X162594181Y-76894998D01*
X162595999Y-76880610D01*
X162601360Y-76851684D01*
X162601360Y-76851680D01*
X162602744Y-76844214D01*
X162600862Y-76811580D01*
X162600945Y-76795760D01*
X162603169Y-76763148D01*
X162601864Y-76755672D01*
X162601864Y-76755667D01*
X162596803Y-76726669D01*
X162595136Y-76712261D01*
X162593443Y-76682897D01*
X162593442Y-76682893D01*
X162593005Y-76675309D01*
X162583397Y-76644075D01*
X162579703Y-76628693D01*
X162575386Y-76603960D01*
X162574081Y-76596482D01*
X162559196Y-76562572D01*
X162554143Y-76548985D01*
X162545492Y-76520864D01*
X162545491Y-76520863D01*
X162543258Y-76513603D01*
X162526466Y-76485545D01*
X162519222Y-76471511D01*
X162506077Y-76441567D01*
X162483538Y-76412193D01*
X162475391Y-76400205D01*
X162460274Y-76374946D01*
X162456375Y-76368431D01*
X162428514Y-76340277D01*
X162427615Y-76339313D01*
X162426847Y-76338311D01*
X162400381Y-76311845D01*
X162399916Y-76311378D01*
X162340431Y-76251267D01*
X162340429Y-76251266D01*
X162337371Y-76248175D01*
X162336059Y-76247371D01*
X162334662Y-76246126D01*
X159818496Y-73729960D01*
X159812643Y-73723695D01*
X159780153Y-73686451D01*
X159780150Y-73686448D01*
X159775158Y-73680726D01*
X159723622Y-73644506D01*
X159718326Y-73640573D01*
X159674737Y-73606394D01*
X159674734Y-73606392D01*
X159668760Y-73601708D01*
X159661836Y-73598582D01*
X159658801Y-73596744D01*
X159646102Y-73589500D01*
X159642954Y-73587812D01*
X159636739Y-73583444D01*
X159578050Y-73560562D01*
X159572005Y-73558022D01*
X159514565Y-73532087D01*
X159507092Y-73530702D01*
X159503674Y-73529631D01*
X159489685Y-73525646D01*
X159486193Y-73524749D01*
X159479111Y-73521988D01*
X159471578Y-73520996D01*
X159471577Y-73520996D01*
X159416670Y-73513767D01*
X159410157Y-73512735D01*
X159355682Y-73502639D01*
X159355680Y-73502639D01*
X159348213Y-73501255D01*
X159340633Y-73501692D01*
X159340632Y-73501692D01*
X159286888Y-73504791D01*
X159279635Y-73505000D01*
X129401838Y-73505000D01*
X129333717Y-73484998D01*
X129288728Y-73433584D01*
X129287550Y-73430054D01*
X129194478Y-73279652D01*
X129069303Y-73154695D01*
X129063072Y-73150854D01*
X128924968Y-73065725D01*
X128924966Y-73065724D01*
X128918738Y-73061885D01*
X128758254Y-73008655D01*
X128757389Y-73008368D01*
X128757387Y-73008368D01*
X128750861Y-73006203D01*
X128744025Y-73005503D01*
X128744022Y-73005502D01*
X128700969Y-73001091D01*
X128646400Y-72995500D01*
X127845600Y-72995500D01*
X127842354Y-72995837D01*
X127842350Y-72995837D01*
X127746692Y-73005762D01*
X127746688Y-73005763D01*
X127739834Y-73006474D01*
X127733298Y-73008655D01*
X127733296Y-73008655D01*
X127601194Y-73052728D01*
X127572054Y-73062450D01*
X127421652Y-73155522D01*
X127416479Y-73160704D01*
X127335216Y-73242109D01*
X127272934Y-73276188D01*
X127202114Y-73271185D01*
X127157025Y-73242264D01*
X127074483Y-73159866D01*
X127069303Y-73154695D01*
X127063072Y-73150854D01*
X126924968Y-73065725D01*
X126924966Y-73065724D01*
X126918738Y-73061885D01*
X126758254Y-73008655D01*
X126757389Y-73008368D01*
X126757387Y-73008368D01*
X126750861Y-73006203D01*
X126744025Y-73005503D01*
X126744022Y-73005502D01*
X126700969Y-73001091D01*
X126646400Y-72995500D01*
X125845600Y-72995500D01*
X125842354Y-72995837D01*
X125842350Y-72995837D01*
X125746692Y-73005762D01*
X125746688Y-73005763D01*
X125739834Y-73006474D01*
X125733298Y-73008655D01*
X125733296Y-73008655D01*
X125601194Y-73052728D01*
X125572054Y-73062450D01*
X125421652Y-73155522D01*
X125296695Y-73280697D01*
X125292855Y-73286927D01*
X125292854Y-73286928D01*
X125246009Y-73362925D01*
X125203885Y-73431262D01*
X125203073Y-73433710D01*
X125157444Y-73485534D01*
X125090165Y-73505000D01*
X115424599Y-73505000D01*
X115416029Y-73504708D01*
X115366723Y-73501346D01*
X115366719Y-73501346D01*
X115359148Y-73500830D01*
X115351672Y-73502135D01*
X115351668Y-73502135D01*
X115297076Y-73511663D01*
X115290551Y-73512626D01*
X115235582Y-73519278D01*
X115235580Y-73519279D01*
X115228040Y-73520191D01*
X115220938Y-73522875D01*
X115217500Y-73523719D01*
X115203377Y-73527583D01*
X115199966Y-73528613D01*
X115192483Y-73529919D01*
X115185528Y-73532972D01*
X115134802Y-73555239D01*
X115128696Y-73557730D01*
X115127953Y-73558011D01*
X115069778Y-73579994D01*
X115063523Y-73584293D01*
X115060382Y-73585935D01*
X115047628Y-73593033D01*
X115044522Y-73594870D01*
X115037567Y-73597923D01*
X115031540Y-73602548D01*
X115031536Y-73602550D01*
X114987598Y-73636265D01*
X114982280Y-73640129D01*
X114930348Y-73675821D01*
X114925296Y-73681491D01*
X114925295Y-73681492D01*
X114889482Y-73721688D01*
X114884501Y-73726964D01*
X112425962Y-76185503D01*
X112419697Y-76191356D01*
X112376726Y-76228842D01*
X112340506Y-76280378D01*
X112336573Y-76285674D01*
X112302394Y-76329263D01*
X112302392Y-76329266D01*
X112297708Y-76335240D01*
X112294582Y-76342164D01*
X112292744Y-76345199D01*
X112285500Y-76357898D01*
X112283812Y-76361046D01*
X112279444Y-76367261D01*
X112264171Y-76406436D01*
X112256567Y-76425939D01*
X112254022Y-76431995D01*
X112228087Y-76489435D01*
X112226702Y-76496908D01*
X112225631Y-76500326D01*
X112221646Y-76514315D01*
X112220749Y-76517807D01*
X112217988Y-76524889D01*
X112216996Y-76532422D01*
X112216996Y-76532423D01*
X112209767Y-76587330D01*
X112208735Y-76593843D01*
X112200830Y-76636496D01*
X112197255Y-76655787D01*
X112197692Y-76663367D01*
X112197692Y-76663368D01*
X112200791Y-76717112D01*
X112201000Y-76724365D01*
X112201000Y-113737401D01*
X112200708Y-113745971D01*
X112196830Y-113802852D01*
X112198135Y-113810328D01*
X112198135Y-113810332D01*
X112207663Y-113864924D01*
X112208626Y-113871449D01*
X112216191Y-113933960D01*
X112218875Y-113941062D01*
X112219719Y-113944500D01*
X112223583Y-113958623D01*
X112224613Y-113962034D01*
X112225919Y-113969517D01*
X112228972Y-113976472D01*
X112251239Y-114027198D01*
X112253730Y-114033304D01*
X112275994Y-114092222D01*
X112280293Y-114098477D01*
X112281935Y-114101618D01*
X112289033Y-114114372D01*
X112290870Y-114117478D01*
X112293923Y-114124433D01*
X112298548Y-114130460D01*
X112298550Y-114130464D01*
X112332265Y-114174402D01*
X112336129Y-114179720D01*
X112371821Y-114231652D01*
X112377491Y-114236704D01*
X112377492Y-114236705D01*
X112417688Y-114272518D01*
X112422964Y-114277499D01*
X120964595Y-122819130D01*
X120998621Y-122881442D01*
X121001500Y-122908225D01*
X121001500Y-124124134D01*
X121008255Y-124186316D01*
X121059385Y-124322705D01*
X121146739Y-124439261D01*
X121263295Y-124526615D01*
X121399684Y-124577745D01*
X121461866Y-124584500D01*
X123258134Y-124584500D01*
X123320316Y-124577745D01*
X123456705Y-124526615D01*
X123573261Y-124439261D01*
X123660615Y-124322705D01*
X123682799Y-124263529D01*
X123704598Y-124205382D01*
X123747240Y-124148618D01*
X123813802Y-124123918D01*
X123883150Y-124139126D01*
X123917817Y-124167114D01*
X123946250Y-124199938D01*
X124118126Y-124342632D01*
X124311000Y-124455338D01*
X124519692Y-124535030D01*
X124524760Y-124536061D01*
X124524763Y-124536062D01*
X124619862Y-124555410D01*
X124738597Y-124579567D01*
X124743772Y-124579757D01*
X124743774Y-124579757D01*
X124956673Y-124587564D01*
X124956677Y-124587564D01*
X124961837Y-124587753D01*
X124966957Y-124587097D01*
X124966959Y-124587097D01*
X125178288Y-124560025D01*
X125178289Y-124560025D01*
X125183416Y-124559368D01*
X125188366Y-124557883D01*
X125392429Y-124496661D01*
X125392434Y-124496659D01*
X125397384Y-124495174D01*
X125597994Y-124396896D01*
X125779860Y-124267173D01*
X125809487Y-124237650D01*
X125923616Y-124123918D01*
X125938096Y-124109489D01*
X126068453Y-123928077D01*
X126069776Y-123929028D01*
X126116645Y-123885857D01*
X126186580Y-123873625D01*
X126252026Y-123901144D01*
X126279875Y-123932994D01*
X126339987Y-124031088D01*
X126486250Y-124199938D01*
X126658126Y-124342632D01*
X126851000Y-124455338D01*
X127059692Y-124535030D01*
X127064760Y-124536061D01*
X127064763Y-124536062D01*
X127159862Y-124555410D01*
X127278597Y-124579567D01*
X127283772Y-124579757D01*
X127283774Y-124579757D01*
X127496673Y-124587564D01*
X127496677Y-124587564D01*
X127501837Y-124587753D01*
X127506957Y-124587097D01*
X127506959Y-124587097D01*
X127718288Y-124560025D01*
X127718289Y-124560025D01*
X127723416Y-124559368D01*
X127728366Y-124557883D01*
X127932429Y-124496661D01*
X127932434Y-124496659D01*
X127937384Y-124495174D01*
X128137994Y-124396896D01*
X128319860Y-124267173D01*
X128349487Y-124237650D01*
X128463616Y-124123918D01*
X128478096Y-124109489D01*
X128608453Y-123928077D01*
X128609640Y-123928930D01*
X128656960Y-123885362D01*
X128726897Y-123873145D01*
X128792338Y-123900678D01*
X128820166Y-123932511D01*
X128877694Y-124026388D01*
X128883777Y-124034699D01*
X129023213Y-124195667D01*
X129030580Y-124202883D01*
X129194434Y-124338916D01*
X129202881Y-124344831D01*
X129386756Y-124452279D01*
X129396042Y-124456729D01*
X129595001Y-124532703D01*
X129604899Y-124535579D01*
X129708250Y-124556606D01*
X129722299Y-124555410D01*
X129726000Y-124545065D01*
X129726000Y-121909102D01*
X129722082Y-121895758D01*
X129707806Y-121893771D01*
X129669324Y-121899660D01*
X129659288Y-121902051D01*
X129456868Y-121968212D01*
X129447359Y-121972209D01*
X129258463Y-122070542D01*
X129249738Y-122076036D01*
X129079433Y-122203905D01*
X129071726Y-122210748D01*
X128924590Y-122364717D01*
X128918109Y-122372722D01*
X128813498Y-122526074D01*
X128758587Y-122571076D01*
X128688062Y-122579247D01*
X128624315Y-122547993D01*
X128603618Y-122523509D01*
X128522822Y-122398617D01*
X128522820Y-122398614D01*
X128520014Y-122394277D01*
X128369670Y-122229051D01*
X128365619Y-122225852D01*
X128365615Y-122225848D01*
X128198414Y-122093800D01*
X128198410Y-122093798D01*
X128194359Y-122090598D01*
X128158028Y-122070542D01*
X128067242Y-122020426D01*
X127998789Y-121982638D01*
X127993920Y-121980914D01*
X127993916Y-121980912D01*
X127793087Y-121909795D01*
X127793083Y-121909794D01*
X127788212Y-121908069D01*
X127783119Y-121907162D01*
X127783116Y-121907161D01*
X127573373Y-121869800D01*
X127573367Y-121869799D01*
X127568284Y-121868894D01*
X127494452Y-121867992D01*
X127350081Y-121866228D01*
X127350079Y-121866228D01*
X127344911Y-121866165D01*
X127124091Y-121899955D01*
X126911756Y-121969357D01*
X126878314Y-121986766D01*
X126789052Y-122033233D01*
X126713607Y-122072507D01*
X126709474Y-122075610D01*
X126709471Y-122075612D01*
X126542354Y-122201087D01*
X126534965Y-122206635D01*
X126531393Y-122210373D01*
X126395132Y-122352962D01*
X126380629Y-122368138D01*
X126273201Y-122525621D01*
X126218293Y-122570621D01*
X126147768Y-122578792D01*
X126084021Y-122547538D01*
X126063324Y-122523054D01*
X125982822Y-122398617D01*
X125982820Y-122398614D01*
X125980014Y-122394277D01*
X125829670Y-122229051D01*
X125825619Y-122225852D01*
X125825615Y-122225848D01*
X125658414Y-122093800D01*
X125658410Y-122093798D01*
X125654359Y-122090598D01*
X125618028Y-122070542D01*
X125527242Y-122020426D01*
X125458789Y-121982638D01*
X125453920Y-121980914D01*
X125453916Y-121980912D01*
X125253087Y-121909795D01*
X125253083Y-121909794D01*
X125248212Y-121908069D01*
X125243119Y-121907162D01*
X125243116Y-121907161D01*
X125033373Y-121869800D01*
X125033367Y-121869799D01*
X125028284Y-121868894D01*
X124954452Y-121867992D01*
X124810081Y-121866228D01*
X124810079Y-121866228D01*
X124804911Y-121866165D01*
X124584091Y-121899955D01*
X124371756Y-121969357D01*
X124338314Y-121986766D01*
X124249052Y-122033233D01*
X124173607Y-122072507D01*
X124169474Y-122075610D01*
X124169471Y-122075612D01*
X124002354Y-122201087D01*
X123994965Y-122206635D01*
X123927768Y-122276953D01*
X123914283Y-122291064D01*
X123852759Y-122326494D01*
X123781846Y-122323037D01*
X123724060Y-122281791D01*
X123705207Y-122248243D01*
X123663767Y-122137703D01*
X123660615Y-122129295D01*
X123573261Y-122012739D01*
X123456705Y-121925385D01*
X123320316Y-121874255D01*
X123258134Y-121867500D01*
X122042226Y-121867500D01*
X121974105Y-121847498D01*
X121953131Y-121830595D01*
X113635905Y-113513370D01*
X113601879Y-113451058D01*
X113599000Y-113424275D01*
X113599000Y-109138134D01*
X121061500Y-109138134D01*
X121068255Y-109200316D01*
X121119385Y-109336705D01*
X121206739Y-109453261D01*
X121323295Y-109540615D01*
X121459684Y-109591745D01*
X121521866Y-109598500D01*
X123318134Y-109598500D01*
X123380316Y-109591745D01*
X123516705Y-109540615D01*
X123633261Y-109453261D01*
X123720615Y-109336705D01*
X123764798Y-109218848D01*
X123807440Y-109162084D01*
X123874001Y-109137384D01*
X123943350Y-109152592D01*
X123978017Y-109180580D01*
X124003218Y-109209673D01*
X124010580Y-109216883D01*
X124174434Y-109352916D01*
X124182881Y-109358831D01*
X124366756Y-109466279D01*
X124376042Y-109470729D01*
X124575001Y-109546703D01*
X124584899Y-109549579D01*
X124688250Y-109570606D01*
X124702299Y-109569410D01*
X124706000Y-109559065D01*
X124706000Y-106923102D01*
X124702082Y-106909758D01*
X124687806Y-106907771D01*
X124649324Y-106913660D01*
X124639288Y-106916051D01*
X124436868Y-106982212D01*
X124427359Y-106986209D01*
X124238463Y-107084542D01*
X124229738Y-107090036D01*
X124059433Y-107217905D01*
X124051726Y-107224748D01*
X123974478Y-107305584D01*
X123912954Y-107341014D01*
X123842042Y-107337557D01*
X123784255Y-107296311D01*
X123765402Y-107262763D01*
X123723767Y-107151703D01*
X123720615Y-107143295D01*
X123633261Y-107026739D01*
X123516705Y-106939385D01*
X123380316Y-106888255D01*
X123318134Y-106881500D01*
X121521866Y-106881500D01*
X121459684Y-106888255D01*
X121323295Y-106939385D01*
X121206739Y-107026739D01*
X121119385Y-107143295D01*
X121068255Y-107279684D01*
X121061500Y-107341866D01*
X121061500Y-109138134D01*
X113599000Y-109138134D01*
X113599000Y-78807966D01*
X114813257Y-78807966D01*
X114843565Y-78942446D01*
X114846645Y-78952275D01*
X114926770Y-79149603D01*
X114931413Y-79158794D01*
X115042694Y-79340388D01*
X115048777Y-79348699D01*
X115188213Y-79509667D01*
X115195580Y-79516883D01*
X115359434Y-79652916D01*
X115367881Y-79658831D01*
X115551756Y-79766279D01*
X115561042Y-79770729D01*
X115760001Y-79846703D01*
X115769899Y-79849579D01*
X115873250Y-79870606D01*
X115887299Y-79869410D01*
X115891000Y-79859065D01*
X115891000Y-78812115D01*
X115886525Y-78796876D01*
X115885135Y-78795671D01*
X115877452Y-78794000D01*
X114828225Y-78794000D01*
X114814694Y-78797973D01*
X114813257Y-78807966D01*
X113599000Y-78807966D01*
X113599000Y-78274183D01*
X114809389Y-78274183D01*
X114810912Y-78282607D01*
X114823292Y-78286000D01*
X115872885Y-78286000D01*
X115888124Y-78281525D01*
X115889329Y-78280135D01*
X115891000Y-78272452D01*
X115891000Y-77223102D01*
X115887082Y-77209758D01*
X115872806Y-77207771D01*
X115834324Y-77213660D01*
X115824288Y-77216051D01*
X115621868Y-77282212D01*
X115612359Y-77286209D01*
X115423463Y-77384542D01*
X115414738Y-77390036D01*
X115244433Y-77517905D01*
X115236726Y-77524748D01*
X115089590Y-77678717D01*
X115083104Y-77686727D01*
X114963098Y-77862649D01*
X114958000Y-77871623D01*
X114868338Y-78064783D01*
X114864775Y-78074470D01*
X114809389Y-78274183D01*
X113599000Y-78274183D01*
X113599000Y-77041725D01*
X113619002Y-76973604D01*
X113635905Y-76952630D01*
X115648630Y-74939905D01*
X115710942Y-74905879D01*
X115737725Y-74903000D01*
X125090162Y-74903000D01*
X125158283Y-74923002D01*
X125203272Y-74974416D01*
X125204450Y-74977946D01*
X125297522Y-75128348D01*
X125422697Y-75253305D01*
X125428927Y-75257145D01*
X125428928Y-75257146D01*
X125546116Y-75329382D01*
X125593609Y-75382155D01*
X125606000Y-75436642D01*
X125606000Y-77302981D01*
X125585998Y-77371102D01*
X125555653Y-77403741D01*
X125512221Y-77436351D01*
X125399965Y-77520635D01*
X125245629Y-77682138D01*
X125138201Y-77839621D01*
X125083293Y-77884621D01*
X125012768Y-77892792D01*
X124949021Y-77861538D01*
X124928324Y-77837054D01*
X124847822Y-77712617D01*
X124847820Y-77712614D01*
X124845014Y-77708277D01*
X124694670Y-77543051D01*
X124690619Y-77539852D01*
X124690615Y-77539848D01*
X124523414Y-77407800D01*
X124523410Y-77407798D01*
X124519359Y-77404598D01*
X124483028Y-77384542D01*
X124391970Y-77334276D01*
X124323789Y-77296638D01*
X124318920Y-77294914D01*
X124318916Y-77294912D01*
X124118087Y-77223795D01*
X124118083Y-77223794D01*
X124113212Y-77222069D01*
X124108119Y-77221162D01*
X124108116Y-77221161D01*
X123898373Y-77183800D01*
X123898367Y-77183799D01*
X123893284Y-77182894D01*
X123819452Y-77181992D01*
X123675081Y-77180228D01*
X123675079Y-77180228D01*
X123669911Y-77180165D01*
X123449091Y-77213955D01*
X123236756Y-77283357D01*
X123038607Y-77386507D01*
X123034474Y-77389610D01*
X123034471Y-77389612D01*
X122951450Y-77451946D01*
X122859965Y-77520635D01*
X122705629Y-77682138D01*
X122598201Y-77839621D01*
X122543293Y-77884621D01*
X122472768Y-77892792D01*
X122409021Y-77861538D01*
X122388324Y-77837054D01*
X122307822Y-77712617D01*
X122307820Y-77712614D01*
X122305014Y-77708277D01*
X122154670Y-77543051D01*
X122150619Y-77539852D01*
X122150615Y-77539848D01*
X121983414Y-77407800D01*
X121983410Y-77407798D01*
X121979359Y-77404598D01*
X121943028Y-77384542D01*
X121851970Y-77334276D01*
X121783789Y-77296638D01*
X121778920Y-77294914D01*
X121778916Y-77294912D01*
X121578087Y-77223795D01*
X121578083Y-77223794D01*
X121573212Y-77222069D01*
X121568119Y-77221162D01*
X121568116Y-77221161D01*
X121358373Y-77183800D01*
X121358367Y-77183799D01*
X121353284Y-77182894D01*
X121279452Y-77181992D01*
X121135081Y-77180228D01*
X121135079Y-77180228D01*
X121129911Y-77180165D01*
X120909091Y-77213955D01*
X120696756Y-77283357D01*
X120498607Y-77386507D01*
X120494474Y-77389610D01*
X120494471Y-77389612D01*
X120411450Y-77451946D01*
X120319965Y-77520635D01*
X120165629Y-77682138D01*
X120058201Y-77839621D01*
X120003293Y-77884621D01*
X119932768Y-77892792D01*
X119869021Y-77861538D01*
X119848324Y-77837054D01*
X119767822Y-77712617D01*
X119767820Y-77712614D01*
X119765014Y-77708277D01*
X119614670Y-77543051D01*
X119610619Y-77539852D01*
X119610615Y-77539848D01*
X119443414Y-77407800D01*
X119443410Y-77407798D01*
X119439359Y-77404598D01*
X119403028Y-77384542D01*
X119311970Y-77334276D01*
X119243789Y-77296638D01*
X119238920Y-77294914D01*
X119238916Y-77294912D01*
X119038087Y-77223795D01*
X119038083Y-77223794D01*
X119033212Y-77222069D01*
X119028119Y-77221162D01*
X119028116Y-77221161D01*
X118818373Y-77183800D01*
X118818367Y-77183799D01*
X118813284Y-77182894D01*
X118739452Y-77181992D01*
X118595081Y-77180228D01*
X118595079Y-77180228D01*
X118589911Y-77180165D01*
X118369091Y-77213955D01*
X118156756Y-77283357D01*
X117958607Y-77386507D01*
X117954474Y-77389610D01*
X117954471Y-77389612D01*
X117871450Y-77451946D01*
X117779965Y-77520635D01*
X117625629Y-77682138D01*
X117622720Y-77686403D01*
X117622714Y-77686411D01*
X117610404Y-77704457D01*
X117518204Y-77839618D01*
X117517898Y-77840066D01*
X117462987Y-77885069D01*
X117392462Y-77893240D01*
X117328715Y-77861986D01*
X117308018Y-77837502D01*
X117227426Y-77712926D01*
X117221136Y-77704757D01*
X117077806Y-77547240D01*
X117070273Y-77540215D01*
X116903139Y-77408222D01*
X116894552Y-77402517D01*
X116708117Y-77299599D01*
X116698705Y-77295369D01*
X116497959Y-77224280D01*
X116487988Y-77221646D01*
X116416837Y-77208972D01*
X116403540Y-77210432D01*
X116399000Y-77224989D01*
X116399000Y-79858517D01*
X116403064Y-79872359D01*
X116416478Y-79874393D01*
X116423184Y-79873534D01*
X116433262Y-79871392D01*
X116637255Y-79810191D01*
X116646842Y-79806433D01*
X116838095Y-79712739D01*
X116846945Y-79707464D01*
X117020328Y-79583792D01*
X117028200Y-79577139D01*
X117179052Y-79426812D01*
X117185730Y-79418965D01*
X117313022Y-79241819D01*
X117314279Y-79242722D01*
X117361373Y-79199362D01*
X117431311Y-79187145D01*
X117496751Y-79214678D01*
X117524579Y-79246511D01*
X117584987Y-79345088D01*
X117731250Y-79513938D01*
X117903126Y-79656632D01*
X117907587Y-79659239D01*
X117907593Y-79659243D01*
X117923568Y-79668577D01*
X117972293Y-79720215D01*
X117986000Y-79777366D01*
X117986000Y-101656401D01*
X117985708Y-101664971D01*
X117983173Y-101702158D01*
X117981830Y-101721852D01*
X117983135Y-101729328D01*
X117983135Y-101729332D01*
X117992663Y-101783924D01*
X117993626Y-101790449D01*
X117995208Y-101803517D01*
X118001191Y-101852960D01*
X118003875Y-101860062D01*
X118004719Y-101863500D01*
X118008583Y-101877623D01*
X118009613Y-101881034D01*
X118010919Y-101888517D01*
X118013972Y-101895472D01*
X118036239Y-101946198D01*
X118038730Y-101952304D01*
X118060994Y-102011222D01*
X118065293Y-102017477D01*
X118066935Y-102020618D01*
X118074033Y-102033372D01*
X118075870Y-102036478D01*
X118078923Y-102043433D01*
X118083548Y-102049460D01*
X118083550Y-102049464D01*
X118117265Y-102093402D01*
X118121129Y-102098720D01*
X118156821Y-102150652D01*
X118162491Y-102155704D01*
X118162492Y-102155705D01*
X118202688Y-102191518D01*
X118207964Y-102196499D01*
X120485503Y-104474038D01*
X120491356Y-104480303D01*
X120528842Y-104523274D01*
X120535056Y-104527641D01*
X120580389Y-104559502D01*
X120585684Y-104563435D01*
X120635239Y-104602291D01*
X120642163Y-104605417D01*
X120645212Y-104607264D01*
X120657878Y-104614489D01*
X120661043Y-104616186D01*
X120667261Y-104620556D01*
X120725996Y-104643456D01*
X120732009Y-104645983D01*
X120789435Y-104671912D01*
X120796903Y-104673296D01*
X120800311Y-104674364D01*
X120814350Y-104678364D01*
X120817814Y-104679253D01*
X120824889Y-104682012D01*
X120832418Y-104683003D01*
X120832421Y-104683004D01*
X120887345Y-104690235D01*
X120893859Y-104691267D01*
X120948317Y-104701360D01*
X120948320Y-104701360D01*
X120955786Y-104702744D01*
X120963366Y-104702307D01*
X120963367Y-104702307D01*
X121017094Y-104699209D01*
X121024347Y-104699000D01*
X134858275Y-104699000D01*
X134926396Y-104719002D01*
X134947370Y-104735905D01*
X136924095Y-106712630D01*
X136958121Y-106774942D01*
X136961000Y-106801725D01*
X136961000Y-107002981D01*
X136940998Y-107071102D01*
X136910653Y-107103741D01*
X136777121Y-107204000D01*
X136754965Y-107220635D01*
X136600629Y-107382138D01*
X136493201Y-107539621D01*
X136438293Y-107584621D01*
X136367768Y-107592792D01*
X136304021Y-107561538D01*
X136283324Y-107537054D01*
X136202822Y-107412617D01*
X136202820Y-107412614D01*
X136200014Y-107408277D01*
X136049670Y-107243051D01*
X136045619Y-107239852D01*
X136045615Y-107239848D01*
X135878414Y-107107800D01*
X135878410Y-107107798D01*
X135874359Y-107104598D01*
X135838028Y-107084542D01*
X135777920Y-107051361D01*
X135678789Y-106996638D01*
X135673920Y-106994914D01*
X135673916Y-106994912D01*
X135473087Y-106923795D01*
X135473083Y-106923794D01*
X135468212Y-106922069D01*
X135463119Y-106921162D01*
X135463116Y-106921161D01*
X135253373Y-106883800D01*
X135253367Y-106883799D01*
X135248284Y-106882894D01*
X135174452Y-106881992D01*
X135030081Y-106880228D01*
X135030079Y-106880228D01*
X135024911Y-106880165D01*
X134804091Y-106913955D01*
X134591756Y-106983357D01*
X134393607Y-107086507D01*
X134389474Y-107089610D01*
X134389471Y-107089612D01*
X134219100Y-107217530D01*
X134214965Y-107220635D01*
X134060629Y-107382138D01*
X133953201Y-107539621D01*
X133898293Y-107584621D01*
X133827768Y-107592792D01*
X133764021Y-107561538D01*
X133743324Y-107537054D01*
X133662822Y-107412617D01*
X133662820Y-107412614D01*
X133660014Y-107408277D01*
X133509670Y-107243051D01*
X133505619Y-107239852D01*
X133505615Y-107239848D01*
X133338414Y-107107800D01*
X133338410Y-107107798D01*
X133334359Y-107104598D01*
X133298028Y-107084542D01*
X133237920Y-107051361D01*
X133138789Y-106996638D01*
X133133920Y-106994914D01*
X133133916Y-106994912D01*
X132933087Y-106923795D01*
X132933083Y-106923794D01*
X132928212Y-106922069D01*
X132923119Y-106921162D01*
X132923116Y-106921161D01*
X132713373Y-106883800D01*
X132713367Y-106883799D01*
X132708284Y-106882894D01*
X132634452Y-106881992D01*
X132490081Y-106880228D01*
X132490079Y-106880228D01*
X132484911Y-106880165D01*
X132264091Y-106913955D01*
X132051756Y-106983357D01*
X131853607Y-107086507D01*
X131849474Y-107089610D01*
X131849471Y-107089612D01*
X131679100Y-107217530D01*
X131674965Y-107220635D01*
X131520629Y-107382138D01*
X131413201Y-107539621D01*
X131358293Y-107584621D01*
X131287768Y-107592792D01*
X131224021Y-107561538D01*
X131203324Y-107537054D01*
X131122822Y-107412617D01*
X131122820Y-107412614D01*
X131120014Y-107408277D01*
X130969670Y-107243051D01*
X130965619Y-107239852D01*
X130965615Y-107239848D01*
X130798414Y-107107800D01*
X130798410Y-107107798D01*
X130794359Y-107104598D01*
X130758028Y-107084542D01*
X130697920Y-107051361D01*
X130598789Y-106996638D01*
X130593920Y-106994914D01*
X130593916Y-106994912D01*
X130393087Y-106923795D01*
X130393083Y-106923794D01*
X130388212Y-106922069D01*
X130383119Y-106921162D01*
X130383116Y-106921161D01*
X130173373Y-106883800D01*
X130173367Y-106883799D01*
X130168284Y-106882894D01*
X130094452Y-106881992D01*
X129950081Y-106880228D01*
X129950079Y-106880228D01*
X129944911Y-106880165D01*
X129724091Y-106913955D01*
X129511756Y-106983357D01*
X129313607Y-107086507D01*
X129309474Y-107089610D01*
X129309471Y-107089612D01*
X129139100Y-107217530D01*
X129134965Y-107220635D01*
X128980629Y-107382138D01*
X128873201Y-107539621D01*
X128818293Y-107584621D01*
X128747768Y-107592792D01*
X128684021Y-107561538D01*
X128663324Y-107537054D01*
X128582822Y-107412617D01*
X128582820Y-107412614D01*
X128580014Y-107408277D01*
X128429670Y-107243051D01*
X128425619Y-107239852D01*
X128425615Y-107239848D01*
X128258414Y-107107800D01*
X128258410Y-107107798D01*
X128254359Y-107104598D01*
X128218028Y-107084542D01*
X128157920Y-107051361D01*
X128058789Y-106996638D01*
X128053920Y-106994914D01*
X128053916Y-106994912D01*
X127853087Y-106923795D01*
X127853083Y-106923794D01*
X127848212Y-106922069D01*
X127843119Y-106921162D01*
X127843116Y-106921161D01*
X127633373Y-106883800D01*
X127633367Y-106883799D01*
X127628284Y-106882894D01*
X127554452Y-106881992D01*
X127410081Y-106880228D01*
X127410079Y-106880228D01*
X127404911Y-106880165D01*
X127184091Y-106913955D01*
X126971756Y-106983357D01*
X126773607Y-107086507D01*
X126769474Y-107089610D01*
X126769471Y-107089612D01*
X126599100Y-107217530D01*
X126594965Y-107220635D01*
X126440629Y-107382138D01*
X126437720Y-107386403D01*
X126437714Y-107386411D01*
X126386153Y-107461997D01*
X126333204Y-107539618D01*
X126332898Y-107540066D01*
X126277987Y-107585069D01*
X126207462Y-107593240D01*
X126143715Y-107561986D01*
X126123018Y-107537502D01*
X126042426Y-107412926D01*
X126036136Y-107404757D01*
X125892806Y-107247240D01*
X125885273Y-107240215D01*
X125718139Y-107108222D01*
X125709552Y-107102517D01*
X125523117Y-106999599D01*
X125513705Y-106995369D01*
X125312959Y-106924280D01*
X125302988Y-106921646D01*
X125231837Y-106908972D01*
X125218540Y-106910432D01*
X125214000Y-106924989D01*
X125214000Y-109558517D01*
X125218064Y-109572359D01*
X125231478Y-109574393D01*
X125238184Y-109573534D01*
X125248262Y-109571392D01*
X125452255Y-109510191D01*
X125461842Y-109506433D01*
X125653095Y-109412739D01*
X125661945Y-109407464D01*
X125835328Y-109283792D01*
X125843200Y-109277139D01*
X125994052Y-109126812D01*
X126000730Y-109118965D01*
X126128022Y-108941819D01*
X126129279Y-108942722D01*
X126176373Y-108899362D01*
X126246311Y-108887145D01*
X126311751Y-108914678D01*
X126339579Y-108946511D01*
X126399987Y-109045088D01*
X126546250Y-109213938D01*
X126718126Y-109356632D01*
X126911000Y-109469338D01*
X127119692Y-109549030D01*
X127124760Y-109550061D01*
X127124763Y-109550062D01*
X127219862Y-109569410D01*
X127338597Y-109593567D01*
X127343772Y-109593757D01*
X127343774Y-109593757D01*
X127556673Y-109601564D01*
X127556677Y-109601564D01*
X127561837Y-109601753D01*
X127566957Y-109601097D01*
X127566959Y-109601097D01*
X127778288Y-109574025D01*
X127778289Y-109574025D01*
X127783416Y-109573368D01*
X127788366Y-109571883D01*
X127992429Y-109510661D01*
X127992434Y-109510659D01*
X127997384Y-109509174D01*
X128197994Y-109410896D01*
X128379860Y-109281173D01*
X128538096Y-109123489D01*
X128668453Y-108942077D01*
X128669776Y-108943028D01*
X128716645Y-108899857D01*
X128786580Y-108887625D01*
X128852026Y-108915144D01*
X128879875Y-108946994D01*
X128939987Y-109045088D01*
X129086250Y-109213938D01*
X129258126Y-109356632D01*
X129451000Y-109469338D01*
X129659692Y-109549030D01*
X129664760Y-109550061D01*
X129664763Y-109550062D01*
X129759862Y-109569410D01*
X129878597Y-109593567D01*
X129883772Y-109593757D01*
X129883774Y-109593757D01*
X130096673Y-109601564D01*
X130096677Y-109601564D01*
X130101837Y-109601753D01*
X130106957Y-109601097D01*
X130106959Y-109601097D01*
X130318288Y-109574025D01*
X130318289Y-109574025D01*
X130323416Y-109573368D01*
X130328366Y-109571883D01*
X130532429Y-109510661D01*
X130532434Y-109510659D01*
X130537384Y-109509174D01*
X130737994Y-109410896D01*
X130919860Y-109281173D01*
X131078096Y-109123489D01*
X131208453Y-108942077D01*
X131209776Y-108943028D01*
X131256645Y-108899857D01*
X131326580Y-108887625D01*
X131392026Y-108915144D01*
X131419875Y-108946994D01*
X131479987Y-109045088D01*
X131626250Y-109213938D01*
X131798126Y-109356632D01*
X131991000Y-109469338D01*
X132199692Y-109549030D01*
X132204760Y-109550061D01*
X132204763Y-109550062D01*
X132299862Y-109569410D01*
X132418597Y-109593567D01*
X132423772Y-109593757D01*
X132423774Y-109593757D01*
X132636673Y-109601564D01*
X132636677Y-109601564D01*
X132641837Y-109601753D01*
X132646957Y-109601097D01*
X132646959Y-109601097D01*
X132858288Y-109574025D01*
X132858289Y-109574025D01*
X132863416Y-109573368D01*
X132868366Y-109571883D01*
X133072429Y-109510661D01*
X133072434Y-109510659D01*
X133077384Y-109509174D01*
X133277994Y-109410896D01*
X133459860Y-109281173D01*
X133618096Y-109123489D01*
X133748453Y-108942077D01*
X133749776Y-108943028D01*
X133796645Y-108899857D01*
X133866580Y-108887625D01*
X133932026Y-108915144D01*
X133959875Y-108946994D01*
X134019987Y-109045088D01*
X134166250Y-109213938D01*
X134338126Y-109356632D01*
X134531000Y-109469338D01*
X134739692Y-109549030D01*
X134744760Y-109550061D01*
X134744763Y-109550062D01*
X134839862Y-109569410D01*
X134958597Y-109593567D01*
X134963772Y-109593757D01*
X134963774Y-109593757D01*
X135176673Y-109601564D01*
X135176677Y-109601564D01*
X135181837Y-109601753D01*
X135186957Y-109601097D01*
X135186959Y-109601097D01*
X135398288Y-109574025D01*
X135398289Y-109574025D01*
X135403416Y-109573368D01*
X135408366Y-109571883D01*
X135612429Y-109510661D01*
X135612434Y-109510659D01*
X135617384Y-109509174D01*
X135817994Y-109410896D01*
X135999860Y-109281173D01*
X136158096Y-109123489D01*
X136288453Y-108942077D01*
X136289776Y-108943028D01*
X136336645Y-108899857D01*
X136406580Y-108887625D01*
X136472026Y-108915144D01*
X136499875Y-108946994D01*
X136559987Y-109045088D01*
X136706250Y-109213938D01*
X136878126Y-109356632D01*
X137071000Y-109469338D01*
X137279692Y-109549030D01*
X137284760Y-109550061D01*
X137284763Y-109550062D01*
X137379862Y-109569410D01*
X137498597Y-109593567D01*
X137503772Y-109593757D01*
X137503774Y-109593757D01*
X137716673Y-109601564D01*
X137716677Y-109601564D01*
X137721837Y-109601753D01*
X137726957Y-109601097D01*
X137726959Y-109601097D01*
X137938288Y-109574025D01*
X137938289Y-109574025D01*
X137943416Y-109573368D01*
X137948366Y-109571883D01*
X138152429Y-109510661D01*
X138152434Y-109510659D01*
X138157384Y-109509174D01*
X138357994Y-109410896D01*
X138539860Y-109281173D01*
X138698096Y-109123489D01*
X138828453Y-108942077D01*
X138829776Y-108943028D01*
X138876645Y-108899857D01*
X138946580Y-108887625D01*
X139012026Y-108915144D01*
X139039875Y-108946994D01*
X139099987Y-109045088D01*
X139246250Y-109213938D01*
X139418126Y-109356632D01*
X139611000Y-109469338D01*
X139819692Y-109549030D01*
X139824760Y-109550061D01*
X139824763Y-109550062D01*
X139919862Y-109569410D01*
X140038597Y-109593567D01*
X140043772Y-109593757D01*
X140043774Y-109593757D01*
X140256673Y-109601564D01*
X140256677Y-109601564D01*
X140261837Y-109601753D01*
X140266957Y-109601097D01*
X140266959Y-109601097D01*
X140478288Y-109574025D01*
X140478289Y-109574025D01*
X140483416Y-109573368D01*
X140488366Y-109571883D01*
X140692429Y-109510661D01*
X140692434Y-109510659D01*
X140697384Y-109509174D01*
X140897994Y-109410896D01*
X141079860Y-109281173D01*
X141238096Y-109123489D01*
X141368453Y-108942077D01*
X141369776Y-108943028D01*
X141416645Y-108899857D01*
X141486580Y-108887625D01*
X141552026Y-108915144D01*
X141579875Y-108946994D01*
X141639987Y-109045088D01*
X141786250Y-109213938D01*
X141958126Y-109356632D01*
X142151000Y-109469338D01*
X142359692Y-109549030D01*
X142364760Y-109550061D01*
X142364763Y-109550062D01*
X142459862Y-109569410D01*
X142578597Y-109593567D01*
X142583772Y-109593757D01*
X142583774Y-109593757D01*
X142796673Y-109601564D01*
X142796677Y-109601564D01*
X142801837Y-109601753D01*
X142806957Y-109601097D01*
X142806959Y-109601097D01*
X143018288Y-109574025D01*
X143018289Y-109574025D01*
X143023416Y-109573368D01*
X143028366Y-109571883D01*
X143232429Y-109510661D01*
X143232434Y-109510659D01*
X143237384Y-109509174D01*
X143437994Y-109410896D01*
X143619860Y-109281173D01*
X143778096Y-109123489D01*
X143908453Y-108942077D01*
X143909776Y-108943028D01*
X143956645Y-108899857D01*
X144026580Y-108887625D01*
X144092026Y-108915144D01*
X144119875Y-108946994D01*
X144179987Y-109045088D01*
X144326250Y-109213938D01*
X144498126Y-109356632D01*
X144691000Y-109469338D01*
X144899692Y-109549030D01*
X144904760Y-109550061D01*
X144904763Y-109550062D01*
X144999862Y-109569410D01*
X145118597Y-109593567D01*
X145123772Y-109593757D01*
X145123774Y-109593757D01*
X145336673Y-109601564D01*
X145336677Y-109601564D01*
X145341837Y-109601753D01*
X145346957Y-109601097D01*
X145346959Y-109601097D01*
X145558288Y-109574025D01*
X145558289Y-109574025D01*
X145563416Y-109573368D01*
X145568366Y-109571883D01*
X145772429Y-109510661D01*
X145772434Y-109510659D01*
X145777384Y-109509174D01*
X145977994Y-109410896D01*
X146159860Y-109281173D01*
X146318096Y-109123489D01*
X146448453Y-108942077D01*
X146449776Y-108943028D01*
X146496645Y-108899857D01*
X146566580Y-108887625D01*
X146632026Y-108915144D01*
X146659875Y-108946994D01*
X146719987Y-109045088D01*
X146866250Y-109213938D01*
X147038126Y-109356632D01*
X147231000Y-109469338D01*
X147439692Y-109549030D01*
X147444760Y-109550061D01*
X147444763Y-109550062D01*
X147539862Y-109569410D01*
X147658597Y-109593567D01*
X147663772Y-109593757D01*
X147663774Y-109593757D01*
X147876673Y-109601564D01*
X147876677Y-109601564D01*
X147881837Y-109601753D01*
X147886957Y-109601097D01*
X147886959Y-109601097D01*
X148098288Y-109574025D01*
X148098289Y-109574025D01*
X148103416Y-109573368D01*
X148108366Y-109571883D01*
X148312429Y-109510661D01*
X148312434Y-109510659D01*
X148317384Y-109509174D01*
X148517994Y-109410896D01*
X148699860Y-109281173D01*
X148858096Y-109123489D01*
X148988453Y-108942077D01*
X148989776Y-108943028D01*
X149036645Y-108899857D01*
X149106580Y-108887625D01*
X149172026Y-108915144D01*
X149199875Y-108946994D01*
X149259987Y-109045088D01*
X149406250Y-109213938D01*
X149578126Y-109356632D01*
X149771000Y-109469338D01*
X149979692Y-109549030D01*
X149984760Y-109550061D01*
X149984763Y-109550062D01*
X150079862Y-109569410D01*
X150198597Y-109593567D01*
X150203772Y-109593757D01*
X150203774Y-109593757D01*
X150416673Y-109601564D01*
X150416677Y-109601564D01*
X150421837Y-109601753D01*
X150426957Y-109601097D01*
X150426959Y-109601097D01*
X150638288Y-109574025D01*
X150638289Y-109574025D01*
X150643416Y-109573368D01*
X150648366Y-109571883D01*
X150852429Y-109510661D01*
X150852434Y-109510659D01*
X150857384Y-109509174D01*
X151057994Y-109410896D01*
X151239860Y-109281173D01*
X151398096Y-109123489D01*
X151528453Y-108942077D01*
X151529776Y-108943028D01*
X151576645Y-108899857D01*
X151646580Y-108887625D01*
X151712026Y-108915144D01*
X151739875Y-108946994D01*
X151799987Y-109045088D01*
X151946250Y-109213938D01*
X152118126Y-109356632D01*
X152311000Y-109469338D01*
X152519692Y-109549030D01*
X152524760Y-109550061D01*
X152524763Y-109550062D01*
X152619862Y-109569410D01*
X152738597Y-109593567D01*
X152743772Y-109593757D01*
X152743774Y-109593757D01*
X152796294Y-109595683D01*
X152863636Y-109618168D01*
X152908131Y-109673492D01*
X152915653Y-109744089D01*
X152880771Y-109810693D01*
X146424370Y-116267095D01*
X146362058Y-116301121D01*
X146335275Y-116304000D01*
X143371838Y-116304000D01*
X143303717Y-116283998D01*
X143258728Y-116232584D01*
X143257550Y-116229054D01*
X143243874Y-116206953D01*
X143168332Y-116084880D01*
X143164478Y-116078652D01*
X143039303Y-115953695D01*
X143033072Y-115949854D01*
X142894968Y-115864725D01*
X142894966Y-115864724D01*
X142888738Y-115860885D01*
X142774099Y-115822861D01*
X142727389Y-115807368D01*
X142727387Y-115807368D01*
X142720861Y-115805203D01*
X142714025Y-115804503D01*
X142714022Y-115804502D01*
X142670969Y-115800091D01*
X142616400Y-115794500D01*
X141822488Y-115794500D01*
X141754367Y-115774498D01*
X141707874Y-115720842D01*
X141697178Y-115655329D01*
X141700065Y-115627869D01*
X141713504Y-115500000D01*
X141702086Y-115391365D01*
X141694232Y-115316635D01*
X141694232Y-115316633D01*
X141693542Y-115310072D01*
X141634527Y-115128444D01*
X141539040Y-114963056D01*
X141411253Y-114821134D01*
X141256752Y-114708882D01*
X141250724Y-114706198D01*
X141250722Y-114706197D01*
X141088319Y-114633891D01*
X141088318Y-114633891D01*
X141082288Y-114631206D01*
X140988887Y-114611353D01*
X140901944Y-114592872D01*
X140901939Y-114592872D01*
X140895487Y-114591500D01*
X140704513Y-114591500D01*
X140698061Y-114592872D01*
X140698056Y-114592872D01*
X140611113Y-114611353D01*
X140517712Y-114631206D01*
X140511682Y-114633891D01*
X140511681Y-114633891D01*
X140349278Y-114706197D01*
X140349276Y-114706198D01*
X140343248Y-114708882D01*
X140188747Y-114821134D01*
X140060960Y-114963056D01*
X139965473Y-115128444D01*
X139963434Y-115134721D01*
X139962248Y-115137383D01*
X139936239Y-115175225D01*
X139725954Y-115385511D01*
X139719688Y-115391364D01*
X139676726Y-115428842D01*
X139659972Y-115452681D01*
X139640506Y-115480378D01*
X139636573Y-115485674D01*
X139602394Y-115529263D01*
X139602392Y-115529266D01*
X139597708Y-115535240D01*
X139594582Y-115542164D01*
X139592744Y-115545199D01*
X139585500Y-115557898D01*
X139583812Y-115561046D01*
X139579444Y-115567261D01*
X139564021Y-115606821D01*
X139556567Y-115625939D01*
X139554022Y-115631995D01*
X139528087Y-115689435D01*
X139526702Y-115696908D01*
X139525631Y-115700326D01*
X139521646Y-115714315D01*
X139520749Y-115717807D01*
X139517988Y-115724889D01*
X139516996Y-115732422D01*
X139516996Y-115732423D01*
X139509767Y-115787330D01*
X139508735Y-115793842D01*
X139500429Y-115838661D01*
X139468349Y-115901996D01*
X139442846Y-115922842D01*
X139391652Y-115954522D01*
X139266695Y-116079697D01*
X139262855Y-116085927D01*
X139262854Y-116085928D01*
X139242114Y-116119575D01*
X139173885Y-116230262D01*
X139173824Y-116230446D01*
X139128844Y-116281533D01*
X139061564Y-116301000D01*
X138628600Y-116301000D01*
X138620029Y-116300708D01*
X138563149Y-116296830D01*
X138501065Y-116307666D01*
X138494586Y-116308622D01*
X138432040Y-116316191D01*
X138424938Y-116318875D01*
X138421456Y-116319730D01*
X138407421Y-116323570D01*
X138403973Y-116324611D01*
X138396483Y-116325918D01*
X138389522Y-116328974D01*
X138389521Y-116328974D01*
X138338805Y-116351237D01*
X138332697Y-116353730D01*
X138280886Y-116373308D01*
X138273778Y-116375994D01*
X138267512Y-116380300D01*
X138264357Y-116381950D01*
X138251565Y-116389069D01*
X138248521Y-116390869D01*
X138241567Y-116393922D01*
X138235539Y-116398547D01*
X138235538Y-116398548D01*
X138191604Y-116432260D01*
X138186267Y-116436138D01*
X138134348Y-116471821D01*
X138129296Y-116477491D01*
X138129295Y-116477492D01*
X138093482Y-116517688D01*
X138088501Y-116522964D01*
X137125962Y-117485503D01*
X137119697Y-117491356D01*
X137076726Y-117528842D01*
X137065743Y-117544469D01*
X137040506Y-117580378D01*
X137036573Y-117585674D01*
X137002394Y-117629263D01*
X137002392Y-117629266D01*
X136997708Y-117635240D01*
X136994582Y-117642164D01*
X136992744Y-117645199D01*
X136985500Y-117657898D01*
X136983812Y-117661046D01*
X136979444Y-117667261D01*
X136959272Y-117719002D01*
X136956567Y-117725939D01*
X136954022Y-117731995D01*
X136928087Y-117789435D01*
X136926702Y-117796908D01*
X136925631Y-117800326D01*
X136921646Y-117814315D01*
X136920749Y-117817807D01*
X136917988Y-117824889D01*
X136916996Y-117832422D01*
X136916996Y-117832423D01*
X136909767Y-117887330D01*
X136908735Y-117893843D01*
X136901759Y-117931483D01*
X136897255Y-117955787D01*
X136897692Y-117963367D01*
X136897692Y-117963368D01*
X136900791Y-118017112D01*
X136901000Y-118024365D01*
X136901000Y-121988981D01*
X136880998Y-122057102D01*
X136850653Y-122089741D01*
X136717687Y-122189575D01*
X136694965Y-122206635D01*
X136691393Y-122210373D01*
X136555132Y-122352962D01*
X136540629Y-122368138D01*
X136433201Y-122525621D01*
X136378293Y-122570621D01*
X136307768Y-122578792D01*
X136244021Y-122547538D01*
X136223324Y-122523054D01*
X136142822Y-122398617D01*
X136142820Y-122398614D01*
X136140014Y-122394277D01*
X135989670Y-122229051D01*
X135985619Y-122225852D01*
X135985615Y-122225848D01*
X135818414Y-122093800D01*
X135818410Y-122093798D01*
X135814359Y-122090598D01*
X135778028Y-122070542D01*
X135687242Y-122020426D01*
X135618789Y-121982638D01*
X135613920Y-121980914D01*
X135613916Y-121980912D01*
X135413087Y-121909795D01*
X135413083Y-121909794D01*
X135408212Y-121908069D01*
X135403119Y-121907162D01*
X135403116Y-121907161D01*
X135193373Y-121869800D01*
X135193367Y-121869799D01*
X135188284Y-121868894D01*
X135114452Y-121867992D01*
X134970081Y-121866228D01*
X134970079Y-121866228D01*
X134964911Y-121866165D01*
X134744091Y-121899955D01*
X134531756Y-121969357D01*
X134498314Y-121986766D01*
X134409052Y-122033233D01*
X134333607Y-122072507D01*
X134329474Y-122075610D01*
X134329471Y-122075612D01*
X134162354Y-122201087D01*
X134154965Y-122206635D01*
X134151393Y-122210373D01*
X134015132Y-122352962D01*
X134000629Y-122368138D01*
X133893201Y-122525621D01*
X133838293Y-122570621D01*
X133767768Y-122578792D01*
X133704021Y-122547538D01*
X133683324Y-122523054D01*
X133602822Y-122398617D01*
X133602820Y-122398614D01*
X133600014Y-122394277D01*
X133449670Y-122229051D01*
X133445619Y-122225852D01*
X133445615Y-122225848D01*
X133278414Y-122093800D01*
X133278410Y-122093798D01*
X133274359Y-122090598D01*
X133238028Y-122070542D01*
X133147242Y-122020426D01*
X133078789Y-121982638D01*
X133073920Y-121980914D01*
X133073916Y-121980912D01*
X132873087Y-121909795D01*
X132873083Y-121909794D01*
X132868212Y-121908069D01*
X132863119Y-121907162D01*
X132863116Y-121907161D01*
X132653373Y-121869800D01*
X132653367Y-121869799D01*
X132648284Y-121868894D01*
X132574452Y-121867992D01*
X132430081Y-121866228D01*
X132430079Y-121866228D01*
X132424911Y-121866165D01*
X132204091Y-121899955D01*
X131991756Y-121969357D01*
X131958314Y-121986766D01*
X131869052Y-122033233D01*
X131793607Y-122072507D01*
X131789474Y-122075610D01*
X131789471Y-122075612D01*
X131622354Y-122201087D01*
X131614965Y-122206635D01*
X131611393Y-122210373D01*
X131475132Y-122352962D01*
X131460629Y-122368138D01*
X131353204Y-122525618D01*
X131352898Y-122526066D01*
X131297987Y-122571069D01*
X131227462Y-122579240D01*
X131163715Y-122547986D01*
X131143018Y-122523502D01*
X131062426Y-122398926D01*
X131056136Y-122390757D01*
X130912806Y-122233240D01*
X130905273Y-122226215D01*
X130738139Y-122094222D01*
X130729552Y-122088517D01*
X130543117Y-121985599D01*
X130533705Y-121981369D01*
X130332959Y-121910280D01*
X130322988Y-121907646D01*
X130251837Y-121894972D01*
X130238540Y-121896432D01*
X130234000Y-121910989D01*
X130234000Y-124544517D01*
X130238064Y-124558359D01*
X130251478Y-124560393D01*
X130258184Y-124559534D01*
X130268262Y-124557392D01*
X130472255Y-124496191D01*
X130481842Y-124492433D01*
X130673095Y-124398739D01*
X130681945Y-124393464D01*
X130855328Y-124269792D01*
X130863200Y-124263139D01*
X131014052Y-124112812D01*
X131020730Y-124104965D01*
X131148022Y-123927819D01*
X131149279Y-123928722D01*
X131196373Y-123885362D01*
X131266311Y-123873145D01*
X131331751Y-123900678D01*
X131359579Y-123932511D01*
X131419987Y-124031088D01*
X131566250Y-124199938D01*
X131738126Y-124342632D01*
X131931000Y-124455338D01*
X132139692Y-124535030D01*
X132144760Y-124536061D01*
X132144763Y-124536062D01*
X132239862Y-124555410D01*
X132358597Y-124579567D01*
X132363772Y-124579757D01*
X132363774Y-124579757D01*
X132576673Y-124587564D01*
X132576677Y-124587564D01*
X132581837Y-124587753D01*
X132586957Y-124587097D01*
X132586959Y-124587097D01*
X132798288Y-124560025D01*
X132798289Y-124560025D01*
X132803416Y-124559368D01*
X132808366Y-124557883D01*
X133012429Y-124496661D01*
X133012434Y-124496659D01*
X133017384Y-124495174D01*
X133217994Y-124396896D01*
X133399860Y-124267173D01*
X133429487Y-124237650D01*
X133543616Y-124123918D01*
X133558096Y-124109489D01*
X133688453Y-123928077D01*
X133689776Y-123929028D01*
X133736645Y-123885857D01*
X133806580Y-123873625D01*
X133872026Y-123901144D01*
X133899875Y-123932994D01*
X133959987Y-124031088D01*
X134106250Y-124199938D01*
X134278126Y-124342632D01*
X134471000Y-124455338D01*
X134679692Y-124535030D01*
X134684760Y-124536061D01*
X134684763Y-124536062D01*
X134779862Y-124555410D01*
X134898597Y-124579567D01*
X134903772Y-124579757D01*
X134903774Y-124579757D01*
X135116673Y-124587564D01*
X135116677Y-124587564D01*
X135121837Y-124587753D01*
X135126957Y-124587097D01*
X135126959Y-124587097D01*
X135338288Y-124560025D01*
X135338289Y-124560025D01*
X135343416Y-124559368D01*
X135348366Y-124557883D01*
X135552429Y-124496661D01*
X135552434Y-124496659D01*
X135557384Y-124495174D01*
X135757994Y-124396896D01*
X135939860Y-124267173D01*
X135969487Y-124237650D01*
X136083616Y-124123918D01*
X136098096Y-124109489D01*
X136228453Y-123928077D01*
X136229776Y-123929028D01*
X136276645Y-123885857D01*
X136346580Y-123873625D01*
X136412026Y-123901144D01*
X136439875Y-123932994D01*
X136499987Y-124031088D01*
X136646250Y-124199938D01*
X136818126Y-124342632D01*
X137011000Y-124455338D01*
X137219692Y-124535030D01*
X137224760Y-124536061D01*
X137224763Y-124536062D01*
X137319862Y-124555410D01*
X137438597Y-124579567D01*
X137443772Y-124579757D01*
X137443774Y-124579757D01*
X137656673Y-124587564D01*
X137656677Y-124587564D01*
X137661837Y-124587753D01*
X137666957Y-124587097D01*
X137666959Y-124587097D01*
X137878288Y-124560025D01*
X137878289Y-124560025D01*
X137883416Y-124559368D01*
X137888366Y-124557883D01*
X138092429Y-124496661D01*
X138092434Y-124496659D01*
X138097384Y-124495174D01*
X138297994Y-124396896D01*
X138479860Y-124267173D01*
X138509487Y-124237650D01*
X138623616Y-124123918D01*
X138638096Y-124109489D01*
X138768453Y-123928077D01*
X138769776Y-123929028D01*
X138816645Y-123885857D01*
X138886580Y-123873625D01*
X138952026Y-123901144D01*
X138979875Y-123932994D01*
X139039987Y-124031088D01*
X139186250Y-124199938D01*
X139358126Y-124342632D01*
X139551000Y-124455338D01*
X139759692Y-124535030D01*
X139764760Y-124536061D01*
X139764763Y-124536062D01*
X139859862Y-124555410D01*
X139978597Y-124579567D01*
X139983772Y-124579757D01*
X139983774Y-124579757D01*
X140196673Y-124587564D01*
X140196677Y-124587564D01*
X140201837Y-124587753D01*
X140206957Y-124587097D01*
X140206959Y-124587097D01*
X140418288Y-124560025D01*
X140418289Y-124560025D01*
X140423416Y-124559368D01*
X140428366Y-124557883D01*
X140632429Y-124496661D01*
X140632434Y-124496659D01*
X140637384Y-124495174D01*
X140837994Y-124396896D01*
X141019860Y-124267173D01*
X141049487Y-124237650D01*
X141163616Y-124123918D01*
X141178096Y-124109489D01*
X141308453Y-123928077D01*
X141309776Y-123929028D01*
X141356645Y-123885857D01*
X141426580Y-123873625D01*
X141492026Y-123901144D01*
X141519875Y-123932994D01*
X141579987Y-124031088D01*
X141726250Y-124199938D01*
X141898126Y-124342632D01*
X142091000Y-124455338D01*
X142299692Y-124535030D01*
X142304760Y-124536061D01*
X142304763Y-124536062D01*
X142399862Y-124555410D01*
X142518597Y-124579567D01*
X142523772Y-124579757D01*
X142523774Y-124579757D01*
X142736673Y-124587564D01*
X142736677Y-124587564D01*
X142741837Y-124587753D01*
X142746957Y-124587097D01*
X142746959Y-124587097D01*
X142958288Y-124560025D01*
X142958289Y-124560025D01*
X142963416Y-124559368D01*
X142968366Y-124557883D01*
X143172429Y-124496661D01*
X143172434Y-124496659D01*
X143177384Y-124495174D01*
X143377994Y-124396896D01*
X143559860Y-124267173D01*
X143589487Y-124237650D01*
X143703616Y-124123918D01*
X143718096Y-124109489D01*
X143848453Y-123928077D01*
X143849776Y-123929028D01*
X143896645Y-123885857D01*
X143966580Y-123873625D01*
X144032026Y-123901144D01*
X144059875Y-123932994D01*
X144119987Y-124031088D01*
X144266250Y-124199938D01*
X144438126Y-124342632D01*
X144631000Y-124455338D01*
X144839692Y-124535030D01*
X144844760Y-124536061D01*
X144844763Y-124536062D01*
X144939862Y-124555410D01*
X145058597Y-124579567D01*
X145063772Y-124579757D01*
X145063774Y-124579757D01*
X145276673Y-124587564D01*
X145276677Y-124587564D01*
X145281837Y-124587753D01*
X145286957Y-124587097D01*
X145286959Y-124587097D01*
X145498288Y-124560025D01*
X145498289Y-124560025D01*
X145503416Y-124559368D01*
X145508366Y-124557883D01*
X145712429Y-124496661D01*
X145712434Y-124496659D01*
X145717384Y-124495174D01*
X145917994Y-124396896D01*
X146099860Y-124267173D01*
X146129487Y-124237650D01*
X146243616Y-124123918D01*
X146258096Y-124109489D01*
X146388453Y-123928077D01*
X146389776Y-123929028D01*
X146436645Y-123885857D01*
X146506580Y-123873625D01*
X146572026Y-123901144D01*
X146599875Y-123932994D01*
X146659987Y-124031088D01*
X146806250Y-124199938D01*
X146978126Y-124342632D01*
X147171000Y-124455338D01*
X147379692Y-124535030D01*
X147384760Y-124536061D01*
X147384763Y-124536062D01*
X147479862Y-124555410D01*
X147598597Y-124579567D01*
X147603772Y-124579757D01*
X147603774Y-124579757D01*
X147816673Y-124587564D01*
X147816677Y-124587564D01*
X147821837Y-124587753D01*
X147826957Y-124587097D01*
X147826959Y-124587097D01*
X148038288Y-124560025D01*
X148038289Y-124560025D01*
X148043416Y-124559368D01*
X148048366Y-124557883D01*
X148252429Y-124496661D01*
X148252434Y-124496659D01*
X148257384Y-124495174D01*
X148457994Y-124396896D01*
X148639860Y-124267173D01*
X148669487Y-124237650D01*
X148783616Y-124123918D01*
X148798096Y-124109489D01*
X148928453Y-123928077D01*
X148929776Y-123929028D01*
X148976645Y-123885857D01*
X149046580Y-123873625D01*
X149112026Y-123901144D01*
X149139875Y-123932994D01*
X149199987Y-124031088D01*
X149346250Y-124199938D01*
X149518126Y-124342632D01*
X149522587Y-124345239D01*
X149522593Y-124345243D01*
X149538568Y-124354577D01*
X149587293Y-124406215D01*
X149601000Y-124463366D01*
X149601000Y-125058275D01*
X149580998Y-125126396D01*
X149564095Y-125147370D01*
X148747370Y-125964095D01*
X148685058Y-125998121D01*
X148658275Y-126001000D01*
X104141725Y-126001000D01*
X104073604Y-125980998D01*
X104052630Y-125964095D01*
X103867905Y-125779370D01*
X103833879Y-125717058D01*
X103831000Y-125690275D01*
X103831000Y-124930248D01*
X103851002Y-124862127D01*
X103890697Y-124823104D01*
X103950120Y-124786332D01*
X103956348Y-124782478D01*
X104081305Y-124657303D01*
X104085146Y-124651072D01*
X104170275Y-124512968D01*
X104170276Y-124512966D01*
X104174115Y-124506738D01*
X104209793Y-124399173D01*
X104227632Y-124345389D01*
X104227632Y-124345387D01*
X104229797Y-124338861D01*
X104231453Y-124322705D01*
X104240172Y-124237598D01*
X104240500Y-124234400D01*
X104240500Y-123233600D01*
X104240061Y-123229365D01*
X104230238Y-123134692D01*
X104230237Y-123134688D01*
X104229526Y-123127834D01*
X104226485Y-123118717D01*
X104175868Y-122967002D01*
X104173550Y-122960054D01*
X104080478Y-122809652D01*
X103955303Y-122684695D01*
X103949069Y-122680852D01*
X103910883Y-122657313D01*
X103863390Y-122604540D01*
X103851000Y-122550054D01*
X103851000Y-121664427D01*
X103871002Y-121596306D01*
X103911165Y-121556995D01*
X104004171Y-121500000D01*
X104041416Y-121477176D01*
X104221969Y-121322969D01*
X104376176Y-121142416D01*
X104378755Y-121138208D01*
X104378759Y-121138202D01*
X104497654Y-120944183D01*
X104500240Y-120939963D01*
X104591105Y-120720594D01*
X104639753Y-120517960D01*
X104645380Y-120494524D01*
X104645381Y-120494518D01*
X104646535Y-120489711D01*
X104665165Y-120253000D01*
X106138835Y-120253000D01*
X106157465Y-120489711D01*
X106158619Y-120494518D01*
X106158620Y-120494524D01*
X106164247Y-120517960D01*
X106212895Y-120720594D01*
X106303760Y-120939963D01*
X106306346Y-120944183D01*
X106425241Y-121138202D01*
X106425245Y-121138208D01*
X106427824Y-121142416D01*
X106582031Y-121322969D01*
X106762584Y-121477176D01*
X106766792Y-121479755D01*
X106766798Y-121479759D01*
X106955541Y-121595421D01*
X106965037Y-121601240D01*
X106969607Y-121603133D01*
X106969611Y-121603135D01*
X107179833Y-121690211D01*
X107184406Y-121692105D01*
X107259927Y-121710236D01*
X107410476Y-121746380D01*
X107410482Y-121746381D01*
X107415289Y-121747535D01*
X107652000Y-121766165D01*
X107888711Y-121747535D01*
X107893518Y-121746381D01*
X107893524Y-121746380D01*
X108044073Y-121710236D01*
X108119594Y-121692105D01*
X108124167Y-121690211D01*
X108334389Y-121603135D01*
X108334393Y-121603133D01*
X108338963Y-121601240D01*
X108348459Y-121595421D01*
X108537202Y-121479759D01*
X108537208Y-121479755D01*
X108541416Y-121477176D01*
X108721969Y-121322969D01*
X108876176Y-121142416D01*
X108878755Y-121138208D01*
X108878759Y-121138202D01*
X108997654Y-120944183D01*
X109000240Y-120939963D01*
X109091105Y-120720594D01*
X109139753Y-120517960D01*
X109145380Y-120494524D01*
X109145381Y-120494518D01*
X109146535Y-120489711D01*
X109165165Y-120253000D01*
X109146535Y-120016289D01*
X109132462Y-119957668D01*
X109092260Y-119790218D01*
X109091105Y-119785406D01*
X109086577Y-119774474D01*
X109002135Y-119570611D01*
X109002133Y-119570607D01*
X109000240Y-119566037D01*
X108997654Y-119561817D01*
X108878759Y-119367798D01*
X108878755Y-119367792D01*
X108876176Y-119363584D01*
X108739990Y-119204131D01*
X108725177Y-119186787D01*
X108721969Y-119183031D01*
X108583354Y-119064642D01*
X108545178Y-119032037D01*
X108541416Y-119028824D01*
X108490548Y-118997652D01*
X108411165Y-118949005D01*
X108363533Y-118896357D01*
X108351000Y-118841573D01*
X108351000Y-115164427D01*
X108371002Y-115096306D01*
X108411165Y-115056995D01*
X108537194Y-114979763D01*
X108541416Y-114977176D01*
X108545178Y-114973963D01*
X108718213Y-114826177D01*
X108721969Y-114822969D01*
X108876176Y-114642416D01*
X108878755Y-114638208D01*
X108878759Y-114638202D01*
X108997654Y-114444183D01*
X109000240Y-114439963D01*
X109052239Y-114314427D01*
X109089211Y-114225167D01*
X109089212Y-114225165D01*
X109091105Y-114220594D01*
X109117536Y-114110502D01*
X109145380Y-113994524D01*
X109145381Y-113994518D01*
X109146535Y-113989711D01*
X109165165Y-113753000D01*
X109146535Y-113516289D01*
X109139747Y-113488012D01*
X109092260Y-113290218D01*
X109091105Y-113285406D01*
X109066149Y-113225156D01*
X109002135Y-113070611D01*
X109002133Y-113070607D01*
X109000240Y-113066037D01*
X108944630Y-112975290D01*
X108878759Y-112867798D01*
X108878755Y-112867792D01*
X108876176Y-112863584D01*
X108721969Y-112683031D01*
X108541416Y-112528824D01*
X108537208Y-112526245D01*
X108537202Y-112526241D01*
X108343183Y-112407346D01*
X108338963Y-112404760D01*
X108334393Y-112402867D01*
X108334389Y-112402865D01*
X108124167Y-112315789D01*
X108124165Y-112315788D01*
X108119594Y-112313895D01*
X108039391Y-112294640D01*
X107893524Y-112259620D01*
X107893518Y-112259619D01*
X107888711Y-112258465D01*
X107652000Y-112239835D01*
X107415289Y-112258465D01*
X107410482Y-112259619D01*
X107410476Y-112259620D01*
X107264609Y-112294640D01*
X107184406Y-112313895D01*
X107179835Y-112315788D01*
X107179833Y-112315789D01*
X106969611Y-112402865D01*
X106969607Y-112402867D01*
X106965037Y-112404760D01*
X106960817Y-112407346D01*
X106766798Y-112526241D01*
X106766792Y-112526245D01*
X106762584Y-112528824D01*
X106582031Y-112683031D01*
X106427824Y-112863584D01*
X106425245Y-112867792D01*
X106425241Y-112867798D01*
X106359370Y-112975290D01*
X106303760Y-113066037D01*
X106301867Y-113070607D01*
X106301865Y-113070611D01*
X106237851Y-113225156D01*
X106212895Y-113285406D01*
X106211740Y-113290218D01*
X106164254Y-113488012D01*
X106157465Y-113516289D01*
X106138835Y-113753000D01*
X106157465Y-113989711D01*
X106158619Y-113994518D01*
X106158620Y-113994524D01*
X106186464Y-114110502D01*
X106212895Y-114220594D01*
X106214788Y-114225165D01*
X106214789Y-114225167D01*
X106251762Y-114314427D01*
X106303760Y-114439963D01*
X106306346Y-114444183D01*
X106425241Y-114638202D01*
X106425245Y-114638208D01*
X106427824Y-114642416D01*
X106582031Y-114822969D01*
X106585787Y-114826177D01*
X106758822Y-114973963D01*
X106762584Y-114977176D01*
X106766806Y-114979763D01*
X106892835Y-115056995D01*
X106940467Y-115109643D01*
X106953000Y-115164427D01*
X106953000Y-118841573D01*
X106932998Y-118909694D01*
X106892835Y-118949005D01*
X106813452Y-118997652D01*
X106762584Y-119028824D01*
X106758822Y-119032037D01*
X106720647Y-119064642D01*
X106582031Y-119183031D01*
X106578823Y-119186787D01*
X106564010Y-119204131D01*
X106427824Y-119363584D01*
X106425245Y-119367792D01*
X106425241Y-119367798D01*
X106306346Y-119561817D01*
X106303760Y-119566037D01*
X106301867Y-119570607D01*
X106301865Y-119570611D01*
X106217423Y-119774474D01*
X106212895Y-119785406D01*
X106211740Y-119790218D01*
X106171539Y-119957668D01*
X106157465Y-120016289D01*
X106138835Y-120253000D01*
X104665165Y-120253000D01*
X104646535Y-120016289D01*
X104632462Y-119957668D01*
X104592260Y-119790218D01*
X104591105Y-119785406D01*
X104586577Y-119774474D01*
X104502135Y-119570611D01*
X104502133Y-119570607D01*
X104500240Y-119566037D01*
X104497654Y-119561817D01*
X104378759Y-119367798D01*
X104378755Y-119367792D01*
X104376176Y-119363584D01*
X104239990Y-119204131D01*
X104225177Y-119186787D01*
X104221969Y-119183031D01*
X104083354Y-119064642D01*
X104045178Y-119032037D01*
X104041416Y-119028824D01*
X103990548Y-118997652D01*
X103911165Y-118949005D01*
X103863533Y-118896357D01*
X103851000Y-118841573D01*
X103851000Y-115164427D01*
X103871002Y-115096306D01*
X103911165Y-115056995D01*
X104037194Y-114979763D01*
X104041416Y-114977176D01*
X104045178Y-114973963D01*
X104218213Y-114826177D01*
X104221969Y-114822969D01*
X104376176Y-114642416D01*
X104378755Y-114638208D01*
X104378759Y-114638202D01*
X104497654Y-114444183D01*
X104500240Y-114439963D01*
X104552239Y-114314427D01*
X104589211Y-114225167D01*
X104589212Y-114225165D01*
X104591105Y-114220594D01*
X104617536Y-114110502D01*
X104645380Y-113994524D01*
X104645381Y-113994518D01*
X104646535Y-113989711D01*
X104665165Y-113753000D01*
X104646535Y-113516289D01*
X104639747Y-113488012D01*
X104592260Y-113290218D01*
X104591105Y-113285406D01*
X104566149Y-113225156D01*
X104502135Y-113070611D01*
X104502133Y-113070607D01*
X104500240Y-113066037D01*
X104444630Y-112975290D01*
X104378759Y-112867798D01*
X104378755Y-112867792D01*
X104376176Y-112863584D01*
X104221969Y-112683031D01*
X104041416Y-112528824D01*
X104037208Y-112526245D01*
X104037202Y-112526241D01*
X103843183Y-112407346D01*
X103838963Y-112404760D01*
X103834393Y-112402867D01*
X103834389Y-112402865D01*
X103624167Y-112315789D01*
X103624165Y-112315788D01*
X103619594Y-112313895D01*
X103539391Y-112294640D01*
X103393524Y-112259620D01*
X103393518Y-112259619D01*
X103388711Y-112258465D01*
X103152000Y-112239835D01*
X102915289Y-112258465D01*
X102910482Y-112259619D01*
X102910476Y-112259620D01*
X102764609Y-112294640D01*
X102684406Y-112313895D01*
X102679835Y-112315788D01*
X102679833Y-112315789D01*
X102469611Y-112402865D01*
X102469607Y-112402867D01*
X102465037Y-112404760D01*
X102460817Y-112407346D01*
X102266798Y-112526241D01*
X102266792Y-112526245D01*
X102262584Y-112528824D01*
X102082031Y-112683031D01*
X101927824Y-112863584D01*
X101925245Y-112867792D01*
X101925241Y-112867798D01*
X101859370Y-112975290D01*
X101803760Y-113066037D01*
X101801867Y-113070607D01*
X101801865Y-113070611D01*
X101737851Y-113225156D01*
X101712895Y-113285406D01*
X101711740Y-113290218D01*
X101664254Y-113488012D01*
X101657465Y-113516289D01*
X101638835Y-113753000D01*
X101657465Y-113989711D01*
X101658619Y-113994518D01*
X101658620Y-113994524D01*
X101686464Y-114110502D01*
X101712895Y-114220594D01*
X101714788Y-114225165D01*
X101714789Y-114225167D01*
X101751762Y-114314427D01*
X101803760Y-114439963D01*
X101806346Y-114444183D01*
X101925241Y-114638202D01*
X101925245Y-114638208D01*
X101927824Y-114642416D01*
X102082031Y-114822969D01*
X102085787Y-114826177D01*
X102258822Y-114973963D01*
X102262584Y-114977176D01*
X102266806Y-114979763D01*
X102392835Y-115056995D01*
X102440467Y-115109643D01*
X102453000Y-115164427D01*
X102453000Y-118841573D01*
X102432998Y-118909694D01*
X102392835Y-118949005D01*
X102313452Y-118997652D01*
X102262584Y-119028824D01*
X102258822Y-119032037D01*
X102220647Y-119064642D01*
X102082031Y-119183031D01*
X102078823Y-119186787D01*
X102064010Y-119204131D01*
X101927824Y-119363584D01*
X101925245Y-119367792D01*
X101925241Y-119367798D01*
X101806346Y-119561817D01*
X101803760Y-119566037D01*
X101801867Y-119570607D01*
X101801865Y-119570611D01*
X101717423Y-119774474D01*
X101712895Y-119785406D01*
X101711740Y-119790218D01*
X101671539Y-119957668D01*
X101657465Y-120016289D01*
X101638835Y-120253000D01*
X98008500Y-120253000D01*
X98008500Y-108352669D01*
X101733001Y-108352669D01*
X101733371Y-108359490D01*
X101738895Y-108410352D01*
X101742521Y-108425604D01*
X101787676Y-108546054D01*
X101796214Y-108561649D01*
X101872715Y-108663724D01*
X101885276Y-108676285D01*
X101987351Y-108752786D01*
X102002946Y-108761324D01*
X102123394Y-108806478D01*
X102138649Y-108810105D01*
X102189514Y-108815631D01*
X102196328Y-108816000D01*
X102818885Y-108816000D01*
X102834124Y-108811525D01*
X102835329Y-108810135D01*
X102837000Y-108802452D01*
X102837000Y-108797884D01*
X103345000Y-108797884D01*
X103349475Y-108813123D01*
X103350865Y-108814328D01*
X103358548Y-108815999D01*
X103985669Y-108815999D01*
X103992490Y-108815629D01*
X104043352Y-108810105D01*
X104058604Y-108806479D01*
X104179054Y-108761324D01*
X104194649Y-108752786D01*
X104296724Y-108676285D01*
X104309285Y-108663724D01*
X104385786Y-108561649D01*
X104394324Y-108546054D01*
X104439478Y-108425606D01*
X104443105Y-108410351D01*
X104448631Y-108359486D01*
X104449000Y-108352672D01*
X104449000Y-107730115D01*
X104444525Y-107714876D01*
X104443135Y-107713671D01*
X104435452Y-107712000D01*
X103363115Y-107712000D01*
X103347876Y-107716475D01*
X103346671Y-107717865D01*
X103345000Y-107725548D01*
X103345000Y-108797884D01*
X102837000Y-108797884D01*
X102837000Y-107730115D01*
X102832525Y-107714876D01*
X102831135Y-107713671D01*
X102823452Y-107712000D01*
X101751116Y-107712000D01*
X101735877Y-107716475D01*
X101734672Y-107717865D01*
X101733001Y-107725548D01*
X101733001Y-108352669D01*
X98008500Y-108352669D01*
X98008500Y-104884695D01*
X101728251Y-104884695D01*
X101728548Y-104889848D01*
X101728548Y-104889851D01*
X101740202Y-105091975D01*
X101741110Y-105107715D01*
X101742247Y-105112761D01*
X101742248Y-105112767D01*
X101756653Y-105176684D01*
X101790222Y-105325639D01*
X101874266Y-105532616D01*
X101893610Y-105564182D01*
X101977216Y-105700615D01*
X101990987Y-105723088D01*
X102137250Y-105891938D01*
X102141225Y-105895238D01*
X102141231Y-105895244D01*
X102146425Y-105899556D01*
X102186059Y-105958460D01*
X102187555Y-106029441D01*
X102150439Y-106089962D01*
X102110168Y-106114480D01*
X102002946Y-106154676D01*
X101987351Y-106163214D01*
X101885276Y-106239715D01*
X101872715Y-106252276D01*
X101796214Y-106354351D01*
X101787676Y-106369946D01*
X101742522Y-106490394D01*
X101738895Y-106505649D01*
X101733369Y-106556514D01*
X101733000Y-106563328D01*
X101733000Y-107185885D01*
X101737475Y-107201124D01*
X101738865Y-107202329D01*
X101746548Y-107204000D01*
X104430884Y-107204000D01*
X104446123Y-107199525D01*
X104447328Y-107198135D01*
X104448999Y-107190452D01*
X104448999Y-106563331D01*
X104448629Y-106556510D01*
X104443105Y-106505648D01*
X104439479Y-106490396D01*
X104394324Y-106369946D01*
X104385786Y-106354351D01*
X104309285Y-106252276D01*
X104296724Y-106239715D01*
X104194649Y-106163214D01*
X104179054Y-106154676D01*
X104068813Y-106113348D01*
X104012049Y-106070706D01*
X103987349Y-106004145D01*
X104002557Y-105934796D01*
X104024104Y-105906115D01*
X104125430Y-105805144D01*
X104125440Y-105805132D01*
X104129096Y-105801489D01*
X104164841Y-105751745D01*
X104256435Y-105624277D01*
X104259453Y-105620077D01*
X104269402Y-105599948D01*
X104356136Y-105424453D01*
X104356137Y-105424451D01*
X104358430Y-105419811D01*
X104401903Y-105276726D01*
X104421865Y-105211023D01*
X104421865Y-105211021D01*
X104423370Y-105206069D01*
X104452529Y-104984590D01*
X104452617Y-104980996D01*
X104454074Y-104921365D01*
X104454074Y-104921361D01*
X104454156Y-104918000D01*
X104435852Y-104695361D01*
X104381431Y-104478702D01*
X104292354Y-104273840D01*
X104171014Y-104086277D01*
X104020670Y-103921051D01*
X104016619Y-103917852D01*
X104016615Y-103917848D01*
X103849414Y-103785800D01*
X103849410Y-103785798D01*
X103845359Y-103782598D01*
X103649789Y-103674638D01*
X103644920Y-103672914D01*
X103644916Y-103672912D01*
X103444087Y-103601795D01*
X103444083Y-103601794D01*
X103439212Y-103600069D01*
X103434119Y-103599162D01*
X103434116Y-103599161D01*
X103224373Y-103561800D01*
X103224367Y-103561799D01*
X103219284Y-103560894D01*
X103145452Y-103559992D01*
X103001081Y-103558228D01*
X103001079Y-103558228D01*
X102995911Y-103558165D01*
X102775091Y-103591955D01*
X102562756Y-103661357D01*
X102532443Y-103677137D01*
X102404001Y-103744000D01*
X102364607Y-103764507D01*
X102360474Y-103767610D01*
X102360471Y-103767612D01*
X102190100Y-103895530D01*
X102185965Y-103898635D01*
X102182393Y-103902373D01*
X102092108Y-103996851D01*
X102031629Y-104060138D01*
X102028715Y-104064410D01*
X102028714Y-104064411D01*
X101980746Y-104134729D01*
X101905743Y-104244680D01*
X101811688Y-104447305D01*
X101751989Y-104662570D01*
X101728251Y-104884695D01*
X98008500Y-104884695D01*
X98008500Y-72134500D01*
X98028502Y-72066379D01*
X98082158Y-72019886D01*
X98134500Y-72008500D01*
X191865500Y-72008500D01*
X191933621Y-72028502D01*
G37*
%TD.AperFunction*%
%TA.AperFunction,Conductor*%
G36*
X142897026Y-79215144D02*
G01*
X142924875Y-79246994D01*
X142984987Y-79345088D01*
X143131250Y-79513938D01*
X143303126Y-79656632D01*
X143307587Y-79659239D01*
X143307593Y-79659243D01*
X143323568Y-79668577D01*
X143372293Y-79720215D01*
X143386000Y-79777366D01*
X143386000Y-81056401D01*
X143385708Y-81064971D01*
X143383403Y-81098784D01*
X143381830Y-81121852D01*
X143383135Y-81129328D01*
X143383135Y-81129332D01*
X143392663Y-81183924D01*
X143393626Y-81190449D01*
X143401191Y-81252960D01*
X143403875Y-81260062D01*
X143404719Y-81263500D01*
X143408583Y-81277623D01*
X143409613Y-81281034D01*
X143410919Y-81288517D01*
X143413972Y-81295472D01*
X143436239Y-81346198D01*
X143438730Y-81352304D01*
X143460994Y-81411222D01*
X143465293Y-81417477D01*
X143466935Y-81420618D01*
X143474033Y-81433372D01*
X143475870Y-81436478D01*
X143478923Y-81443433D01*
X143483548Y-81449460D01*
X143483550Y-81449464D01*
X143517265Y-81493402D01*
X143521129Y-81498720D01*
X143556821Y-81550652D01*
X143562491Y-81555704D01*
X143562492Y-81555705D01*
X143602688Y-81591518D01*
X143607964Y-81596499D01*
X146373153Y-84361688D01*
X147385510Y-85374046D01*
X147391363Y-85380311D01*
X147428842Y-85423274D01*
X147480383Y-85459498D01*
X147485668Y-85463423D01*
X147535240Y-85502292D01*
X147542158Y-85505416D01*
X147545179Y-85507245D01*
X147557898Y-85514500D01*
X147561046Y-85516188D01*
X147567261Y-85520556D01*
X147625950Y-85543438D01*
X147631995Y-85545978D01*
X147689435Y-85571913D01*
X147696908Y-85573298D01*
X147700326Y-85574369D01*
X147714315Y-85578354D01*
X147717807Y-85579251D01*
X147724889Y-85582012D01*
X147732422Y-85583004D01*
X147732423Y-85583004D01*
X147787330Y-85590233D01*
X147793843Y-85591265D01*
X147848318Y-85601361D01*
X147848320Y-85601361D01*
X147855787Y-85602745D01*
X147863367Y-85602308D01*
X147863368Y-85602308D01*
X147917112Y-85599209D01*
X147924365Y-85599000D01*
X155058275Y-85599000D01*
X155126396Y-85619002D01*
X155147370Y-85635905D01*
X157335732Y-87824268D01*
X157335735Y-87824271D01*
X157335742Y-87824277D01*
X157764095Y-88252630D01*
X157798121Y-88314942D01*
X157801000Y-88341725D01*
X157801000Y-101571401D01*
X157800708Y-101579971D01*
X157796830Y-101636852D01*
X157798135Y-101644328D01*
X157798135Y-101644332D01*
X157807663Y-101698924D01*
X157808626Y-101705449D01*
X157809695Y-101714277D01*
X157816191Y-101767960D01*
X157818875Y-101775062D01*
X157819719Y-101778500D01*
X157823583Y-101792623D01*
X157824613Y-101796034D01*
X157825919Y-101803517D01*
X157828972Y-101810472D01*
X157851239Y-101861198D01*
X157853730Y-101867304D01*
X157875994Y-101926222D01*
X157880293Y-101932477D01*
X157881935Y-101935618D01*
X157889033Y-101948372D01*
X157890870Y-101951478D01*
X157893923Y-101958433D01*
X157898548Y-101964460D01*
X157898550Y-101964464D01*
X157932265Y-102008402D01*
X157936129Y-102013720D01*
X157971821Y-102065652D01*
X157977491Y-102070704D01*
X157977492Y-102070705D01*
X158017688Y-102106518D01*
X158022964Y-102111499D01*
X160587506Y-104676041D01*
X160618243Y-104726199D01*
X160665473Y-104871556D01*
X160673059Y-104884695D01*
X160688824Y-104912001D01*
X160705561Y-104980996D01*
X160682340Y-105048088D01*
X160626533Y-105091975D01*
X160579704Y-105101000D01*
X147748599Y-105101000D01*
X147740029Y-105100708D01*
X147690723Y-105097346D01*
X147690719Y-105097346D01*
X147683148Y-105096830D01*
X147675672Y-105098135D01*
X147675668Y-105098135D01*
X147621076Y-105107663D01*
X147614551Y-105108626D01*
X147559582Y-105115278D01*
X147559580Y-105115279D01*
X147552040Y-105116191D01*
X147544938Y-105118875D01*
X147541500Y-105119719D01*
X147527377Y-105123583D01*
X147523966Y-105124613D01*
X147516483Y-105125919D01*
X147509528Y-105128972D01*
X147458802Y-105151239D01*
X147452696Y-105153730D01*
X147435572Y-105160201D01*
X147393778Y-105175994D01*
X147387523Y-105180293D01*
X147384382Y-105181935D01*
X147371628Y-105189033D01*
X147368522Y-105190870D01*
X147361567Y-105193923D01*
X147355540Y-105198548D01*
X147355536Y-105198550D01*
X147311598Y-105232265D01*
X147306280Y-105236129D01*
X147254348Y-105271821D01*
X147249296Y-105277491D01*
X147249295Y-105277492D01*
X147213482Y-105317688D01*
X147208501Y-105322964D01*
X145658720Y-106872745D01*
X145596408Y-106906771D01*
X145547529Y-106907697D01*
X145413373Y-106883800D01*
X145413367Y-106883799D01*
X145408284Y-106882894D01*
X145334452Y-106881992D01*
X145190081Y-106880228D01*
X145190079Y-106880228D01*
X145184911Y-106880165D01*
X144964091Y-106913955D01*
X144751756Y-106983357D01*
X144553607Y-107086507D01*
X144549474Y-107089610D01*
X144549471Y-107089612D01*
X144379100Y-107217530D01*
X144374965Y-107220635D01*
X144220629Y-107382138D01*
X144113201Y-107539621D01*
X144058293Y-107584621D01*
X143987768Y-107592792D01*
X143924021Y-107561538D01*
X143903324Y-107537054D01*
X143822822Y-107412617D01*
X143822820Y-107412614D01*
X143820014Y-107408277D01*
X143669670Y-107243051D01*
X143665619Y-107239852D01*
X143665615Y-107239848D01*
X143498419Y-107107804D01*
X143498413Y-107107800D01*
X143494359Y-107104598D01*
X143494318Y-107104575D01*
X143449604Y-107051361D01*
X143439000Y-107000766D01*
X143439000Y-106168589D01*
X143439292Y-106160019D01*
X143442653Y-106110724D01*
X143442653Y-106110720D01*
X143443169Y-106103148D01*
X143432337Y-106041085D01*
X143431375Y-106034564D01*
X143430738Y-106029295D01*
X143423809Y-105972040D01*
X143421123Y-105964931D01*
X143420277Y-105961488D01*
X143416414Y-105947363D01*
X143415386Y-105943958D01*
X143414081Y-105936482D01*
X143388765Y-105878810D01*
X143386277Y-105872715D01*
X143366690Y-105820880D01*
X143366689Y-105820878D01*
X143364006Y-105813778D01*
X143359709Y-105807526D01*
X143358066Y-105804383D01*
X143350971Y-105791635D01*
X143349130Y-105788523D01*
X143346077Y-105781567D01*
X143307732Y-105731593D01*
X143303861Y-105726266D01*
X143272481Y-105680607D01*
X143272480Y-105680605D01*
X143268179Y-105674348D01*
X143259278Y-105666417D01*
X143222321Y-105633490D01*
X143217045Y-105628509D01*
X138814497Y-101225962D01*
X138808643Y-101219696D01*
X138776152Y-101182451D01*
X138771158Y-101176726D01*
X138719622Y-101140506D01*
X138714326Y-101136573D01*
X138670737Y-101102394D01*
X138670734Y-101102392D01*
X138664760Y-101097708D01*
X138657836Y-101094582D01*
X138654801Y-101092744D01*
X138642102Y-101085500D01*
X138638954Y-101083812D01*
X138632739Y-101079444D01*
X138574050Y-101056562D01*
X138568005Y-101054022D01*
X138510565Y-101028087D01*
X138503092Y-101026702D01*
X138499674Y-101025631D01*
X138485685Y-101021646D01*
X138482193Y-101020749D01*
X138475111Y-101017988D01*
X138467578Y-101016996D01*
X138467577Y-101016996D01*
X138412670Y-101009767D01*
X138406157Y-101008735D01*
X138351682Y-100998639D01*
X138351680Y-100998639D01*
X138344213Y-100997255D01*
X138336633Y-100997692D01*
X138336632Y-100997692D01*
X138282888Y-101000791D01*
X138275635Y-101001000D01*
X122541727Y-101001000D01*
X122473606Y-100980998D01*
X122452632Y-100964096D01*
X121735905Y-100247370D01*
X121701880Y-100185057D01*
X121699000Y-100158274D01*
X121699000Y-91461354D01*
X128905475Y-91461354D01*
X128908258Y-91465073D01*
X129062680Y-91522502D01*
X129076278Y-91525892D01*
X129241990Y-91548004D01*
X129255986Y-91548297D01*
X129422477Y-91533144D01*
X129436204Y-91530327D01*
X129595202Y-91478666D01*
X129607953Y-91472881D01*
X129614769Y-91468818D01*
X129621690Y-91461354D01*
X130105475Y-91461354D01*
X130108258Y-91465073D01*
X130262680Y-91522502D01*
X130276278Y-91525892D01*
X130441990Y-91548004D01*
X130455986Y-91548297D01*
X130622477Y-91533144D01*
X130636204Y-91530327D01*
X130795202Y-91478666D01*
X130807953Y-91472881D01*
X130814769Y-91468818D01*
X130824358Y-91458476D01*
X130820852Y-91450062D01*
X130478812Y-91108022D01*
X130464868Y-91100408D01*
X130463035Y-91100539D01*
X130456421Y-91104790D01*
X130112232Y-91448979D01*
X130105475Y-91461354D01*
X129621690Y-91461354D01*
X129624358Y-91458476D01*
X129620852Y-91450062D01*
X129278812Y-91108022D01*
X129264868Y-91100408D01*
X129263035Y-91100539D01*
X129256421Y-91104790D01*
X128912232Y-91448979D01*
X128905475Y-91461354D01*
X121699000Y-91461354D01*
X121699000Y-90731660D01*
X128453654Y-90731660D01*
X128469968Y-90898047D01*
X128472879Y-90911741D01*
X128525650Y-91070375D01*
X128531524Y-91083088D01*
X128532768Y-91085143D01*
X128543174Y-91094657D01*
X128551794Y-91090995D01*
X128893979Y-90748811D01*
X128901592Y-90734868D01*
X128901461Y-90733034D01*
X128897210Y-90726421D01*
X128553458Y-90382669D01*
X128541083Y-90375912D01*
X128535926Y-90379772D01*
X128535273Y-90381089D01*
X128478096Y-90538180D01*
X128474803Y-90551795D01*
X128453850Y-90717653D01*
X128453654Y-90731660D01*
X121699000Y-90731660D01*
X121699000Y-89531660D01*
X128453654Y-89531660D01*
X128469968Y-89698047D01*
X128472879Y-89711741D01*
X128525650Y-89870375D01*
X128531524Y-89883088D01*
X128532768Y-89885143D01*
X128543174Y-89894657D01*
X128551794Y-89890995D01*
X128893979Y-89548811D01*
X128901592Y-89534868D01*
X128901461Y-89533034D01*
X128897210Y-89526421D01*
X128553458Y-89182669D01*
X128541083Y-89175912D01*
X128535926Y-89179772D01*
X128535273Y-89181089D01*
X128478096Y-89338180D01*
X128474803Y-89351795D01*
X128453850Y-89517653D01*
X128453654Y-89531660D01*
X121699000Y-89531660D01*
X121699000Y-88887132D01*
X128980409Y-88887132D01*
X128980540Y-88888967D01*
X128984790Y-88895580D01*
X129536115Y-89446905D01*
X129570141Y-89509217D01*
X129565076Y-89580032D01*
X129536115Y-89625095D01*
X129266000Y-89895210D01*
X129038023Y-90123188D01*
X129030409Y-90137132D01*
X129030540Y-90138967D01*
X129034788Y-90145577D01*
X129266000Y-90376790D01*
X129853189Y-90963978D01*
X129867132Y-90971591D01*
X129868967Y-90971460D01*
X129875577Y-90967212D01*
X130105657Y-90737132D01*
X130830408Y-90737132D01*
X130830539Y-90738966D01*
X130834790Y-90745579D01*
X131178504Y-91089293D01*
X131190879Y-91096050D01*
X131194696Y-91093193D01*
X131251065Y-90944802D01*
X131254549Y-90931233D01*
X131278244Y-90762627D01*
X131278851Y-90754741D01*
X131279058Y-90739962D01*
X131278671Y-90732061D01*
X131259692Y-90562855D01*
X131256590Y-90549202D01*
X131201610Y-90391322D01*
X131198281Y-90384372D01*
X131189605Y-90376659D01*
X131180558Y-90380653D01*
X130838021Y-90723189D01*
X130830408Y-90737132D01*
X130105657Y-90737132D01*
X130466000Y-90376790D01*
X130693978Y-90148811D01*
X130701591Y-90134868D01*
X130701460Y-90133033D01*
X130697210Y-90126420D01*
X130195885Y-89625095D01*
X130161859Y-89562783D01*
X130163694Y-89537132D01*
X130830408Y-89537132D01*
X130830539Y-89538966D01*
X130834790Y-89545579D01*
X131178504Y-89889293D01*
X131190879Y-89896050D01*
X131194696Y-89893193D01*
X131251065Y-89744802D01*
X131254549Y-89731233D01*
X131278244Y-89562627D01*
X131278851Y-89554741D01*
X131279058Y-89539962D01*
X131278671Y-89532061D01*
X131259692Y-89362855D01*
X131256590Y-89349202D01*
X131201610Y-89191322D01*
X131198281Y-89184372D01*
X131189605Y-89176659D01*
X131180558Y-89180653D01*
X130838021Y-89523189D01*
X130830408Y-89537132D01*
X130163694Y-89537132D01*
X130166924Y-89491968D01*
X130195885Y-89446905D01*
X130466000Y-89176790D01*
X130743977Y-88898812D01*
X130751591Y-88884868D01*
X130751460Y-88883033D01*
X130747212Y-88876423D01*
X130107922Y-88237132D01*
X130830408Y-88237132D01*
X130830539Y-88238966D01*
X130834790Y-88245579D01*
X131178504Y-88589293D01*
X131190879Y-88596050D01*
X131194696Y-88593193D01*
X131251065Y-88444802D01*
X131254549Y-88431233D01*
X131278244Y-88262627D01*
X131278851Y-88254741D01*
X131279058Y-88239962D01*
X131278671Y-88232061D01*
X131259692Y-88062855D01*
X131256590Y-88049202D01*
X131201610Y-87891322D01*
X131198281Y-87884372D01*
X131189605Y-87876659D01*
X131180558Y-87880653D01*
X130838021Y-88223189D01*
X130830408Y-88237132D01*
X130107922Y-88237132D01*
X130106790Y-88236000D01*
X129878811Y-88008022D01*
X129864868Y-88000409D01*
X129863033Y-88000540D01*
X129856423Y-88004788D01*
X129625210Y-88236000D01*
X129266000Y-88595210D01*
X128988022Y-88873189D01*
X128980409Y-88887132D01*
X121699000Y-88887132D01*
X121699000Y-88231660D01*
X128453654Y-88231660D01*
X128469968Y-88398047D01*
X128472879Y-88411741D01*
X128525650Y-88570375D01*
X128531524Y-88583088D01*
X128532768Y-88585143D01*
X128543174Y-88594657D01*
X128551794Y-88590995D01*
X128893979Y-88248811D01*
X128901592Y-88234868D01*
X128901461Y-88233034D01*
X128897210Y-88226421D01*
X128553458Y-87882669D01*
X128541083Y-87875912D01*
X128535926Y-87879772D01*
X128535273Y-87881089D01*
X128478096Y-88038180D01*
X128474803Y-88051795D01*
X128453850Y-88217653D01*
X128453654Y-88231660D01*
X121699000Y-88231660D01*
X121699000Y-87687130D01*
X129080408Y-87687130D01*
X129080540Y-87688966D01*
X129084789Y-87695579D01*
X129253192Y-87863981D01*
X129267130Y-87871592D01*
X129268966Y-87871461D01*
X129275579Y-87867211D01*
X129443981Y-87698808D01*
X129450358Y-87687130D01*
X130280408Y-87687130D01*
X130280540Y-87688966D01*
X130284789Y-87695579D01*
X130453192Y-87863981D01*
X130467130Y-87871592D01*
X130468966Y-87871461D01*
X130475579Y-87867211D01*
X130643981Y-87698808D01*
X130651592Y-87684870D01*
X130651460Y-87683034D01*
X130647211Y-87676421D01*
X130478808Y-87508019D01*
X130464870Y-87500408D01*
X130463034Y-87500539D01*
X130456421Y-87504789D01*
X130288019Y-87673192D01*
X130280408Y-87687130D01*
X129450358Y-87687130D01*
X129451592Y-87684870D01*
X129451460Y-87683034D01*
X129447211Y-87676421D01*
X129278808Y-87508019D01*
X129264870Y-87500408D01*
X129263034Y-87500539D01*
X129256421Y-87504789D01*
X129088019Y-87673192D01*
X129080408Y-87687130D01*
X121699000Y-87687130D01*
X121699000Y-87131660D01*
X128453654Y-87131660D01*
X128469968Y-87298047D01*
X128472879Y-87311741D01*
X128525650Y-87470375D01*
X128531524Y-87483088D01*
X128532768Y-87485143D01*
X128543174Y-87494657D01*
X128551794Y-87490995D01*
X128893979Y-87148811D01*
X128900356Y-87137132D01*
X129630408Y-87137132D01*
X129630539Y-87138966D01*
X129634789Y-87145579D01*
X129853192Y-87363981D01*
X129867130Y-87371592D01*
X129868966Y-87371460D01*
X129875578Y-87367211D01*
X130093979Y-87148811D01*
X130100356Y-87137132D01*
X130830408Y-87137132D01*
X130830539Y-87138966D01*
X130834790Y-87145579D01*
X131178504Y-87489293D01*
X131190879Y-87496050D01*
X131194696Y-87493193D01*
X131251065Y-87344802D01*
X131254549Y-87331233D01*
X131278244Y-87162627D01*
X131278851Y-87154741D01*
X131279058Y-87139962D01*
X131278671Y-87132061D01*
X131259692Y-86962855D01*
X131256590Y-86949202D01*
X131201610Y-86791322D01*
X131198281Y-86784372D01*
X131189605Y-86776659D01*
X131180558Y-86780653D01*
X130838021Y-87123189D01*
X130830408Y-87137132D01*
X130100356Y-87137132D01*
X130101592Y-87134868D01*
X130101461Y-87133034D01*
X130097211Y-87126421D01*
X129878808Y-86908019D01*
X129864870Y-86900408D01*
X129863034Y-86900540D01*
X129856422Y-86904789D01*
X129638021Y-87123189D01*
X129630408Y-87137132D01*
X128900356Y-87137132D01*
X128901592Y-87134868D01*
X128901461Y-87133034D01*
X128897210Y-87126421D01*
X128553458Y-86782669D01*
X128541083Y-86775912D01*
X128535926Y-86779772D01*
X128535273Y-86781089D01*
X128478096Y-86938180D01*
X128474803Y-86951795D01*
X128453850Y-87117653D01*
X128453654Y-87131660D01*
X121699000Y-87131660D01*
X121699000Y-86412799D01*
X128907016Y-86412799D01*
X128910840Y-86421629D01*
X129253189Y-86763979D01*
X129267132Y-86771592D01*
X129268966Y-86771461D01*
X129275579Y-86767210D01*
X129618914Y-86423875D01*
X129624962Y-86412799D01*
X130107016Y-86412799D01*
X130110840Y-86421629D01*
X130453189Y-86763979D01*
X130467132Y-86771592D01*
X130468966Y-86771461D01*
X130475579Y-86767210D01*
X130818914Y-86423875D01*
X130825671Y-86411500D01*
X130821105Y-86405400D01*
X130815802Y-86402813D01*
X130658309Y-86346732D01*
X130644685Y-86343536D01*
X130478670Y-86323741D01*
X130464673Y-86323643D01*
X130298404Y-86341118D01*
X130284725Y-86344126D01*
X130126463Y-86398002D01*
X130115855Y-86402994D01*
X130107016Y-86412799D01*
X129624962Y-86412799D01*
X129625671Y-86411500D01*
X129621105Y-86405400D01*
X129615802Y-86402813D01*
X129458309Y-86346732D01*
X129444685Y-86343536D01*
X129278670Y-86323741D01*
X129264673Y-86323643D01*
X129098404Y-86341118D01*
X129084725Y-86344126D01*
X128926463Y-86398002D01*
X128915855Y-86402994D01*
X128907016Y-86412799D01*
X121699000Y-86412799D01*
X121699000Y-82741725D01*
X121719002Y-82673604D01*
X121735905Y-82652630D01*
X124239038Y-80149497D01*
X124245304Y-80143643D01*
X124257189Y-80133275D01*
X124288274Y-80106158D01*
X124324502Y-80054610D01*
X124328435Y-80049316D01*
X124330566Y-80046598D01*
X124367291Y-79999761D01*
X124370417Y-79992837D01*
X124372264Y-79989788D01*
X124379489Y-79977122D01*
X124381186Y-79973957D01*
X124385556Y-79967739D01*
X124408456Y-79909004D01*
X124410983Y-79902991D01*
X124436912Y-79845565D01*
X124438296Y-79838097D01*
X124439364Y-79834689D01*
X124443364Y-79820650D01*
X124444253Y-79817186D01*
X124447012Y-79810111D01*
X124452620Y-79767512D01*
X124481342Y-79702586D01*
X124504374Y-79681380D01*
X124535409Y-79659243D01*
X124644860Y-79581173D01*
X124673058Y-79553074D01*
X124785036Y-79441486D01*
X124803096Y-79423489D01*
X124933453Y-79242077D01*
X124934776Y-79243028D01*
X124981645Y-79199857D01*
X125051580Y-79187625D01*
X125117026Y-79215144D01*
X125144875Y-79246994D01*
X125204987Y-79345088D01*
X125351250Y-79513938D01*
X125523126Y-79656632D01*
X125716000Y-79769338D01*
X125924692Y-79849030D01*
X125929760Y-79850061D01*
X125929763Y-79850062D01*
X126024862Y-79869410D01*
X126143597Y-79893567D01*
X126148772Y-79893757D01*
X126148774Y-79893757D01*
X126361673Y-79901564D01*
X126361677Y-79901564D01*
X126366837Y-79901753D01*
X126371957Y-79901097D01*
X126371959Y-79901097D01*
X126583288Y-79874025D01*
X126583289Y-79874025D01*
X126588416Y-79873368D01*
X126593366Y-79871883D01*
X126797429Y-79810661D01*
X126797434Y-79810659D01*
X126802384Y-79809174D01*
X127002994Y-79710896D01*
X127184860Y-79581173D01*
X127213058Y-79553074D01*
X127325036Y-79441486D01*
X127343096Y-79423489D01*
X127473453Y-79242077D01*
X127474776Y-79243028D01*
X127521645Y-79199857D01*
X127591580Y-79187625D01*
X127657026Y-79215144D01*
X127684875Y-79246994D01*
X127744987Y-79345088D01*
X127891250Y-79513938D01*
X128063126Y-79656632D01*
X128256000Y-79769338D01*
X128464692Y-79849030D01*
X128469760Y-79850061D01*
X128469763Y-79850062D01*
X128564862Y-79869410D01*
X128683597Y-79893567D01*
X128688772Y-79893757D01*
X128688774Y-79893757D01*
X128901673Y-79901564D01*
X128901677Y-79901564D01*
X128906837Y-79901753D01*
X128911957Y-79901097D01*
X128911959Y-79901097D01*
X129123288Y-79874025D01*
X129123289Y-79874025D01*
X129128416Y-79873368D01*
X129133366Y-79871883D01*
X129337429Y-79810661D01*
X129337434Y-79810659D01*
X129342384Y-79809174D01*
X129542994Y-79710896D01*
X129724860Y-79581173D01*
X129753058Y-79553074D01*
X129865036Y-79441486D01*
X129883096Y-79423489D01*
X130013453Y-79242077D01*
X130014776Y-79243028D01*
X130061645Y-79199857D01*
X130131580Y-79187625D01*
X130197026Y-79215144D01*
X130224875Y-79246994D01*
X130284987Y-79345088D01*
X130431250Y-79513938D01*
X130603126Y-79656632D01*
X130796000Y-79769338D01*
X131004692Y-79849030D01*
X131009760Y-79850061D01*
X131009763Y-79850062D01*
X131104862Y-79869410D01*
X131223597Y-79893567D01*
X131228772Y-79893757D01*
X131228774Y-79893757D01*
X131441673Y-79901564D01*
X131441677Y-79901564D01*
X131446837Y-79901753D01*
X131451957Y-79901097D01*
X131451959Y-79901097D01*
X131663288Y-79874025D01*
X131663289Y-79874025D01*
X131668416Y-79873368D01*
X131673366Y-79871883D01*
X131877429Y-79810661D01*
X131877434Y-79810659D01*
X131882384Y-79809174D01*
X132082994Y-79710896D01*
X132264860Y-79581173D01*
X132293058Y-79553074D01*
X132405036Y-79441486D01*
X132423096Y-79423489D01*
X132553453Y-79242077D01*
X132554776Y-79243028D01*
X132601645Y-79199857D01*
X132671580Y-79187625D01*
X132737026Y-79215144D01*
X132764875Y-79246994D01*
X132824987Y-79345088D01*
X132971250Y-79513938D01*
X133143126Y-79656632D01*
X133336000Y-79769338D01*
X133544692Y-79849030D01*
X133549760Y-79850061D01*
X133549763Y-79850062D01*
X133644862Y-79869410D01*
X133763597Y-79893567D01*
X133768772Y-79893757D01*
X133768774Y-79893757D01*
X133981673Y-79901564D01*
X133981677Y-79901564D01*
X133986837Y-79901753D01*
X133991957Y-79901097D01*
X133991959Y-79901097D01*
X134203288Y-79874025D01*
X134203289Y-79874025D01*
X134208416Y-79873368D01*
X134213366Y-79871883D01*
X134417429Y-79810661D01*
X134417434Y-79810659D01*
X134422384Y-79809174D01*
X134622994Y-79710896D01*
X134804860Y-79581173D01*
X134833058Y-79553074D01*
X134945036Y-79441486D01*
X134963096Y-79423489D01*
X135093453Y-79242077D01*
X135094776Y-79243028D01*
X135141645Y-79199857D01*
X135211580Y-79187625D01*
X135277026Y-79215144D01*
X135304875Y-79246994D01*
X135364987Y-79345088D01*
X135511250Y-79513938D01*
X135683126Y-79656632D01*
X135876000Y-79769338D01*
X136084692Y-79849030D01*
X136089760Y-79850061D01*
X136089763Y-79850062D01*
X136184862Y-79869410D01*
X136303597Y-79893567D01*
X136308772Y-79893757D01*
X136308774Y-79893757D01*
X136521673Y-79901564D01*
X136521677Y-79901564D01*
X136526837Y-79901753D01*
X136531957Y-79901097D01*
X136531959Y-79901097D01*
X136743288Y-79874025D01*
X136743289Y-79874025D01*
X136748416Y-79873368D01*
X136753366Y-79871883D01*
X136957429Y-79810661D01*
X136957434Y-79810659D01*
X136962384Y-79809174D01*
X137162994Y-79710896D01*
X137344860Y-79581173D01*
X137373058Y-79553074D01*
X137485036Y-79441486D01*
X137503096Y-79423489D01*
X137633453Y-79242077D01*
X137634776Y-79243028D01*
X137681645Y-79199857D01*
X137751580Y-79187625D01*
X137817026Y-79215144D01*
X137844875Y-79246994D01*
X137904987Y-79345088D01*
X138051250Y-79513938D01*
X138223126Y-79656632D01*
X138416000Y-79769338D01*
X138624692Y-79849030D01*
X138629760Y-79850061D01*
X138629763Y-79850062D01*
X138724862Y-79869410D01*
X138843597Y-79893567D01*
X138848772Y-79893757D01*
X138848774Y-79893757D01*
X139061673Y-79901564D01*
X139061677Y-79901564D01*
X139066837Y-79901753D01*
X139071957Y-79901097D01*
X139071959Y-79901097D01*
X139283288Y-79874025D01*
X139283289Y-79874025D01*
X139288416Y-79873368D01*
X139293366Y-79871883D01*
X139497429Y-79810661D01*
X139497434Y-79810659D01*
X139502384Y-79809174D01*
X139702994Y-79710896D01*
X139884860Y-79581173D01*
X139913058Y-79553074D01*
X140025036Y-79441486D01*
X140043096Y-79423489D01*
X140173453Y-79242077D01*
X140174776Y-79243028D01*
X140221645Y-79199857D01*
X140291580Y-79187625D01*
X140357026Y-79215144D01*
X140384875Y-79246994D01*
X140444987Y-79345088D01*
X140591250Y-79513938D01*
X140763126Y-79656632D01*
X140956000Y-79769338D01*
X141164692Y-79849030D01*
X141169760Y-79850061D01*
X141169763Y-79850062D01*
X141264862Y-79869410D01*
X141383597Y-79893567D01*
X141388772Y-79893757D01*
X141388774Y-79893757D01*
X141601673Y-79901564D01*
X141601677Y-79901564D01*
X141606837Y-79901753D01*
X141611957Y-79901097D01*
X141611959Y-79901097D01*
X141823288Y-79874025D01*
X141823289Y-79874025D01*
X141828416Y-79873368D01*
X141833366Y-79871883D01*
X142037429Y-79810661D01*
X142037434Y-79810659D01*
X142042384Y-79809174D01*
X142242994Y-79710896D01*
X142424860Y-79581173D01*
X142453058Y-79553074D01*
X142565036Y-79441486D01*
X142583096Y-79423489D01*
X142713453Y-79242077D01*
X142714776Y-79243028D01*
X142761645Y-79199857D01*
X142831580Y-79187625D01*
X142897026Y-79215144D01*
G37*
%TD.AperFunction*%
%TD*%
M02*
